<?xml version="1.0" encoding="utf-8"?>
<!-- Generator: Adobe Illustrator 16.0.0, SVG Export Plug-In . SVG Version: 6.00 Build 0)  -->
<!DOCTYPE svg PUBLIC "-//W3C//DTD SVG 1.1//EN" "http://www.w3.org/Graphics/SVG/1.1/DTD/svg11.dtd">
<svg version="1.1" id="Layer_1" xmlns="http://www.w3.org/2000/svg" xmlns:xlink="http://www.w3.org/1999/xlink" x="0px" y="0px"
	 width="395.736px" height="202.667px" viewBox="0 0 395.736 202.667" enable-background="new 0 0 395.736 202.667"
	 xml:space="preserve">
<g id="Blue">
	<g id="outlined">
		<g>
			<rect x="0" fill="none" width="395.736" height="202.667"/>
			<g>
				<g>
					<path fill="#3B679C" d="M27.391,132.146c0-1.518,0.228-2.79,0.681-3.818c0.339-0.759,0.801-1.438,1.387-2.043
						c0.585-0.603,1.227-1.049,1.924-1.34c0.928-0.393,1.998-0.589,3.209-0.589c2.194,0,3.949,0.681,5.266,2.042
						c1.317,1.361,1.976,3.253,1.976,5.678c0,2.403-0.653,4.284-1.96,5.641c-1.308,1.357-3.055,2.037-5.241,2.037
						c-2.214,0-3.974-0.676-5.281-2.026C28.044,136.375,27.391,134.515,27.391,132.146z M30.488,132.044
						c0,1.686,0.39,2.963,1.168,3.834c0.779,0.869,1.768,1.305,2.967,1.305c1.197,0,2.182-0.432,2.949-1.295
						c0.769-0.863,1.153-2.158,1.153-3.885c0-1.707-0.375-2.979-1.123-3.819c-0.748-0.841-1.742-1.259-2.979-1.259
						c-1.239,0-2.238,0.425-2.996,1.273C30.868,129.048,30.488,130.332,30.488,132.044z"/>
					<path fill="#3B679C" d="M45.447,139.5v-14.89h10.207v2.519h-7.2v3.524h6.215v2.519h-6.215v6.328H45.447L45.447,139.5z"/>
					<path fill="#3B679C" d="M58.96,139.5v-14.89h10.207v2.519h-7.201v3.524h6.215v2.519h-6.215v6.328H58.96L58.96,139.5z"/>
					<path fill="#3B679C" d="M72.415,139.5v-14.89h3.006v14.89H72.415z"/>
					<path fill="#3B679C" d="M89.09,134.024l2.915,0.925c-0.447,1.625-1.19,2.831-2.229,3.62s-2.357,1.183-3.956,1.183
						c-1.977,0-3.602-0.674-4.875-2.025c-1.272-1.352-1.908-3.197-1.908-5.54c0-2.478,0.64-4.403,1.919-5.774
						c1.278-1.371,2.962-2.057,5.047-2.057c1.821,0,3.301,0.539,4.438,1.615c0.678,0.637,1.186,1.551,1.523,2.742l-2.977,0.711
						c-0.176-0.771-0.543-1.381-1.102-1.828s-1.238-0.67-2.037-0.67c-1.104,0-1.999,0.396-2.686,1.188
						c-0.688,0.793-1.031,2.076-1.031,3.85c0,1.883,0.338,3.223,1.015,4.021c0.678,0.799,1.559,1.199,2.642,1.199
						c0.799,0,1.485-0.254,2.062-0.762C88.427,135.914,88.84,135.115,89.09,134.024z"/>
					<path fill="#3B679C" d="M95.55,139.5v-14.89h11.04v2.519h-8.034v3.302h7.475v2.508h-7.475v4.052h8.318v2.51H95.55z"/>
					<path fill="#3B679C" d="M117.088,132.146c0-1.518,0.227-2.79,0.681-3.818c0.338-0.759,0.8-1.438,1.386-2.043
						c0.586-0.603,1.228-1.049,1.925-1.34c0.928-0.393,1.998-0.589,3.209-0.589c2.193,0,3.948,0.681,5.266,2.042
						s1.975,3.253,1.975,5.678c0,2.403-0.652,4.284-1.96,5.641c-1.307,1.357-3.054,2.037-5.24,2.037
						c-2.215,0-3.975-0.676-5.281-2.026C117.742,136.375,117.088,134.515,117.088,132.146z M120.186,132.044
						c0,1.686,0.39,2.963,1.168,3.834c0.779,0.869,1.768,1.305,2.966,1.305s2.183-0.432,2.95-1.295
						c0.769-0.863,1.153-2.158,1.153-3.885c0-1.707-0.375-2.979-1.123-3.819c-0.748-0.841-1.742-1.259-2.98-1.259
						s-2.237,0.425-2.995,1.273C120.566,129.048,120.186,130.332,120.186,132.044z"/>
					<path fill="#3B679C" d="M135.145,139.5v-14.89h10.207v2.519h-7.201v3.524h6.216v2.519h-6.216v6.328H135.145L135.145,139.5z"/>
					<path fill="#3B679C" d="M159.457,139.5v-12.371h-4.418v-2.519h11.832v2.519h-4.408V139.5H159.457z"/>
					<path fill="#3B679C" d="M169.902,139.5v-14.89h3.007v5.86h5.891v-5.86h3.006v14.89h-3.006v-6.51h-5.891v6.51H169.902z"/>
					<path fill="#3B679C" d="M186.126,139.5v-14.89h11.04v2.519h-8.034v3.302h7.475v2.508h-7.475v4.052h8.318v2.51H186.126z"/>
					<path fill="#3B679C" d="M215.2,134.024v-2.509h6.479v5.931c-0.629,0.609-1.543,1.146-2.736,1.61
						c-1.194,0.464-2.405,0.695-3.631,0.695c-1.559,0-2.916-0.326-4.074-0.979c-1.155-0.653-2.026-1.588-2.608-2.804
						c-0.582-1.215-0.873-2.536-0.873-3.965c0-1.551,0.324-2.93,0.975-4.135c0.651-1.205,1.603-2.129,2.854-2.771
						c0.955-0.494,2.143-0.742,3.563-0.742c1.851,0,3.293,0.389,4.332,1.163s1.709,1.847,2.006,3.214l-2.985,0.559
						c-0.209-0.73-0.604-1.309-1.183-1.73c-0.579-0.423-1.303-0.635-2.17-0.635c-1.313,0-2.356,0.416-3.133,1.248
						c-0.775,0.834-1.162,2.068-1.162,3.707c0,1.768,0.394,3.094,1.179,3.977c0.784,0.885,1.813,1.326,3.088,1.326
						c0.629,0,1.26-0.124,1.895-0.371c0.633-0.247,1.176-0.546,1.629-0.898v-1.889L215.2,134.024L215.2,134.024z"/>
					<path fill="#3B679C" d="M225.685,139.5v-14.89h11.039v2.519h-8.033v3.302h7.476v2.508h-7.476v4.052h8.318v2.51H225.685z"/>
					<path fill="#3B679C" d="M239.866,132.146c0-1.518,0.227-2.79,0.68-3.818c0.338-0.759,0.801-1.438,1.387-2.043
						c0.586-0.603,1.228-1.049,1.924-1.34c0.929-0.393,1.998-0.589,3.209-0.589c2.193,0,3.949,0.681,5.267,2.042
						s1.977,3.253,1.977,5.678c0,2.403-0.654,4.284-1.961,5.641c-1.307,1.357-3.053,2.037-5.24,2.037
						c-2.213,0-3.975-0.676-5.28-2.026C240.519,136.375,239.866,134.515,239.866,132.146z M242.964,132.044
						c0,1.686,0.389,2.963,1.168,3.834c0.777,0.869,1.766,1.305,2.965,1.305s2.182-0.432,2.949-1.295
						c0.77-0.863,1.154-2.158,1.154-3.885c0-1.707-0.375-2.979-1.123-3.819c-0.748-0.841-1.742-1.259-2.98-1.259
						s-2.238,0.425-2.996,1.273C243.343,129.048,242.964,130.332,242.964,132.044z"/>
					<path fill="#3B679C" d="M264.726,134.024v-2.509h6.48v5.931c-0.629,0.609-1.543,1.146-2.736,1.61
						c-1.195,0.464-2.406,0.695-3.631,0.695c-1.559,0-2.916-0.326-4.074-0.979c-1.156-0.653-2.027-1.588-2.608-2.804
						c-0.582-1.215-0.873-2.536-0.873-3.965c0-1.551,0.323-2.93,0.975-4.135s1.602-2.129,2.854-2.771
						c0.955-0.494,2.144-0.742,3.564-0.742c1.85,0,3.293,0.389,4.332,1.163s1.709,1.847,2.006,3.214l-2.986,0.559
						c-0.209-0.73-0.604-1.309-1.182-1.73c-0.58-0.423-1.303-0.635-2.17-0.635c-1.313,0-2.357,0.416-3.133,1.248
						c-0.776,0.834-1.162,2.068-1.162,3.707c0,1.768,0.393,3.094,1.178,3.977c0.785,0.885,1.814,1.326,3.088,1.326
						c0.629,0,1.261-0.124,1.896-0.371c0.633-0.247,1.176-0.546,1.629-0.898v-1.889L264.726,134.024L264.726,134.024z"/>
					<path fill="#3B679C" d="M275.21,139.5v-14.89h6.326c1.592,0,2.748,0.134,3.469,0.401c0.721,0.267,1.299,0.742,1.731,1.427
						s0.648,1.466,0.648,2.347c0,1.116-0.328,2.039-0.984,2.768c-0.655,0.728-1.639,1.188-2.944,1.376
						c0.649,0.379,1.188,0.796,1.608,1.25c0.424,0.454,0.994,1.259,1.711,2.417l1.818,2.904h-3.596l-2.172-3.24
						c-0.771-1.157-1.302-1.887-1.584-2.188c-0.285-0.301-0.587-0.508-0.904-0.618c-0.318-0.113-0.822-0.168-1.515-0.168h-0.608
						v6.215H275.21L275.21,139.5z M278.216,130.906h2.225c1.441,0,2.343-0.061,2.701-0.183c0.359-0.122,0.64-0.332,0.842-0.63
						c0.203-0.299,0.306-0.67,0.306-1.117c0-0.501-0.133-0.905-0.4-1.213c-0.267-0.309-0.645-0.504-1.133-0.584
						c-0.242-0.034-0.975-0.051-2.193-0.051h-2.346L278.216,130.906L278.216,130.906z"/>
					<path fill="#3B679C" d="M305.653,139.5h-3.27l-1.301-3.383h-5.951l-1.229,3.383h-3.188l5.799-14.89h3.18L305.653,139.5z
						 M300.118,133.608l-2.052-5.524l-2.012,5.524H300.118z"/>
					<path fill="#3B679C" d="M308.517,139.5v-14.89h4.824c1.828,0,3.02,0.075,3.574,0.224c0.854,0.224,1.567,0.709,2.145,1.459
						c0.574,0.748,0.863,1.715,0.863,2.898c0,0.914-0.166,1.684-0.498,2.307s-0.754,1.111-1.266,1.467
						c-0.511,0.354-1.029,0.591-1.56,0.705c-0.717,0.143-1.756,0.213-3.117,0.213h-1.961v5.617H308.517L308.517,139.5z
						 M311.522,127.128v4.225h1.646c1.184,0,1.977-0.078,2.375-0.232c0.399-0.156,0.713-0.399,0.938-0.731
						c0.229-0.332,0.343-0.718,0.343-1.158c0-0.542-0.16-0.987-0.479-1.34s-0.721-0.572-1.209-0.66
						c-0.357-0.067-1.08-0.103-2.162-0.103H311.522L311.522,127.128z"/>
					<path fill="#3B679C" d="M323.218,139.5v-14.89h3.006v5.86h5.892v-5.86h3.006v14.89h-3.006v-6.51h-5.892v6.51H323.218z"/>
					<path fill="#3B679C" d="M339.44,139.5v-14.89h11.039v2.519h-8.033v3.302h7.476v2.508h-7.476v4.052h8.318v2.51H339.44z"/>
					<path fill="#3B679C" d="M354.507,139.5v-14.89h6.326c1.592,0,2.748,0.134,3.469,0.401c0.721,0.267,1.299,0.742,1.732,1.427
						c0.432,0.685,0.647,1.466,0.647,2.347c0,1.116-0.328,2.039-0.984,2.768c-0.655,0.728-1.639,1.188-2.944,1.376
						c0.649,0.379,1.188,0.796,1.608,1.25c0.425,0.454,0.994,1.259,1.711,2.417l1.818,2.904h-3.596l-2.172-3.24
						c-0.771-1.157-1.302-1.887-1.584-2.188c-0.285-0.301-0.586-0.508-0.904-0.618c-0.318-0.113-0.822-0.168-1.514-0.168h-0.609
						v6.215H354.507L354.507,139.5z M357.513,130.906h2.225c1.441,0,2.343-0.061,2.701-0.183c0.359-0.122,0.64-0.332,0.843-0.63
						c0.202-0.299,0.305-0.67,0.305-1.117c0-0.501-0.133-0.905-0.4-1.213c-0.267-0.309-0.645-0.504-1.133-0.584
						c-0.242-0.034-0.975-0.051-2.193-0.051h-2.346L357.513,130.906L357.513,130.906z"/>
					<path fill="#3B679C" d="M31.458,157.91l3.375-0.328c0.203,1.133,0.615,1.965,1.235,2.496c0.621,0.53,1.459,0.797,2.515,0.797
						c1.117,0,1.959-0.236,2.524-0.709c0.566-0.474,0.851-1.025,0.851-1.658c0-0.406-0.119-0.752-0.357-1.037
						s-0.654-0.533-1.248-0.744c-0.406-0.141-1.332-0.391-2.776-0.75c-1.859-0.461-3.164-1.027-3.914-1.699
						c-1.056-0.945-1.582-2.098-1.582-3.457c0-0.875,0.248-1.693,0.744-2.455c0.495-0.762,1.211-1.342,2.145-1.74
						c0.934-0.397,2.061-0.598,3.381-0.598c2.156,0,3.779,0.473,4.869,1.418s1.662,2.207,1.717,3.785l-3.469,0.152
						c-0.148-0.883-0.467-1.519-0.955-1.904c-0.488-0.387-1.221-0.58-2.197-0.58c-1.008,0-1.797,0.207-2.367,0.621
						c-0.366,0.266-0.551,0.621-0.551,1.066c0,0.406,0.172,0.754,0.517,1.043c0.438,0.367,1.5,0.75,3.188,1.147
						c1.688,0.397,2.937,0.812,3.744,1.235c0.808,0.426,1.441,1.009,1.898,1.746c0.457,0.738,0.686,1.65,0.686,2.736
						c0,0.984-0.274,1.906-0.82,2.766c-0.547,0.859-1.319,1.498-2.319,1.916s-2.246,0.627-3.738,0.627
						c-2.172,0-3.84-0.502-5.004-1.506S31.685,159.832,31.458,157.91z"/>
					<path fill="#3B679C" d="M56.935,159.539l3.281,0.551c-0.422,1.203-1.088,2.119-1.998,2.748s-2.049,0.942-3.416,0.942
						c-2.164,0-3.766-0.706-4.805-2.12c-0.82-1.134-1.23-2.563-1.23-4.289c0-2.063,0.539-3.679,1.617-4.847s2.441-1.752,4.09-1.752
						c1.853,0,3.313,0.61,4.383,1.834c1.07,1.224,1.582,3.097,1.535,5.619h-8.25c0.023,0.978,0.289,1.735,0.797,2.278
						s1.142,0.814,1.898,0.814c0.516,0,0.949-0.141,1.301-0.422C56.49,160.615,56.755,160.164,56.935,159.539z M57.122,156.208
						c-0.023-0.953-0.271-1.678-0.738-2.174s-1.039-0.744-1.711-0.744c-0.719,0-1.313,0.262-1.781,0.785s-0.699,1.234-0.69,2.133
						H57.122z"/>
					<path fill="#3B679C" d="M75.292,154.733l-3.246,0.586c-0.109-0.647-0.357-1.137-0.744-1.465s-0.889-0.492-1.506-0.492
						c-0.82,0-1.476,0.283-1.963,0.851c-0.488,0.566-0.732,1.514-0.732,2.842c0,1.477,0.248,2.52,0.744,3.129
						s1.162,0.914,1.998,0.914c0.625,0,1.137-0.178,1.535-0.533c0.397-0.355,0.68-0.967,0.844-1.834l3.234,0.551
						c-0.336,1.484-0.98,2.605-1.935,3.363s-2.229,1.137-3.832,1.137c-1.819,0-3.271-0.574-4.354-1.723s-1.623-2.738-1.623-4.77
						c0-2.056,0.543-3.654,1.629-4.8s2.555-1.717,4.406-1.717c1.516,0,2.721,0.326,3.614,0.979
						C74.257,152.404,74.902,153.397,75.292,154.733z"/>
					<path fill="#3B679C" d="M78.407,157.1c0-1.095,0.27-2.151,0.809-3.177c0.539-1.023,1.303-1.805,2.291-2.344
						s2.092-0.809,3.311-0.809c1.884,0,3.427,0.611,4.629,1.834c1.203,1.223,1.806,2.768,1.806,4.635
						c0,1.883-0.608,3.443-1.822,4.682c-1.215,1.238-2.744,1.857-4.588,1.857c-1.141,0-2.229-0.258-3.264-0.773
						c-1.035-0.514-1.822-1.271-2.361-2.268C78.678,159.742,78.407,158.53,78.407,157.1z M81.782,157.276
						c0,1.233,0.293,2.181,0.879,2.836c0.586,0.656,1.309,0.984,2.168,0.984c0.858,0,1.58-0.328,2.162-0.984
						c0.582-0.655,0.872-1.608,0.872-2.858c0-1.219-0.29-2.156-0.872-2.813s-1.304-0.983-2.162-0.983
						c-0.859,0-1.582,0.328-2.168,0.983C82.075,155.096,81.782,156.042,81.782,157.276z"/>
					<path fill="#3B679C" d="M106.481,163.5h-3.293v-6.353c0-1.345-0.069-2.213-0.211-2.606c-0.141-0.395-0.369-0.701-0.686-0.92
						c-0.317-0.22-0.697-0.328-1.144-0.328c-0.569,0-1.082,0.156-1.535,0.469c-0.452,0.313-0.764,0.727-0.932,1.242
						c-0.168,0.515-0.252,1.469-0.252,2.858v5.638h-3.293v-12.445h3.059v1.828c1.087-1.406,2.453-2.109,4.103-2.109
						c0.727,0,1.391,0.131,1.992,0.393c0.601,0.263,1.057,0.597,1.364,1.002c0.309,0.406,0.523,0.867,0.646,1.383
						c0.121,0.517,0.182,1.255,0.182,2.216V163.5z"/>
					<path fill="#3B679C" d="M122.567,163.5h-3.059v-1.828c-0.508,0.711-1.107,1.24-1.799,1.588
						c-0.692,0.348-1.39,0.521-2.092,0.521c-1.431,0-2.654-0.575-3.675-1.729c-1.02-1.152-1.528-2.76-1.528-4.821
						c0-2.108,0.496-3.713,1.487-4.812c0.992-1.098,2.246-1.646,3.763-1.646c1.391,0,2.594,0.578,3.608,1.733v-6.188h3.293
						L122.567,163.5L122.567,163.5z M113.778,157.005c0,1.328,0.185,2.289,0.552,2.884c0.53,0.858,1.272,1.288,2.227,1.288
						c0.758,0,1.402-0.321,1.935-0.967c0.531-0.645,0.797-1.606,0.797-2.889c0-1.43-0.259-2.459-0.773-3.088
						s-1.176-0.943-1.979-0.943c-0.781,0-1.437,0.312-1.964,0.933C114.044,154.843,113.778,155.772,113.778,157.005z"/>
					<path fill="#3B679C" d="M129.731,154.85l-2.987-0.539c0.336-1.203,0.914-2.095,1.733-2.672c0.82-0.578,2.039-0.867,3.656-0.867
						c1.469,0,2.563,0.174,3.281,0.521c0.718,0.348,1.225,0.789,1.518,1.324s0.439,1.518,0.439,2.947l-0.035,3.844
						c0,1.094,0.053,1.9,0.158,2.42c0.104,0.521,0.303,1.076,0.592,1.67h-3.258c-0.086-0.219-0.191-0.543-0.316-0.973
						c-0.055-0.195-0.094-0.324-0.117-0.387c-0.563,0.547-1.164,0.957-1.805,1.23c-0.641,0.272-1.324,0.409-2.051,0.409
						c-1.281,0-2.291-0.348-3.029-1.043c-0.738-0.694-1.107-1.573-1.107-2.637c0-0.703,0.168-1.33,0.505-1.882
						c0.336-0.551,0.807-0.973,1.411-1.266c0.605-0.293,1.479-0.549,2.619-0.768c1.539-0.289,2.605-0.559,3.199-0.809v-0.328
						c0-0.633-0.156-1.084-0.469-1.354c-0.313-0.271-0.902-0.403-1.771-0.403c-0.586,0-1.043,0.114-1.371,0.346
						C130.199,153.865,129.934,154.272,129.731,154.85z M134.137,157.522c-0.422,0.142-1.09,0.31-2.004,0.504
						c-0.914,0.195-1.512,0.388-1.793,0.574c-0.43,0.305-0.646,0.69-0.646,1.159c0,0.462,0.173,0.859,0.517,1.195
						s0.781,0.504,1.313,0.504c0.595,0,1.16-0.194,1.699-0.586c0.398-0.297,0.66-0.66,0.785-1.09
						c0.086-0.281,0.129-0.816,0.129-1.604V157.522L134.137,157.522z"/>
					<path fill="#3B679C" d="M145.184,163.5h-3.293v-12.445h3.06v1.77c0.522-0.836,0.993-1.387,1.411-1.652
						c0.418-0.264,0.894-0.397,1.425-0.397c0.75,0,1.473,0.207,2.168,0.621l-1.021,2.871c-0.555-0.358-1.07-0.539-1.547-0.539
						c-0.461,0-0.852,0.127-1.172,0.381s-0.572,0.713-0.756,1.377c-0.185,0.664-0.275,2.056-0.275,4.173V163.5L145.184,163.5z"/>
					<path fill="#3B679C" d="M152.111,151.052h3.505l2.977,8.837l2.906-8.837h3.41l-4.396,11.978l-0.785,2.169
						c-0.289,0.727-0.563,1.28-0.826,1.663c-0.262,0.384-0.563,0.693-0.901,0.933c-0.339,0.238-0.758,0.424-1.254,0.557
						s-1.058,0.199-1.683,0.199c-0.633,0-1.254-0.066-1.862-0.199l-0.293-2.578c0.516,0.102,0.979,0.152,1.395,0.152
						c0.766,0,1.332-0.225,1.699-0.674s0.647-1.021,0.844-1.717L152.111,151.052z"/>
					<path fill="#3B679C" d="M179.339,157.182l3.363,1.065c-0.517,1.875-1.373,3.269-2.572,4.178c-1.2,0.91-2.721,1.365-4.564,1.365
						c-2.28,0-4.155-0.778-5.625-2.338c-1.469-1.559-2.203-3.688-2.203-6.393c0-2.859,0.738-5.08,2.216-6.662
						c1.477-1.582,3.418-2.373,5.823-2.373c2.103,0,3.81,0.621,5.121,1.863c0.781,0.734,1.367,1.789,1.759,3.164l-3.435,0.82
						c-0.204-0.892-0.627-1.595-1.271-2.109c-0.645-0.516-1.429-0.773-2.351-0.773c-1.272,0-2.307,0.457-3.1,1.371
						s-1.189,2.395-1.189,4.441c0,2.172,0.392,3.719,1.172,4.641c0.781,0.922,1.797,1.383,3.047,1.383
						c0.923,0,1.716-0.293,2.38-0.879S179.05,158.44,179.339,157.182z"/>
					<path fill="#3B679C" d="M186.632,149.367v-3.048h3.293v3.048H186.632z M186.632,163.5v-12.445h3.293V163.5H186.632z"/>
					<path fill="#3B679C" d="M200.497,151.052v2.625h-2.25v5.017c0,1.017,0.021,1.606,0.063,1.774
						c0.043,0.169,0.142,0.308,0.293,0.416c0.152,0.109,0.338,0.164,0.558,0.164c0.304,0,0.746-0.104,1.323-0.315l0.281,2.556
						c-0.766,0.328-1.632,0.491-2.601,0.491c-0.595,0-1.129-0.1-1.605-0.299c-0.476-0.198-0.826-0.457-1.049-0.772
						c-0.223-0.316-0.377-0.744-0.463-1.283c-0.07-0.383-0.105-1.156-0.105-2.32v-5.426h-1.512v-2.625h1.512v-2.473l3.306-1.922
						v4.395h2.249V151.052z"/>
					<path fill="#3B679C" d="M204.329,149.367v-3.048h3.293v3.048H204.329z M204.329,163.5v-12.445h3.293V163.5H204.329z"/>
					<path fill="#3B679C" d="M219.663,159.539l3.28,0.551c-0.422,1.203-1.088,2.119-1.998,2.748
						c-0.909,0.629-2.049,0.942-3.416,0.942c-2.163,0-3.766-0.706-4.805-2.12c-0.82-1.134-1.229-2.563-1.229-4.289
						c0-2.063,0.539-3.679,1.616-4.847c1.078-1.168,2.441-1.752,4.091-1.752c1.852,0,3.313,0.61,4.383,1.834
						c1.069,1.224,1.582,3.097,1.535,5.619h-8.25c0.022,0.978,0.289,1.735,0.797,2.278s1.141,0.814,1.897,0.814
						c0.517,0,0.949-0.141,1.302-0.422C219.218,160.615,219.483,160.164,219.663,159.539z M219.851,156.208
						c-0.022-0.953-0.27-1.678-0.738-2.174c-0.468-0.496-1.038-0.744-1.711-0.744c-0.719,0-1.313,0.262-1.78,0.785
						c-0.469,0.523-0.699,1.234-0.691,2.133H219.851z"/>
					<path fill="#3B679C" d="M226.05,159.949l3.305-0.505c0.142,0.642,0.426,1.127,0.855,1.459c0.429,0.332,1.031,0.498,1.805,0.498
						c0.853,0,1.492-0.155,1.922-0.469c0.289-0.22,0.435-0.513,0.435-0.879c0-0.25-0.078-0.457-0.234-0.621
						c-0.164-0.156-0.531-0.302-1.102-0.435c-2.656-0.586-4.341-1.121-5.052-1.604c-0.983-0.672-1.477-1.604-1.477-2.802
						c0-1.077,0.426-1.983,1.277-2.719c0.851-0.734,2.172-1.102,3.961-1.102c1.702,0,2.969,0.277,3.797,0.832
						s1.397,1.375,1.711,2.461l-3.105,0.574c-0.133-0.484-0.385-0.855-0.756-1.113s-0.899-0.387-1.588-0.387
						c-0.867,0-1.488,0.121-1.863,0.363c-0.25,0.172-0.375,0.395-0.375,0.668c0,0.233,0.109,0.434,0.328,0.598
						c0.297,0.219,1.322,0.527,3.076,0.926s2.979,0.887,3.674,1.465c0.688,0.586,1.031,1.402,1.031,2.449
						c0,1.141-0.478,2.121-1.43,2.941c-0.953,0.82-2.363,1.229-4.23,1.229c-1.695,0-3.037-0.344-4.024-1.03
						C227.002,162.06,226.354,161.126,226.05,159.949z"/>
					<path fill="#3B679C" d="M241.864,163.5v-3.293h3.294v3.293H241.864z"/>
					<path fill="#3B679C" d="M248.899,159.949l3.306-0.505c0.141,0.642,0.426,1.127,0.854,1.459s1.031,0.498,1.805,0.498
						c0.853,0,1.492-0.155,1.923-0.469c0.289-0.22,0.434-0.513,0.434-0.879c0-0.25-0.078-0.457-0.234-0.621
						c-0.164-0.156-0.53-0.302-1.102-0.435c-2.656-0.586-4.34-1.121-5.051-1.604c-0.984-0.672-1.478-1.604-1.478-2.802
						c0-1.077,0.426-1.983,1.277-2.719c0.851-0.734,2.172-1.102,3.961-1.102c1.703,0,2.969,0.277,3.797,0.832
						s1.398,1.375,1.711,2.461l-3.104,0.574c-0.134-0.484-0.386-0.855-0.757-1.113c-0.37-0.258-0.899-0.387-1.588-0.387
						c-0.866,0-1.487,0.121-1.862,0.363c-0.25,0.172-0.375,0.395-0.375,0.668c0,0.233,0.108,0.434,0.328,0.598
						c0.297,0.219,1.321,0.527,3.075,0.926s2.979,0.887,3.675,1.465c0.688,0.586,1.03,1.402,1.03,2.449
						c0,1.141-0.477,2.121-1.43,2.941s-2.363,1.229-4.23,1.229c-1.694,0-3.036-0.344-4.024-1.03
						C249.851,162.06,249.204,161.126,248.899,159.949z"/>
					<path fill="#3B679C" d="M270.396,151.052v2.625h-2.25v5.017c0,1.017,0.021,1.606,0.064,1.774
						c0.043,0.169,0.141,0.308,0.293,0.416c0.151,0.109,0.338,0.164,0.557,0.164c0.306,0,0.746-0.104,1.324-0.315l0.281,2.556
						c-0.767,0.328-1.633,0.491-2.603,0.491c-0.594,0-1.129-0.1-1.604-0.299c-0.477-0.198-0.826-0.457-1.049-0.772
						c-0.224-0.316-0.377-0.744-0.464-1.283c-0.069-0.383-0.104-1.156-0.104-2.32v-5.426h-1.512v-2.625h1.512v-2.473l3.305-1.922
						v4.395h2.25V151.052z"/>
					<path fill="#3B679C" d="M276.694,154.85l-2.987-0.539c0.336-1.203,0.914-2.095,1.733-2.672c0.82-0.578,2.039-0.867,3.656-0.867
						c1.469,0,2.563,0.174,3.281,0.521c0.718,0.348,1.225,0.789,1.518,1.324s0.439,1.518,0.439,2.947l-0.035,3.844
						c0,1.094,0.053,1.9,0.158,2.42c0.104,0.521,0.303,1.076,0.592,1.67h-3.258c-0.086-0.219-0.191-0.543-0.316-0.973
						c-0.055-0.195-0.094-0.324-0.117-0.387c-0.563,0.547-1.164,0.957-1.805,1.23c-0.641,0.272-1.324,0.409-2.051,0.409
						c-1.281,0-2.291-0.348-3.029-1.043c-0.738-0.694-1.106-1.573-1.106-2.637c0-0.703,0.168-1.33,0.504-1.882
						c0.336-0.551,0.807-0.973,1.412-1.266c0.604-0.293,1.479-0.549,2.618-0.768c1.539-0.289,2.605-0.559,3.199-0.809v-0.328
						c0-0.633-0.156-1.084-0.469-1.354c-0.313-0.271-0.902-0.403-1.771-0.403c-0.586,0-1.043,0.114-1.37,0.346
						C277.162,153.865,276.897,154.272,276.694,154.85z M281.101,157.522c-0.422,0.142-1.09,0.31-2.004,0.504
						c-0.914,0.195-1.512,0.388-1.793,0.574c-0.43,0.305-0.645,0.69-0.645,1.159c0,0.462,0.172,0.859,0.516,1.195
						s0.781,0.504,1.313,0.504c0.595,0,1.16-0.194,1.699-0.586c0.398-0.297,0.66-0.66,0.785-1.09
						c0.086-0.281,0.129-0.816,0.129-1.604V157.522z"/>
					<path fill="#3B679C" d="M294.636,151.052v2.625h-2.25v5.017c0,1.017,0.021,1.606,0.064,1.774
						c0.043,0.169,0.141,0.308,0.293,0.416c0.151,0.109,0.338,0.164,0.557,0.164c0.305,0,0.746-0.104,1.324-0.315l0.28,2.556
						c-0.766,0.328-1.633,0.491-2.602,0.491c-0.594,0-1.129-0.1-1.604-0.299c-0.477-0.198-0.826-0.457-1.05-0.772
						c-0.223-0.316-0.377-0.744-0.463-1.283c-0.069-0.383-0.104-1.156-0.104-2.32v-5.426h-1.513v-2.625h1.513v-2.473l3.305-1.922
						v4.395h2.25V151.052z"/>
					<path fill="#3B679C" d="M305.61,159.539l3.281,0.551c-0.422,1.203-1.088,2.119-1.998,2.748s-2.049,0.942-3.416,0.942
						c-2.164,0-3.766-0.706-4.805-2.12c-0.82-1.134-1.23-2.563-1.23-4.289c0-2.063,0.539-3.679,1.617-4.847s2.441-1.752,4.09-1.752
						c1.853,0,3.313,0.61,4.384,1.834c1.069,1.224,1.582,3.097,1.534,5.619h-8.25c0.023,0.978,0.289,1.735,0.798,2.278
						c0.508,0.543,1.141,0.814,1.897,0.814c0.516,0,0.949-0.141,1.301-0.422C305.165,160.615,305.431,160.164,305.61,159.539z
						 M305.798,156.208c-0.023-0.953-0.271-1.678-0.738-2.174s-1.039-0.744-1.711-0.744c-0.719,0-1.313,0.262-1.781,0.785
						c-0.468,0.523-0.698,1.234-0.69,2.133H305.798z"/>
					<path fill="#3B679C" d="M312.942,163.5v-3.293h3.293v3.293H312.942z"/>
					<path fill="#3B679C" d="M320.374,164.319l3.762,0.457c0.063,0.438,0.207,0.738,0.434,0.901
						c0.313,0.234,0.806,0.353,1.478,0.353c0.858,0,1.504-0.129,1.934-0.387c0.289-0.172,0.508-0.449,0.656-0.832
						c0.102-0.272,0.152-0.776,0.152-1.513v-1.815c-0.984,1.345-2.228,2.017-3.728,2.017c-1.672,0-2.996-0.707-3.973-2.121
						c-0.766-1.117-1.148-2.508-1.148-4.172c0-2.086,0.502-3.681,1.506-4.781c1.005-1.102,2.253-1.652,3.744-1.652
						c1.539,0,2.81,0.676,3.81,2.027v-1.746h3.082v11.168c0,1.469-0.121,2.566-0.363,3.293s-0.582,1.297-1.02,1.711
						c-0.438,0.414-1.021,0.738-1.753,0.973c-0.73,0.235-1.653,0.352-2.771,0.352c-2.109,0-3.605-0.36-4.488-1.084
						c-0.883-0.723-1.324-1.639-1.324-2.747C320.362,164.608,320.366,164.475,320.374,164.319z M323.315,157.018
						c0,1.319,0.256,2.287,0.769,2.899c0.512,0.613,1.143,0.92,1.893,0.92c0.806,0,1.484-0.313,2.039-0.942s0.832-1.562,0.832-2.795
						c0-1.289-0.266-2.246-0.797-2.871s-1.203-0.938-2.016-0.938c-0.789,0-1.439,0.308-1.951,0.92
						C323.572,154.824,323.315,155.759,323.315,157.018z"/>
					<path fill="#3B679C" d="M335.962,157.1c0-1.095,0.27-2.151,0.809-3.177c0.539-1.023,1.304-1.805,2.291-2.344
						c0.988-0.539,2.092-0.809,3.312-0.809c1.883,0,3.426,0.611,4.629,1.834s1.805,2.768,1.805,4.635
						c0,1.883-0.606,3.443-1.822,4.682c-1.215,1.24-2.743,1.857-4.588,1.857c-1.141,0-2.229-0.258-3.264-0.773
						c-1.035-0.514-1.822-1.271-2.361-2.268C336.233,159.742,335.962,158.53,335.962,157.1z M339.337,157.276
						c0,1.233,0.293,2.181,0.879,2.836c0.586,0.656,1.309,0.984,2.168,0.984s1.58-0.328,2.162-0.984
						c0.582-0.655,0.873-1.608,0.873-2.858c0-1.219-0.291-2.156-0.873-2.813s-1.303-0.983-2.162-0.983s-1.582,0.328-2.168,0.983
						C339.63,155.096,339.337,156.042,339.337,157.276z"/>
					<path fill="#3B679C" d="M355.702,163.5l-5.017-12.445h3.457l2.344,6.352l0.681,2.121c0.18-0.539,0.293-0.895,0.34-1.066
						c0.109-0.352,0.227-0.703,0.352-1.055l2.367-6.352h3.387l-4.944,12.445H355.702z"/>
				</g>
				<g>
					<g>
						<path fill="#3B679C" d="M159.932,52.406l4.989-0.261c0.069,1.587,0.341,2.659,0.816,3.215
							c0.766,0.904,2.179,1.356,4.241,1.356c1.715,0,2.955-0.307,3.721-0.921c0.765-0.614,1.146-1.355,1.146-2.225
							c0-0.753-0.313-1.391-0.938-1.912c-0.44-0.382-1.648-1.002-3.624-1.86c-1.977-0.857-3.418-1.573-4.328-2.146
							c-0.91-0.573-1.625-1.318-2.147-2.233c-0.521-0.915-0.782-1.987-0.782-3.215c0-2.144,0.776-3.922,2.329-5.336
							c1.554-1.414,3.802-2.121,6.744-2.121c2.989,0,5.304,0.701,6.943,2.103s2.541,3.268,2.703,5.597l-5.023,0.226
							c-0.127-1.217-0.568-2.149-1.321-2.798s-1.865-0.973-3.337-0.973c-1.448,0-2.482,0.255-3.103,0.765s-0.93,1.153-0.93,1.929
							c0,0.73,0.283,1.333,0.852,1.808c0.568,0.487,1.825,1.153,3.772,1.999c2.931,1.263,4.797,2.289,5.597,3.076
							c1.192,1.159,1.79,2.648,1.79,4.467c0,2.248-0.89,4.169-2.668,5.762c-1.779,1.594-4.255,2.39-7.431,2.39
							c-2.189,0-4.087-0.368-5.691-1.104c-1.605-0.736-2.737-1.758-3.398-3.068C160.194,55.616,159.886,54.109,159.932,52.406z"/>
						<path fill="#3B679C" d="M201.239,52.98h-12.514c-0.012,0.197-0.018,0.347-0.018,0.452c0,1.229,0.351,2.219,1.052,2.972
							c0.701,0.753,1.556,1.13,2.563,1.13c1.657,0,2.949-0.857,3.877-2.573l4.466,0.748c-0.867,1.796-2.03,3.143-3.484,4.041
							c-1.455,0.898-3.085,1.347-4.893,1.347c-2.479,0-4.496-0.785-6.048-2.355c-1.553-1.57-2.329-3.647-2.329-6.231
							c0-2.526,0.7-4.773,2.103-6.744c1.912-2.665,4.641-3.998,8.188-3.998c2.259,0,4.055,0.698,5.389,2.094
							c1.332,1.396,1.998,3.352,1.998,5.866C201.587,50.935,201.472,52.018,201.239,52.98z M197.033,49.938
							c0.011-0.22,0.018-0.388,0.018-0.504c0-1.367-0.307-2.393-0.921-3.077s-1.438-1.025-2.468-1.025
							c-1.031,0-1.955,0.389-2.772,1.165c-0.816,0.776-1.371,1.924-1.66,3.441H197.033z"/>
						<path fill="#3B679C" d="M216.22,53.71l4.85,0.782c-0.801,2.155-1.981,3.795-3.547,4.919c-1.563,1.124-3.377,1.686-5.438,1.686
							c-2.354,0-4.219-0.701-5.599-2.103c-1.379-1.402-2.067-3.331-2.067-5.788c0-2.004,0.418-3.899,1.252-5.684
							c0.834-1.784,2.092-3.189,3.771-4.215c1.68-1.026,3.523-1.538,5.527-1.538c2.178,0,3.916,0.568,5.215,1.703
							c1.297,1.136,2.027,2.631,2.189,4.484l-4.744,0.504c-0.117-1.031-0.433-1.791-0.947-2.277c-0.516-0.486-1.19-0.73-2.025-0.73
							c-0.963,0-1.858,0.359-2.692,1.078c-0.836,0.719-1.478,1.793-1.922,3.224c-0.445,1.432-0.668,2.772-0.668,4.024
							c0,1.089,0.266,1.929,0.799,2.52c0.533,0.591,1.199,0.887,1.998,0.887c0.801,0,1.57-0.29,2.313-0.869
							C215.222,55.738,215.802,54.869,216.22,53.71z"/>
						<path fill="#3B679C" d="M224.704,52.997c0-3.418,0.965-6.144,2.895-8.178c1.93-2.034,4.463-3.05,7.604-3.05
							c2.723,0,4.85,0.75,6.379,2.251c1.528,1.501,2.295,3.52,2.295,6.057c0,2.99-0.957,5.574-2.867,7.752
							c-1.912,2.179-4.475,3.268-7.684,3.268c-1.738,0-3.279-0.348-4.623-1.043c-1.345-0.695-2.347-1.68-3.009-2.955
							C225.034,55.825,224.704,54.457,224.704,52.997z M238.923,49.434c0-1.182-0.346-2.129-1.035-2.842
							c-0.688-0.713-1.578-1.069-2.668-1.069c-1.078,0-2.033,0.333-2.867,1c-0.834,0.666-1.483,1.634-1.947,2.902
							c-0.463,1.269-0.694,2.437-0.694,3.502c0,1.321,0.358,2.37,1.078,3.146c0.719,0.776,1.621,1.165,2.711,1.165
							c1.367,0,2.514-0.585,3.44-1.756C238.261,53.826,238.923,51.81,238.923,49.434z"/>
						<path fill="#3B679C" d="M249.856,42.204h4.728l-0.486,2.398c1.182-1.02,2.285-1.747,3.312-2.181
							c1.025-0.434,2.104-0.652,3.241-0.652c1.519,0,2.716,0.435,3.591,1.304c0.872,0.869,1.311,2.021,1.311,3.458
							c0,0.649-0.189,1.877-0.572,3.685l-2.174,10.446h-4.988l2.191-10.48c0.324-1.564,0.486-2.497,0.486-2.798
							c0-0.637-0.189-1.139-0.564-1.503c-0.377-0.365-0.902-0.548-1.574-0.548c-0.729,0-1.541,0.307-2.434,0.921
							c-0.891,0.614-1.592,1.425-2.103,2.433c-0.37,0.719-0.788,2.185-1.252,4.397l-1.582,7.578h-4.987L249.856,42.204z"/>
						<path fill="#3B679C" d="M285.052,60.662h-4.727l0.416-1.999c-0.902,0.869-1.793,1.492-2.668,1.869s-1.861,0.565-2.964,0.565
							c-1.911,0-3.461-0.652-4.647-1.956c-1.189-1.303-1.781-3.229-1.781-5.779c0-2.955,0.834-5.625,2.502-8.013
							c1.668-2.388,3.875-3.581,6.623-3.581c2.479,0,4.338,0.985,5.578,2.955l1.998-9.542h4.99L285.052,60.662z M273.528,53.153
							c0,1.321,0.334,2.353,1,3.094c0.666,0.741,1.486,1.112,2.459,1.112c0.904,0,1.748-0.31,2.529-0.93
							c0.783-0.62,1.408-1.567,1.877-2.842c0.469-1.274,0.705-2.497,0.705-3.667c0-1.333-0.358-2.41-1.078-3.233
							c-0.719-0.823-1.547-1.234-2.485-1.234c-1.459,0-2.658,0.812-3.599,2.434C273.999,49.51,273.528,51.265,273.528,53.153z"/>
						<path fill="#3B679C" d="M297.208,47.435l-4.867-0.417c0.557-1.645,1.527-2.931,2.912-3.858c1.385-0.927,3.219-1.391,5.5-1.391
							c2.377,0,4.131,0.478,5.268,1.434c1.136,0.956,1.703,2.124,1.703,3.502c0,0.556-0.049,1.147-0.147,1.773
							s-0.443,2.271-1.033,4.936c-0.486,2.202-0.73,3.743-0.73,4.624c0,0.788,0.14,1.663,0.418,2.625h-4.85
							c-0.197-0.672-0.318-1.367-0.365-2.086c-0.729,0.812-1.57,1.434-2.52,1.869c-0.951,0.435-1.906,0.652-2.869,0.652
							c-1.529,0-2.793-0.501-3.789-1.503c-0.996-1.002-1.494-2.292-1.494-3.867c0-1.761,0.547-3.169,1.643-4.224
							c1.097-1.054,3.052-1.692,5.865-1.912c2.375-0.197,3.963-0.435,4.765-0.712c0.207-0.695,0.313-1.251,0.313-1.668
							c0-0.533-0.215-0.979-0.643-1.338c-0.431-0.359-1.066-0.539-1.912-0.539c-0.894,0-1.599,0.183-2.113,0.548
							C297.743,46.245,297.394,46.763,297.208,47.435z M301.954,52.059c-0.304,0.081-0.703,0.156-1.201,0.226
							c-2.502,0.301-4.135,0.742-4.9,1.321c-0.545,0.417-0.815,0.979-0.815,1.686c0,0.58,0.207,1.069,0.625,1.469
							c0.418,0.399,0.967,0.6,1.649,0.6c0.754,0,1.463-0.183,2.131-0.548c0.666-0.365,1.164-0.834,1.494-1.408
							c0.33-0.573,0.623-1.469,0.877-2.686L301.954,52.059z"/>
						<path fill="#3B679C" d="M313.927,42.204h4.658l-0.748,3.581c1.738-2.677,3.621-4.015,5.649-4.015
							c0.718,0,1.488,0.18,2.312,0.539l-1.912,4.084c-0.451-0.162-0.932-0.244-1.441-0.244c-0.856,0-1.729,0.325-2.616,0.974
							c-0.886,0.649-1.578,1.515-2.076,2.598s-0.99,2.801-1.478,5.153l-1.217,5.788h-4.988L313.927,42.204z"/>
						<path fill="#3B679C" d="M327.567,42.204h4.974l1.25,9.194c0.313,2.364,0.487,4.021,0.521,4.971
							c0.648-1.889,1.541-3.882,2.678-5.979l4.414-8.187h5.283l-11.399,20.266c-0.939,1.68-1.679,2.856-2.218,3.528
							s-1.188,1.199-1.946,1.582c-0.759,0.382-1.672,0.574-2.736,0.574c-1.055,0-2.242-0.186-3.564-0.556l0.437-3.72
							c0.602,0.174,1.188,0.261,1.756,0.261c1.529,0,2.785-1.159,3.771-3.476L327.567,42.204z"/>
						<path fill="#3B679C" d="M248.437,94.729l6.898,2.086c-0.463,1.935-1.193,3.552-2.189,4.849
							c-0.996,1.298-2.231,2.277-3.711,2.938c-1.477,0.661-3.356,0.991-5.639,0.991c-2.771,0-5.033-0.402-6.789-1.207
							c-1.754-0.805-3.271-2.221-4.545-4.247c-1.273-2.027-1.912-4.621-1.912-7.782c0-4.215,1.121-7.454,3.363-9.718
							c2.241-2.264,5.414-3.396,9.518-3.396c3.209,0,5.732,0.649,7.568,1.947s3.201,3.291,4.094,5.979l-6.953,1.547
							c-0.242-0.776-0.498-1.344-0.764-1.703c-0.441-0.603-0.98-1.066-1.617-1.391c-0.637-0.324-1.35-0.487-2.137-0.487
							c-1.785,0-3.152,0.718-4.104,2.153c-0.719,1.065-1.076,2.737-1.076,5.017c0,2.824,0.429,4.76,1.285,5.807
							c0.857,1.047,2.063,1.571,3.615,1.571c1.506,0,2.645-0.423,3.416-1.269C247.528,97.568,248.089,96.339,248.437,94.729z"/>
						<path fill="#3B679C" d="M259.765,79.677h7.892v25.481h-7.892V79.677z"/>
						<path fill="#3B679C" d="M271.628,79.677h23.934v6.292h-8.028v19.189h-7.875V85.969h-8.029L271.628,79.677L271.628,79.677z"/>
						<path fill="#3B679C" d="M299.534,79.677h7.891v25.481h-7.891V79.677z"/>
						<path fill="#3B679C" d="M313.487,79.677h21.101v5.44h-13.209v4.05h12.254v5.197h-12.254v5.023h13.592v5.771h-21.482
							L313.487,79.677L313.487,79.677z"/>
						<path fill="#3B679C" d="M338.372,96.728l7.489-0.469c0.162,1.217,0.492,2.144,0.99,2.781c0.813,1.032,1.972,1.547,3.478,1.547
							c1.123,0,1.989-0.263,2.6-0.791c0.607-0.527,0.912-1.139,0.912-1.834c0-0.66-0.291-1.251-0.869-1.773
							c-0.58-0.521-1.924-1.014-4.033-1.477c-3.453-0.776-5.916-1.808-7.387-3.094c-1.482-1.286-2.225-2.926-2.225-4.919
							c0-1.309,0.379-2.546,1.139-3.711c0.758-1.165,1.9-2.08,3.424-2.746s3.611-1,6.267-1c3.256,0,5.737,0.606,7.446,1.816
							c1.709,1.211,2.728,3.137,3.051,5.779l-7.422,0.435c-0.196-1.147-0.61-1.981-1.241-2.503
							c-0.632-0.522-1.505-0.782-2.615-0.782c-0.916,0-1.605,0.194-2.068,0.582c-0.465,0.389-0.695,0.86-0.695,1.417
							c0,0.405,0.191,0.771,0.572,1.095c0.371,0.336,1.252,0.649,2.644,0.938c3.44,0.742,5.905,1.492,7.396,2.251
							c1.488,0.759,2.572,1.701,3.25,2.824c0.678,1.124,1.016,2.381,1.016,3.772c0,1.634-0.45,3.14-1.354,4.519
							c-0.904,1.379-2.166,2.424-3.789,3.137c-1.621,0.712-3.668,1.069-6.135,1.069c-4.334,0-7.336-0.834-9.004-2.504
							C339.538,101.419,338.591,99.3,338.372,96.728z"/>
					</g>
					<g>
						<path fill="#3B679C" stroke="#FFFFFF" stroke-width="1.6" stroke-miterlimit="10" d="M77.608,45.433
							c2.333-1.862,4.798-3.606,7.61-4.275c2.588-0.615,5.101-1.074,7.666,0.338c1.95,1.072,2.1,3.253,3.036,4.237
							c1.623,1.703,6.372,1.041,7.022-2.612c0.609-3.4-1.937-6.178-4.769-7.813c-2.113-1.222-5.497-1.725-9.777-1.725
							c-3.165,0-6.233,0.837-9.207,2c-2.979,1.159-5.68,2.855-8.104,5.078c-2.426,2.228-4.441,4.902-6.045,8.037
							c-1.601,3.128-2.711,6.674-3.325,10.633c-0.38,2.438-0.52,4.74-0.412,6.909c0.107,2.172,0.456,4.21,1.05,6.122
							c0.586,1.912,1.394,3.641,2.409,5.182c1.145,1.699,2.476,3.071,3.991,4.109c1.514,1.04,3.266,1.806,5.248,2.3
							c1.981,0.49,4.229,0.737,6.74,0.737c3.313,0,6.305-0.55,8.968-1.646c2.659-1.091,6.928-3.444,9.609-6.481
							c2.328-2.632,3.371-4.3,3.558-6.557c0.188-2.256-2.028-4.063-4.247-3.931c-1.467,0.09-2.427,1.949-3.013,3.024
							c-0.707,1.3-1.274,2.653-2.287,3.775c-1.178,1.306-2.775,2.234-4.353,3.034c-1.636,0.834-3.38,1.459-5.156,1.95
							c-6.035,1.665-12.941-2.185-14.521-11.122c-0.047-0.269-0.089-0.541-0.123-0.818c-0.632-4.944,0.464-10.525,3.493-15.148
							C74.013,48.727,75.708,46.945,77.608,45.433z"/>
						<path fill="#3B679C" d="M194.477,93.849v-5.932h-10.969V74.325h-22.753v6.753h-6.841v-14.06h-12.082v-3.237l-15.966-11.393
							l-15.964,11.393v11.131l-3.466-2.872L92.45,83.628v15.143l1.601-0.266V84.381l12.387-10.263l3.757,3.109l0,0l8.628,7.153
							v2.221h-11.118v9.503l1.601-0.4v-7.503h23.514v20.703h1.602V86.602h-7.694v-10.12h21.616v4.597h-5.379v25.562l1.601,0.534
							V82.678h16.193v23.027h1.601v-29.78h19.554v11.992h-8.315v21.256h1.6V89.517h17.686v9.116h-8.523v12.941h1.601v-11.342h12.895
							l-0.013,12.008h1.611V98.633h-5.971v-3.185h11.873v16.125h1.601V93.849H194.477z M125.124,74.881v11.721h-4.702v-2.974
							l-8.918-7.391V64.603l14.362-10.246l14.361,10.246v2.416h-2.753v7.862H125.124z M139.075,74.881v-6.263h13.238v12.46h-2.375
							v-6.197H139.075z"/>
						
							<path fill="#3B679C" stroke="#FFFFFF" stroke-width="1.6" stroke-linecap="round" stroke-linejoin="round" stroke-miterlimit="10" d="
							M61.239,102.18c2.492-0.397,5.525-0.903,8.267-1.369c2.742-0.466,5.194-0.891,6.524-1.122c2.229-0.512,4.528-1.04,6.632-1.534
							c2.104-0.493,4.015-0.95,5.469-1.315c2.25-0.565,8.28-2.146,14.159-3.291c5.88-1.141,11.608-1.84,13.26-0.637
							c1.646,1.203,2.219,2.196,1.55,3.762c-0.669,1.563-2.581,3.697-5.906,7.176c-3.322,3.476-2.464,4.519-0.577,4.668
							c1.886,0.153,4.799-0.59,5.585-0.687c0.784-0.101,3.895-0.771,7.445-1.467c3.55-0.693,7.542-1.412,10.095-1.603
							c3.263-0.241,6.541-0.378,9.816-0.359c3.276,0.021,6.552,0.2,9.812,0.595c4.237,0.512,10.782,1.752,17.349,3.002
							c6.567,1.252,13.153,2.516,17.474,3.078c4.318,0.563,7.981,0.471,10.88,0.037c2.899-0.435,9.678-1.21,10.942-2.007
							c1.271-0.8,0.926-1.483,0.266-1.971c-0.658-0.484-1.314-0.772-1.314-0.772v-4.729c0,0,1.828,0.435,3.994,1.448
							c2.165,1.013,4.347,2.604,4.409,4.91c0.063,2.305-1.517,4.457-4.315,6.143c-2.799,1.685-10.244,2.938-16.285,3.314
							c-7.019,0.164-11.444-0.615-18.813-2.203c-7.367-1.584-15.481-3.725-23.291-5.519c-7.813-1.796-16.336-1.362-23.414-0.294
							c-7.076,1.068-12.709,2.771-14.742,3.514c-1.865,0.684-4.398,1.486-7.133,1.84c-2.734,0.351-5.669,0.248-8.336-0.885
							c-0.235-0.1-0.473-0.193-0.704-0.297c-0.233-0.104-0.465-0.216-0.689-0.35c-2.783-1.65-1.771-3.836,0.209-6.074
							c1.98-2.241,4.93-4.538,6.021-6.41c1.092-1.875,1.09-3.025,0.194-3.51c-0.895-0.481-2.682-0.3-5.157,0.494
							c-0.461,0.146-0.942,0.294-1.439,0.443c-0.495,0.15-1.004,0.297-1.52,0.447c-0.033,0.009-4.371,1.513-10.027,3.5
							c-5.654,1.987-12.629,4.46-17.937,6.412c-1.064,0.351-2.063,0.632-2.971,0.888s-1.723,0.484-2.423,0.729
							c-4.189,1.466-10.065,3.699-15.625,5.072c-5.562,1.371-10.805,1.885-13.729-0.088c-2.442-1.65-3.64-3.543-3.829-5.547
							c-0.189-2,0.628-4.109,2.217-6.178c2.878-3.751,6.805-6.738,10.928-9.561c4.124-2.818,8.444-5.475,12.109-8.555
							c2.647-2.228,5.2-4.625,7.583-7.146c2.383-2.519,4.597-5.162,6.572-7.885c2.817-3.878,5.914-9.797,6.216-14.844
							c0.3-5.045-2.199-9.217-10.57-9.602c-2.861-0.131-5.641,1.063-8.141,2.729c-2.502,1.669-4.725,3.81-6.47,5.573
							c-0.943,0.95-1.676,2.128-2.449,3.247c-0.775,1.122-1.594,2.185-2.706,2.912c-1.097,0.713-2.725,1.351-4.222,1.45
							c-1.497,0.101-2.86-0.334-3.427-1.759c-0.942-2.375,0.367-5.781,2.344-8.983c1.978-3.196,4.622-6.188,6.354-7.737
							c3.469-3.1,7.939-6.119,12.79-7.896c4.852-1.775,10.082-2.316,15.068-0.46c4.868,1.81,8.651,5.094,11.034,9.072
							c2.383,3.978,3.365,8.649,2.639,13.232c-0.736,4.628-2.914,9.057-5.756,13.175c-2.841,4.122-6.346,7.935-9.731,11.332
							c-3.816,3.824-10.549,9.313-15.896,13.848c-5.345,4.531-9.305,8.11-7.57,8.11c1.733,0,3.925-0.303,5.949-0.643
							C58.302,102.708,60.163,102.33,61.239,102.18z"/>
						<path fill="#3B679C" stroke="#FFFFFF" stroke-width="1.6" stroke-miterlimit="10" d="M65.622,47.62
							c-0.198,0.354-0.395,0.713-0.581,1.078c-1.601,3.128-2.711,6.674-3.325,10.633c-0.38,2.438-0.52,4.74-0.412,6.909
							c0.107,2.172,0.456,4.21,1.05,6.122c0.586,1.912,1.394,3.641,2.409,5.182c1.145,1.699,2.476,3.071,3.991,4.109
							c1.514,1.04,3.266,1.806,5.248,2.3c1.981,0.49,4.229,0.737,6.74,0.737c3.313,0,6.305-0.55,8.968-1.646
							c2.659-1.091,6.928-3.444,9.609-6.481c2.328-2.632,3.371-4.3,3.558-6.557c0.188-2.256-2.028-4.063-4.247-3.931
							c-1.467,0.09-2.427,1.949-3.013,3.024c-0.707,1.3-1.274,2.653-2.287,3.775c-1.178,1.306-2.775,2.234-4.353,3.034
							c-1.636,0.834-3.38,1.459-5.156,1.95c-6.035,1.665-12.941-2.185-14.521-11.122c-0.047-0.269-0.089-0.541-0.123-0.818
							c-0.632-4.944,0.464-10.525,3.493-15.148"/>
					</g>
				</g>
			</g>
			<rect x="0" fill="none" width="395.736" height="202.667"/>
			<g>
				<path fill="#3B679C" d="M84.983,40.394c0.018-0.004,0.034-0.011,0.052-0.015c1.306-0.311,2.701-0.614,4.139-0.614
					c1.5,0,2.84,0.337,4.098,1.029c1.468,0.807,2.063,2.11,2.539,3.157c0.228,0.497,0.44,0.967,0.691,1.23
					c1.119,1.172,5.125,0.775,5.656-2.202c0.671-3.742-3.185-6.288-4.382-6.979c-1.856-1.073-5.012-1.618-9.377-1.618
					c-2.57,0-5.276,0.572-8.47,1.779C81.821,37.328,83.53,38.75,84.983,40.394z M92.45,94.929c0.512-0.126,1.045-0.255,1.601-0.389
					V84.381l12.387-10.263l3.757,3.109l8.628,7.153v2.221h-11.118v5.238c0.56-0.073,1.095-0.136,1.601-0.187V88.2h23.514v15.84
					c0.307-0.033,0.595-0.059,0.862-0.078c0.251-0.02,0.49-0.031,0.738-0.049V86.602h-7.694v-10.12h21.616v4.597h-5.379v22.522
					c0.001,0,0.002,0,0.003,0l0.597,0.002c0.34,0.002,0.666,0.014,1,0.02V82.678h16.193v22.66c0.527,0.093,1.061,0.188,1.601,0.285
					V75.925h19.554v11.992h-8.315v19.815c0.535,0.102,1.067,0.202,1.6,0.303V89.517h17.686v9.116h-8.523v11.055
					c0.556,0.091,1.083,0.175,1.601,0.255v-9.71h12.895l-0.011,10.103c0.037-0.004,0.078-0.006,0.114-0.012
					c0.421-0.063,0.939-0.136,1.495-0.212V98.633h-5.971v-3.185h11.873v13.788c0.581-0.102,1.123-0.205,1.601-0.308v-15.08h-13.474
					v-5.932H183.51V74.325h-22.753v6.753h-6.841v-14.06h-12.082v-3.237l-15.966-11.393l-15.964,11.393v11.131l-3.466-2.872
					L92.45,83.628V94.929z M152.314,68.618v12.46h-2.375v-6.197h-10.863v-6.263H152.314z M111.504,64.603l14.362-10.246
					l14.361,10.246v2.416h-2.753v7.862h-12.352v11.721h-4.702v-2.974l-8.918-7.391L111.504,64.603L111.504,64.603z M212.617,103.808
					c-1.115-0.521-2.145-0.885-2.855-1.109v3.172c0.272,0.147,0.63,0.358,0.989,0.623c0.785,0.578,0.932,1.182,0.916,1.586
					c-0.022,0.633-0.438,1.207-1.229,1.705c-0.442,0.279-1.312,0.533-2.488,0.778c-0.483,0.101-1.019,0.2-1.601,0.299
					c-1.448,0.246-3.176,0.491-5.08,0.751c-0.291,0.04-0.557,0.077-0.823,0.114c-0.463,0.063-0.897,0.125-1.259,0.179
					c-0.112,0.018-0.237,0.022-0.352,0.038c-3.22,0.442-6.904,0.427-10.75-0.073c-0.655-0.084-1.379-0.191-2.133-0.307
					c-0.518-0.079-1.044-0.162-1.601-0.253c-3.875-0.636-8.629-1.541-13.271-2.427l-0.517-0.098
					c-6.093-1.16-12.999-2.476-17.295-2.994c-2.782-0.336-5.647-0.519-8.709-0.569c-0.338-0.007-0.667-0.017-1.01-0.021h-0.587
					c-0.001,0-0.002,0-0.003,0c-2.713,0-5.521,0.106-8.543,0.317c-0.208,0.015-0.409,0.024-0.62,0.041
					c-0.306,0.022-0.638,0.056-0.981,0.093c-2.681,0.29-6.357,0.979-9.019,1.497c-1.426,0.279-2.782,0.554-3.943,0.79
					c-1.774,0.359-3.057,0.621-3.556,0.684c-0.188,0.023-0.494,0.084-0.879,0.16c-1.295,0.254-3.362,0.656-4.872,0.531
					c-1.226-0.098-1.995-0.533-2.286-1.299c-0.426-1.117,0.299-2.573,2.351-4.719c3.339-3.492,5.145-5.524,5.749-6.938
					c0.419-0.98,0.333-1.617-1.286-2.801c-0.242-0.177-0.933-0.474-2.815-0.474c-0.838,0-1.826,0.059-2.958,0.176
					c-0.502,0.052-1.042,0.12-1.601,0.194c-1.547,0.208-3.297,0.498-5.263,0.879c-2.937,0.572-5.876,1.246-8.391,1.853
					c-0.559,0.135-1.091,0.265-1.602,0.391c-1.219,0.301-2.305,0.576-3.15,0.791l-0.976,0.247c-1.458,0.366-3.372,0.824-5.48,1.318
					c-2.104,0.495-4.404,1.023-6.635,1.535c-1.374,0.24-3.827,0.665-6.57,1.131c-2.743,0.466-5.779,0.974-8.273,1.371
					c-0.604,0.084-1.431,0.235-2.39,0.411c-0.786,0.144-1.659,0.304-2.565,0.455c-2.66,0.445-4.594,0.652-6.083,0.652
					c-0.804,0-1.07-0.49-1.147-0.699c-0.363-0.99,0.303-2.125,8.202-8.82c1.129-0.957,2.318-1.957,3.531-2.975
					c3.421-2.874,6.928-5.819,9.729-8.373c-0.376-0.172-0.749-0.349-1.104-0.545c-0.429-0.237-0.842-0.492-1.236-0.764
					c-1.327-0.909-2.522-2.085-3.58-3.478c-2.34,2.468-4.876,4.856-7.542,7.099c-2.77,2.327-5.944,4.439-9.015,6.483
					c-1.057,0.703-2.113,1.406-3.158,2.12c-3.874,2.652-7.858,5.625-10.744,9.386c-1.528,1.99-2.22,3.88-2.055,5.615
					c0.176,1.85,1.347,3.519,3.479,4.961c1.146,0.772,2.824,1.164,4.985,1.164c2.202,0,4.853-0.39,8.104-1.191
					c4.504-1.111,9.268-2.813,13.095-4.178c0.867-0.311,1.69-0.604,2.458-0.873c0.703-0.244,4.369-1.278,5.407-1.621
					c4.281-1.575,10.319-3.733,17.92-6.406c4.76-1.672,9.985-3.491,10.088-3.519l0.285-0.083c0.409-0.119,0.813-0.236,1.207-0.356
					c0.495-0.148,0.974-0.295,1.431-0.44c2.763-0.885,4.664-1.036,5.779-0.437c0.498,0.27,0.838,0.689,0.986,1.215
					c0.243,0.867-0.041,1.98-0.869,3.402c-0.721,1.238-2.098,2.558-3.556,3.957c-0.886,0.851-1.802,1.729-2.556,2.582
					c-1.271,1.438-1.827,2.531-1.7,3.339c0.087,0.553,0.512,1.049,1.301,1.517c0.197,0.117,0.398,0.217,0.603,0.305
					c0.147,0.065,0.292,0.125,0.438,0.187l0.256,0.106c2.208,0.938,4.883,1.217,7.922,0.828c2.139-0.275,4.415-0.865,6.959-1.797
					c2.271-0.828,7.961-2.505,14.898-3.554c0.567-0.086,1.127-0.151,1.689-0.226c0.535-0.07,1.071-0.146,1.602-0.205
					c2.952-0.334,5.816-0.506,8.551-0.506c4.292,0,8.286,0.416,11.872,1.242c3.294,0.756,6.684,1.584,9.962,2.385
					c4.456,1.09,9.063,2.215,13.317,3.131c6.958,1.5,11.459,2.357,18.626,2.186c5.848-0.365,13.203-1.584,15.892-3.201
					c2.586-1.556,3.979-3.486,3.928-5.436C216.512,106.039,214.389,104.636,212.617,103.808z M42.076,60.97
					c0.114,0,0.231-0.004,0.349-0.012c1.222-0.081,2.728-0.6,3.838-1.322c0.94-0.614,1.673-1.521,2.484-2.696l0.42-0.616
					c0.638-0.94,1.297-1.912,2.121-2.741c1.838-1.857,4.06-3.985,6.592-5.675c2.961-1.974,5.766-2.924,8.424-2.861
					c0.065,0.001,0.132-0.004,0.197-0.001c0.252,0.012,0.486,0.038,0.73,0.057c0.31,0.023,0.621,0.044,0.917,0.079
					c2.581,0.299,4.66,1.022,6.23,2.146c0.22,0.157,0.438,0.316,0.638,0.489c0.204,0.177,0.394,0.365,0.575,0.559
					c0.041,0.044,0.09,0.082,0.13,0.126c1.572,1.747,2.283,4.1,2.111,6.993c-0.313,5.224-3.493,11.312-6.366,15.267
					c-0.015,0.021-0.032,0.042-0.047,0.063c-0.001,0.002-0.003,0.004-0.005,0.007c0.04,0.083,0.085,0.16,0.125,0.242
					c0.133,0.267,0.273,0.524,0.421,0.777c0.081,0.139,0.161,0.279,0.245,0.412c0.128,0.205,0.267,0.398,0.404,0.593
					c0.259,0.363,0.533,0.707,0.822,1.032c0.287,0.324,0.585,0.625,0.896,0.901c0.019,0.017,0.038,0.036,0.057,0.053
					c0.244,0.214,0.494,0.416,0.748,0.603c0.006,0.004,0.012,0.009,0.018,0.013c0.199,0.146,0.394,0.302,0.602,0.434
					c0.541,0.341,1.104,0.619,1.679,0.849c0.004-0.004,0.008-0.009,0.012-0.013c1.824-2.03,3.736-4.334,5.422-6.779
					c3.131-4.539,4.97-8.741,5.623-12.846c0.686-4.316-0.215-8.825-2.533-12.696c-0.458-0.765-0.982-1.485-1.539-2.182
					c-0.174-0.218-0.34-0.443-0.524-0.654c-0.188-0.217-0.395-0.419-0.592-0.628c-1.5-1.583-3.255-2.934-5.205-3.995
					c-0.299-0.163-0.599-0.324-0.907-0.472c-0.305-0.147-0.618-0.279-0.931-0.413c-0.309-0.132-0.613-0.272-0.929-0.39
					c-4.333-1.612-9.291-1.45-14.517,0.461c-4.229,1.55-8.679,4.299-12.532,7.742c-1.705,1.526-4.286,4.457-6.206,7.562
					c-2.184,3.536-2.993,6.473-2.28,8.268C39.92,60.016,40.298,60.97,42.076,60.97z M65.753,49.063L65.753,49.063
					c-1.558,3.044-2.65,6.541-3.247,10.391c-0.371,2.379-0.506,4.649-0.404,6.748c0.104,2.096,0.445,4.089,1.016,5.924
					c0.456,1.489,1.064,2.87,1.801,4.134c0.141,0.241,0.282,0.481,0.433,0.713c0.027,0.042,0.052,0.089,0.08,0.131
					c0.126,0.187,0.263,0.356,0.395,0.535c0.991,1.355,2.123,2.493,3.381,3.355c0.821,0.564,1.736,1.038,2.719,1.436
					c0.271,0.11,0.542,0.221,0.825,0.318c0.284,0.098,0.582,0.179,0.876,0.263c0.19,0.054,0.374,0.118,0.568,0.167
					c1.915,0.474,4.118,0.714,6.548,0.714c3.191,0,6.106-0.534,8.662-1.586c2.732-1.121,6.812-3.436,9.315-6.271
					c2.385-2.696,3.202-4.177,3.359-6.092c0.015-0.179,0.008-0.356-0.018-0.532c-0.011-0.075-0.038-0.147-0.056-0.222
					c-0.024-0.1-0.042-0.2-0.079-0.296c-0.029-0.078-0.074-0.152-0.111-0.228c-0.043-0.089-0.082-0.18-0.137-0.266
					c-0.045-0.072-0.104-0.138-0.157-0.207c-0.063-0.082-0.123-0.166-0.195-0.243c-0.014-0.013-0.021-0.028-0.034-0.042
					c-0.083-0.085-0.186-0.151-0.277-0.228c-0.087-0.072-0.167-0.152-0.262-0.215c-0.096-0.064-0.202-0.11-0.303-0.164
					c-0.117-0.063-0.23-0.134-0.354-0.184c-0.12-0.048-0.246-0.073-0.371-0.107c-0.109-0.03-0.217-0.073-0.329-0.092
					c-0.239-0.041-0.481-0.056-0.722-0.041c-0.973,0.06-1.801,1.583-2.295,2.495l-0.063,0.114c-0.158,0.291-0.31,0.586-0.461,0.88
					c-0.532,1.035-1.083,2.106-1.935,3.049c-1.296,1.438-3.044,2.431-4.583,3.211c-1.56,0.795-3.295,1.452-5.305,2.008
					c-0.456,0.125-0.915,0.213-1.374,0.282c-0.117,0.017-0.234,0.026-0.352,0.04c-0.366,0.042-0.729,0.068-1.096,0.074
					c-0.13,0.002-0.261,0.005-0.392,0.002c-0.21-0.003-0.419-0.013-0.629-0.028c-0.11-0.009-0.222-0.021-0.333-0.033
					c-0.656-0.069-1.308-0.191-1.946-0.376c-0.283-0.082-0.566-0.164-0.846-0.269c-0.263-0.099-0.519-0.219-0.775-0.337
					c-0.475-0.218-0.942-0.458-1.396-0.743c-0.152-0.097-0.292-0.214-0.44-0.317c-0.119-0.083-0.236-0.167-0.354-0.254
					c-0.21-0.158-0.417-0.317-0.617-0.488c-0.165-0.14-0.322-0.292-0.482-0.443c-0.148-0.14-0.301-0.272-0.443-0.42
					c-0.303-0.313-0.593-0.651-0.873-1.006c-0.062-0.08-0.119-0.165-0.18-0.246c-0.231-0.307-0.453-0.627-0.666-0.963
					c-0.055-0.087-0.107-0.176-0.16-0.264c-0.116-0.194-0.22-0.401-0.329-0.603c-0.085-0.157-0.177-0.308-0.257-0.469
					c-0.043-0.087-0.087-0.173-0.129-0.262c-0.009-0.018-0.016-0.038-0.024-0.056c-0.129-0.276-0.245-0.563-0.36-0.851
					c-0.038-0.093-0.081-0.181-0.117-0.276c-0.035-0.09-0.072-0.177-0.105-0.268c-0.147-0.409-0.28-0.835-0.403-1.274
					c-0.027-0.094-0.06-0.185-0.084-0.28c-0.139-0.522-0.262-1.063-0.36-1.627c-0.05-0.283-0.094-0.569-0.129-0.86
					c-0.686-5.361,0.612-11.029,3.553-15.574c0.023-0.036,0.042-0.075,0.065-0.11c0.402-0.615,0.854-1.209,1.329-1.792
					c-1.5-1.029-3.583-1.646-6.22-1.845c-0.258,0.408-0.792,1.316-0.792,1.316C66.125,48.357,65.935,48.707,65.753,49.063
					C65.754,49.061,65.753,49.063,65.753,49.063z"/>
				<g>
					<path fill="#3B679C" d="M26.948,132.148c0-1.52,0.227-2.791,0.681-3.818c0.338-0.76,0.801-1.44,1.386-2.043
						c0.586-0.602,1.229-1.047,1.925-1.342c0.929-0.391,1.997-0.588,3.209-0.588c2.194,0,3.949,0.682,5.267,2.041
						c1.316,1.361,1.977,3.253,1.977,5.678c0,2.403-0.654,4.284-1.961,5.641c-1.307,1.359-3.054,2.039-5.24,2.039
						c-2.214,0-3.975-0.676-5.28-2.025C27.602,136.376,26.948,134.517,26.948,132.148z M30.046,132.044
						c0,1.688,0.389,2.967,1.168,3.836c0.778,0.867,1.767,1.306,2.966,1.306c1.198,0,2.182-0.431,2.949-1.297
						c0.77-0.862,1.153-2.156,1.153-3.884c0-1.707-0.374-2.979-1.122-3.819s-1.742-1.259-2.98-1.259
						c-1.239,0-2.238,0.425-2.996,1.273C30.425,129.052,30.046,130.333,30.046,132.044z"/>
					<path fill="#3B679C" d="M45.051,139.501V124.61h10.207v2.521h-7.201v3.523h6.216v2.52h-6.216v6.328H45.051L45.051,139.501z"/>
					<path fill="#3B679C" d="M58.621,139.501V124.61h10.207v2.521h-7.201v3.523h6.216v2.52h-6.216v6.328H58.621L58.621,139.501z"/>
					<path fill="#3B679C" d="M72.132,139.501V124.61h3.006v14.892H72.132z"/>
					<path fill="#3B679C" d="M88.859,134.026l2.915,0.925c-0.445,1.625-1.188,2.832-2.229,3.619
						c-1.039,0.79-2.357,1.186-3.955,1.186c-1.979,0-3.604-0.676-4.875-2.025c-1.273-1.354-1.91-3.199-1.91-5.541
						c0-2.479,0.641-4.402,1.92-5.773c1.279-1.373,2.962-2.058,5.048-2.058c1.821,0,3.302,0.538,4.438,1.616
						c0.676,0.634,1.184,1.55,1.522,2.74l-2.977,0.713c-0.176-0.772-0.543-1.383-1.103-1.828c-0.559-0.447-1.237-0.672-2.035-0.672
						c-1.104,0-1.999,0.396-2.688,1.188c-0.688,0.793-1.031,2.074-1.031,3.85c0,1.882,0.34,3.223,1.017,4.021
						c0.677,0.801,1.558,1.2,2.641,1.2c0.799,0,1.486-0.256,2.063-0.763C88.195,135.914,88.609,135.117,88.859,134.026z"/>
					<path fill="#3B679C" d="M95.373,139.501V124.61h11.04v2.521h-8.034v3.3h7.476v2.509h-7.476v4.055h8.317v2.508H95.373
						L95.373,139.501z"/>
					<path fill="#3B679C" d="M116.912,132.148c0-1.52,0.227-2.791,0.681-3.818c0.338-0.76,0.801-1.44,1.386-2.043
						c0.586-0.602,1.229-1.047,1.925-1.342c0.929-0.391,1.997-0.588,3.21-0.588c2.193,0,3.949,0.682,5.267,2.041
						c1.315,1.361,1.976,3.253,1.976,5.678c0,2.403-0.653,4.284-1.96,5.641c-1.308,1.359-3.055,2.039-5.241,2.039
						c-2.214,0-3.975-0.676-5.28-2.025C117.565,136.376,116.912,134.517,116.912,132.148z M120.01,132.044
						c0,1.688,0.389,2.967,1.168,3.836c0.778,0.867,1.768,1.306,2.966,1.306s2.183-0.431,2.95-1.297
						c0.769-0.862,1.152-2.156,1.152-3.884c0-1.707-0.374-2.979-1.122-3.819s-1.741-1.259-2.98-1.259s-2.238,0.425-2.996,1.273
						C120.389,129.052,120.01,130.333,120.01,132.044z"/>
					<path fill="#3B679C" d="M135.015,139.501V124.61h10.207v2.521h-7.201v3.523h6.216v2.52h-6.216v6.328H135.015L135.015,139.501z"
						/>
					<path fill="#3B679C" d="M159.325,139.501V127.13h-4.418v-2.521h11.831v2.521h-4.406v12.371H159.325L159.325,139.501z"/>
					<path fill="#3B679C" d="M169.825,139.501V124.61h3.007v5.858h5.891v-5.858h3.006v14.892h-3.006v-6.512h-5.891v6.512H169.825
						L169.825,139.501z"/>
					<path fill="#3B679C" d="M186.101,139.501V124.61h11.04v2.521h-8.034v3.3h7.477v2.509h-7.477v4.055h8.318v2.508H186.101
						L186.101,139.501z"/>
					<path fill="#3B679C" d="M215.175,134.026v-2.51h6.481v5.933c-0.633,0.608-1.545,1.145-2.738,1.608
						c-1.195,0.466-2.406,0.696-3.631,0.696c-1.559,0-2.916-0.328-4.072-0.98c-1.159-0.652-2.027-1.588-2.61-2.805
						c-0.583-1.215-0.874-2.536-0.874-3.965c0-1.551,0.325-2.928,0.977-4.135c0.648-1.203,1.6-2.127,2.853-2.771
						c0.957-0.494,2.146-0.741,3.566-0.741c1.848,0,3.292,0.389,4.331,1.163c1.04,0.774,1.708,1.847,2.006,3.215l-2.985,0.558
						c-0.211-0.731-0.604-1.308-1.184-1.731c-0.579-0.422-1.303-0.634-2.168-0.634c-1.314,0-2.358,0.414-3.135,1.25
						c-0.775,0.83-1.162,2.068-1.162,3.705c0,1.77,0.394,3.095,1.178,3.979c0.786,0.883,1.814,1.325,3.088,1.325
						c0.631,0,1.262-0.125,1.894-0.372c0.635-0.246,1.179-0.547,1.632-0.898v-1.889L215.175,134.026L215.175,134.026z"/>
					<path fill="#3B679C" d="M225.711,139.501V124.61h11.039v2.521h-8.033v3.3h7.475v2.509h-7.475v4.055h8.317v2.508H225.711
						L225.711,139.501z"/>
					<path fill="#3B679C" d="M239.948,132.148c0-1.52,0.227-2.791,0.68-3.818c0.339-0.76,0.802-1.44,1.388-2.043
						c0.584-0.602,1.228-1.047,1.925-1.342c0.928-0.391,1.997-0.588,3.209-0.588c2.194,0,3.948,0.682,5.267,2.041
						c1.314,1.361,1.976,3.253,1.976,5.678c0,2.403-0.653,4.284-1.96,5.641c-1.308,1.359-3.055,2.039-5.24,2.039
						c-2.216,0-3.976-0.676-5.28-2.025C240.602,136.376,239.948,134.517,239.948,132.148z M243.047,132.044
						c0,1.688,0.387,2.967,1.167,3.836c0.778,0.867,1.767,1.306,2.966,1.306c1.198,0,2.183-0.431,2.949-1.297
						c0.77-0.862,1.153-2.156,1.153-3.884c0-1.707-0.373-2.979-1.123-3.819c-0.747-0.841-1.741-1.259-2.979-1.259
						c-1.239,0-2.239,0.425-2.996,1.273C243.425,129.052,243.047,130.333,243.047,132.044z"/>
					<path fill="#3B679C" d="M264.86,134.026v-2.51h6.479v5.933c-0.629,0.608-1.542,1.145-2.737,1.608
						c-1.192,0.466-2.406,0.696-3.631,0.696c-1.557,0-2.914-0.328-4.072-0.98c-1.156-0.652-2.027-1.588-2.608-2.805
						c-0.583-1.215-0.875-2.536-0.875-3.965c0-1.551,0.325-2.928,0.976-4.135c0.649-1.203,1.603-2.127,2.854-2.771
						c0.954-0.494,2.142-0.741,3.563-0.741c1.852,0,3.294,0.389,4.332,1.163c1.04,0.774,1.709,1.847,2.006,3.215l-2.983,0.558
						c-0.211-0.731-0.606-1.308-1.186-1.731c-0.578-0.422-1.302-0.634-2.169-0.634c-1.313,0-2.354,0.414-3.133,1.25
						c-0.774,0.83-1.162,2.068-1.162,3.705c0,1.77,0.394,3.095,1.178,3.979c0.786,0.883,1.814,1.325,3.088,1.325
						c0.631,0,1.262-0.125,1.895-0.372c0.633-0.246,1.177-0.547,1.63-0.898v-1.889L264.86,134.026L264.86,134.026z"/>
					<path fill="#3B679C" d="M275.396,139.501V124.61h6.328c1.591,0,2.747,0.136,3.467,0.403c0.722,0.266,1.3,0.74,1.733,1.425
						c0.431,0.685,0.649,1.466,0.649,2.349c0,1.114-0.329,2.039-0.985,2.769c-0.658,0.726-1.64,1.185-2.945,1.375
						c0.649,0.378,1.188,0.794,1.609,1.25c0.423,0.452,0.993,1.259,1.712,2.415l1.817,2.906h-3.596l-2.174-3.24
						c-0.771-1.159-1.3-1.889-1.584-2.188c-0.285-0.304-0.586-0.511-0.905-0.623c-0.317-0.109-0.82-0.164-1.513-0.164h-0.609v6.215
						H275.396z M278.402,130.908h2.227c1.439,0,2.341-0.06,2.7-0.182c0.358-0.122,0.641-0.335,0.844-0.633
						c0.203-0.297,0.305-0.668,0.305-1.114c0-0.503-0.133-0.905-0.401-1.216c-0.268-0.307-0.645-0.504-1.132-0.584
						c-0.243-0.031-0.975-0.051-2.192-0.051h-2.349L278.402,130.908L278.402,130.908z"/>
					<path fill="#3B679C" d="M305.883,139.501h-3.271l-1.3-3.385h-5.952l-1.229,3.385h-3.188l5.8-14.892h3.18L305.883,139.501z
						 M300.347,133.61l-2.05-5.524l-2.013,5.524H300.347z"/>
					<path fill="#3B679C" d="M308.797,139.501V124.61h4.824c1.828,0,3.02,0.075,3.574,0.226c0.854,0.223,1.567,0.709,2.145,1.457
						c0.575,0.746,0.863,1.715,0.863,2.899c0,0.912-0.166,1.681-0.497,2.306c-0.333,0.623-0.753,1.112-1.267,1.467
						c-0.511,0.355-1.03,0.591-1.56,0.705c-0.717,0.145-1.756,0.213-3.117,0.213h-1.961v5.619H308.797L308.797,139.501z
						 M311.803,127.13v4.225h1.646c1.185,0,1.976-0.078,2.375-0.234c0.399-0.152,0.713-0.396,0.94-0.73
						c0.228-0.331,0.34-0.717,0.34-1.156c0-0.54-0.159-0.986-0.478-1.341c-0.319-0.353-0.722-0.571-1.21-0.659
						c-0.359-0.068-1.079-0.104-2.162-0.104H311.803L311.803,127.13z"/>
					<path fill="#3B679C" d="M323.556,139.501V124.61h3.007v5.858h5.892v-5.858h3.006v14.892h-3.006v-6.512h-5.892v6.512H323.556
						L323.556,139.501z"/>
					<path fill="#3B679C" d="M339.831,139.501V124.61h11.04v2.521h-8.034v3.3h7.476v2.509h-7.476v4.055h8.319v2.508H339.831
						L339.831,139.501z"/>
					<path fill="#3B679C" d="M354.951,139.501V124.61h6.325c1.592,0,2.747,0.136,3.47,0.403c0.723,0.266,1.299,0.74,1.73,1.425
						c0.436,0.685,0.65,1.466,0.65,2.349c0,1.114-0.328,2.039-0.984,2.769c-0.656,0.726-1.64,1.185-2.945,1.375
						c0.649,0.378,1.187,0.794,1.609,1.25c0.423,0.452,0.993,1.259,1.711,2.415l1.818,2.906h-3.596l-2.174-3.24
						c-0.771-1.159-1.3-1.889-1.584-2.188c-0.285-0.304-0.586-0.511-0.902-0.623c-0.319-0.109-0.823-0.164-1.516-0.164h-0.608v6.215
						H354.951z M357.957,130.908h2.224c1.444,0,2.344-0.06,2.703-0.182c0.358-0.122,0.64-0.335,0.843-0.633
						c0.203-0.297,0.306-0.668,0.306-1.114c0-0.503-0.136-0.905-0.402-1.216c-0.268-0.307-0.646-0.504-1.133-0.584
						c-0.243-0.031-0.976-0.051-2.193-0.051h-2.346L357.957,130.908L357.957,130.908z"/>
					<path fill="#3B679C" d="M30.669,157.912l3.375-0.328c0.203,1.131,0.615,1.965,1.235,2.496c0.621,0.53,1.459,0.797,2.515,0.797
						c1.117,0,1.959-0.237,2.524-0.709c0.566-0.473,0.851-1.025,0.851-1.66c0-0.405-0.119-0.75-0.357-1.037
						c-0.237-0.284-0.653-0.531-1.248-0.743c-0.405-0.142-1.332-0.392-2.776-0.75c-1.859-0.46-3.164-1.028-3.914-1.7
						c-1.056-0.943-1.582-2.097-1.582-3.456c0-0.875,0.248-1.694,0.744-2.452c0.495-0.764,1.211-1.345,2.145-1.742
						c0.934-0.398,2.062-0.6,3.381-0.6c2.156,0,3.779,0.475,4.869,1.419c1.09,0.946,1.662,2.206,1.717,3.784l-3.469,0.152
						c-0.148-0.881-0.467-1.516-0.955-1.902s-1.221-0.581-2.197-0.581c-1.008,0-1.797,0.206-2.366,0.622
						c-0.367,0.266-0.552,0.621-0.552,1.064c0,0.406,0.172,0.754,0.517,1.045c0.438,0.365,1.5,0.75,3.188,1.146
						c1.688,0.399,2.937,0.813,3.744,1.237s1.441,1.01,1.898,1.746c0.457,0.738,0.686,1.65,0.686,2.734
						c0,0.984-0.272,1.906-0.82,2.766c-0.547,0.861-1.319,1.5-2.319,1.92c-1,0.414-2.246,0.625-3.738,0.625
						c-2.172,0-3.84-0.5-5.004-1.508C31.591,161.294,30.896,159.833,30.669,157.912z"/>
					<path fill="#3B679C" d="M56.213,159.539l3.281,0.551c-0.423,1.203-1.089,2.121-1.998,2.75c-0.91,0.627-2.05,0.943-3.416,0.943
						c-2.164,0-3.767-0.709-4.806-2.121c-0.819-1.136-1.229-2.563-1.229-4.291c0-2.063,0.539-3.676,1.617-4.845
						s2.44-1.753,4.09-1.753c1.852,0,3.313,0.611,4.383,1.834s1.582,3.098,1.535,5.619h-8.25c0.022,0.979,0.289,1.736,0.797,2.281
						c0.508,0.539,1.141,0.813,1.898,0.813c0.516,0,0.948-0.141,1.301-0.422C55.768,160.617,56.033,160.164,56.213,159.539z
						 M56.4,156.21c-0.022-0.953-0.27-1.678-0.737-2.172c-0.47-0.496-1.039-0.746-1.711-0.746c-0.72,0-1.313,0.263-1.781,0.787
						c-0.469,0.521-0.699,1.233-0.691,2.131H56.4z"/>
					<path fill="#3B679C" d="M74.645,154.735l-3.246,0.585c-0.108-0.646-0.356-1.138-0.744-1.466
						c-0.387-0.328-0.889-0.489-1.506-0.489c-0.819,0-1.475,0.283-1.963,0.85c-0.487,0.566-0.731,1.513-0.731,2.841
						c0,1.478,0.248,2.519,0.744,3.128c0.495,0.609,1.161,0.916,1.997,0.916c0.625,0,1.138-0.18,1.535-0.535
						c0.398-0.354,0.681-0.965,0.845-1.834l3.233,0.553c-0.336,1.484-0.979,2.604-1.934,3.363c-0.953,0.756-2.23,1.137-3.832,1.137
						c-1.82,0-3.271-0.574-4.354-1.725c-1.082-1.146-1.623-2.737-1.623-4.77c0-2.054,0.543-3.652,1.629-4.797
						c1.087-1.146,2.556-1.719,4.406-1.719c1.517,0,2.721,0.328,3.615,0.979C73.611,152.404,74.254,153.398,74.645,154.735z"/>
					<path fill="#3B679C" d="M77.819,157.102c0-1.095,0.271-2.153,0.81-3.175c0.539-1.025,1.302-1.807,2.29-2.344
						c0.987-0.541,2.093-0.811,3.312-0.811c1.883,0,3.426,0.611,4.629,1.834s1.806,2.77,1.806,4.635
						c0,1.885-0.608,3.443-1.823,4.682c-1.215,1.24-2.743,1.859-4.587,1.859c-1.142,0-2.229-0.26-3.266-0.775
						c-1.035-0.514-1.82-1.271-2.359-2.266C78.089,159.746,77.819,158.533,77.819,157.102z M81.194,157.276
						c0,1.233,0.293,2.183,0.88,2.839c0.586,0.655,1.309,0.983,2.168,0.983c0.858,0,1.578-0.328,2.16-0.983
						c0.582-0.656,0.874-1.609,0.874-2.859c0-1.219-0.292-2.156-0.874-2.813s-1.302-0.983-2.16-0.983
						c-0.859,0-1.582,0.328-2.168,0.983C81.487,155.098,81.194,156.042,81.194,157.276z"/>
					<path fill="#3B679C" d="M105.958,163.501h-3.293v-6.354c0-1.344-0.07-2.213-0.211-2.605c-0.142-0.394-0.369-0.703-0.687-0.922
						c-0.316-0.22-0.697-0.328-1.143-0.328c-0.57,0-1.082,0.156-1.535,0.469s-0.764,0.729-0.932,1.244
						c-0.168,0.515-0.252,1.469-0.252,2.859v5.637h-3.294v-12.446h3.06v1.827c1.086-1.405,2.453-2.108,4.102-2.108
						c0.728,0,1.392,0.131,1.992,0.394c0.602,0.264,1.058,0.595,1.365,1c0.308,0.406,0.522,0.869,0.645,1.385
						c0.122,0.517,0.183,1.254,0.183,2.216V163.501z"/>
					<path fill="#3B679C" d="M122.108,163.501h-3.059v-1.828c-0.508,0.709-1.108,1.24-1.8,1.588
						c-0.692,0.347-1.389,0.521-2.091,0.521c-1.431,0-2.655-0.578-3.676-1.729c-1.02-1.153-1.527-2.764-1.527-4.825
						c0-2.108,0.496-3.713,1.487-4.81c0.992-1.098,2.246-1.646,3.763-1.646c1.391,0,2.594,0.578,3.608,1.734v-6.188h3.293
						L122.108,163.501L122.108,163.501z M113.319,157.007c0,1.328,0.185,2.291,0.552,2.885c0.53,0.859,1.272,1.288,2.227,1.288
						c0.758,0,1.402-0.322,1.934-0.966c0.532-0.645,0.798-1.609,0.798-2.891c0-1.429-0.259-2.457-0.773-3.089
						c-0.516-0.628-1.176-0.942-1.979-0.942c-0.781,0-1.438,0.313-1.965,0.935C113.582,154.845,113.319,155.773,113.319,157.007z"/>
					<path fill="#3B679C" d="M129.34,154.852l-2.988-0.538c0.336-1.203,0.914-2.094,1.734-2.672s2.039-0.868,3.656-0.868
						c1.469,0,2.563,0.175,3.28,0.521c0.719,0.347,1.225,0.791,1.518,1.326c0.293,0.533,0.439,1.516,0.439,2.946l-0.035,3.845
						c0,1.094,0.053,1.898,0.157,2.418c0.105,0.521,0.305,1.078,0.593,1.672h-3.258c-0.086-0.219-0.19-0.543-0.315-0.976
						c-0.056-0.192-0.095-0.321-0.117-0.385c-0.563,0.547-1.164,0.957-1.805,1.229c-0.642,0.274-1.324,0.412-2.052,0.412
						c-1.28,0-2.292-0.351-3.029-1.043c-0.738-0.697-1.106-1.576-1.106-2.639c0-0.703,0.168-1.328,0.504-1.883
						c0.336-0.549,0.807-0.971,1.411-1.266c0.605-0.289,1.479-0.547,2.62-0.766c1.539-0.29,2.604-0.559,3.199-0.809v-0.328
						c0-0.635-0.156-1.086-0.47-1.354c-0.313-0.269-0.901-0.405-1.77-0.405c-0.586,0-1.043,0.114-1.371,0.346
						C129.808,153.869,129.543,154.273,129.34,154.852z M133.746,157.523c-0.422,0.141-1.09,0.311-2.004,0.503
						c-0.914,0.197-1.513,0.388-1.793,0.575c-0.431,0.307-0.646,0.689-0.646,1.158c0,0.464,0.172,0.859,0.516,1.197
						c0.345,0.334,0.781,0.504,1.313,0.504c0.594,0,1.16-0.194,1.699-0.586c0.397-0.297,0.66-0.662,0.785-1.09
						c0.086-0.281,0.129-0.816,0.129-1.605V157.523L133.746,157.523z"/>
					<path fill="#3B679C" d="M144.856,163.501h-3.293v-12.446h3.06v1.769c0.522-0.834,0.994-1.385,1.412-1.65
						c0.418-0.264,0.893-0.398,1.424-0.398c0.75,0,1.473,0.206,2.168,0.622l-1.021,2.871c-0.555-0.358-1.069-0.54-1.547-0.54
						c-0.461,0-0.852,0.128-1.172,0.381s-0.572,0.713-0.756,1.378c-0.185,0.663-0.275,2.054-0.275,4.173V163.501L144.856,163.501z"
						/>
					<path fill="#3B679C" d="M151.837,151.055h3.504l2.977,8.837l2.906-8.837h3.41l-4.395,11.978l-0.785,2.166
						c-0.289,0.729-0.564,1.281-0.826,1.666c-0.262,0.381-0.563,0.693-0.902,0.932s-0.758,0.425-1.254,0.557
						c-0.496,0.134-1.057,0.199-1.682,0.199c-0.633,0-1.254-0.065-1.863-0.199l-0.293-2.578c0.516,0.104,0.979,0.152,1.395,0.152
						c0.767,0,1.332-0.225,1.699-0.676c0.367-0.449,0.648-1.021,0.844-1.715L151.837,151.055z"/>
					<path fill="#3B679C" d="M179.132,157.183l3.363,1.068c-0.517,1.875-1.374,3.266-2.573,4.179
						c-1.199,0.909-2.72,1.362-4.563,1.362c-2.28,0-4.155-0.778-5.625-2.338c-1.469-1.557-2.202-3.688-2.202-6.392
						c0-2.858,0.737-5.081,2.215-6.662c1.477-1.581,3.418-2.375,5.823-2.375c2.103,0,3.81,0.622,5.121,1.865
						c0.781,0.733,1.367,1.788,1.759,3.163l-3.435,0.82c-0.203-0.891-0.628-1.594-1.271-2.108c-0.645-0.515-1.428-0.774-2.35-0.774
						c-1.272,0-2.308,0.457-3.101,1.372c-0.793,0.912-1.188,2.394-1.188,4.44c0,2.172,0.392,3.719,1.172,4.641
						c0.781,0.922,1.798,1.385,3.048,1.385c0.922,0,1.715-0.293,2.379-0.881C178.366,159.365,178.843,158.442,179.132,157.183z"/>
					<path fill="#3B679C" d="M186.496,149.367v-3.047h3.293v3.047H186.496z M186.496,163.501v-12.446h3.293v12.446H186.496z"/>
					<path fill="#3B679C" d="M200.425,151.055v2.625h-2.25v5.016c0,1.017,0.021,1.609,0.063,1.774
						c0.044,0.169,0.142,0.307,0.294,0.416c0.151,0.109,0.339,0.166,0.558,0.166c0.305,0,0.746-0.106,1.323-0.316l0.28,2.555
						c-0.765,0.328-1.632,0.492-2.601,0.492c-0.594,0-1.129-0.1-1.605-0.3c-0.476-0.2-0.826-0.456-1.05-0.771
						c-0.223-0.319-0.376-0.748-0.462-1.284c-0.07-0.386-0.104-1.156-0.104-2.322v-5.425h-1.513v-2.625h1.513v-2.473l3.305-1.922
						v4.395L200.425,151.055L200.425,151.055z"/>
					<path fill="#3B679C" d="M204.318,149.367v-3.047h3.292v3.047H204.318z M204.318,163.501v-12.446h3.292v12.446H204.318z"/>
					<path fill="#3B679C" d="M219.717,159.539l3.281,0.551c-0.422,1.203-1.089,2.121-1.998,2.75
						c-0.91,0.627-2.049,0.943-3.416,0.943c-2.164,0-3.767-0.709-4.806-2.121c-0.819-1.136-1.229-2.563-1.229-4.291
						c0-2.063,0.537-3.676,1.615-4.845s2.441-1.753,4.091-1.753c1.852,0,3.313,0.611,4.383,1.834s1.583,3.098,1.536,5.619h-8.25
						c0.021,0.979,0.287,1.736,0.797,2.281c0.506,0.539,1.141,0.813,1.896,0.813c0.516,0,0.949-0.141,1.302-0.422
						C219.272,160.617,219.537,160.164,219.717,159.539z M219.904,156.21c-0.022-0.953-0.271-1.678-0.738-2.172
						c-0.47-0.496-1.037-0.746-1.709-0.746c-0.72,0-1.313,0.263-1.781,0.787c-0.469,0.521-0.7,1.233-0.692,2.131H219.904z"/>
					<path fill="#3B679C" d="M226.168,159.949l3.305-0.504c0.141,0.641,0.427,1.129,0.855,1.459c0.431,0.331,1.03,0.497,1.806,0.497
						c0.851,0,1.491-0.155,1.922-0.469c0.288-0.22,0.433-0.511,0.433-0.878c0-0.25-0.077-0.456-0.233-0.622
						c-0.164-0.156-0.531-0.3-1.103-0.433c-2.655-0.586-4.34-1.121-5.05-1.604c-0.983-0.672-1.478-1.606-1.478-2.802
						c0-1.077,0.426-1.983,1.276-2.719c0.852-0.734,2.173-1.103,3.961-1.103c1.703,0,2.97,0.278,3.798,0.831
						c0.827,0.557,1.397,1.375,1.711,2.463l-3.105,0.574c-0.132-0.484-0.385-0.855-0.757-1.115c-0.37-0.256-0.899-0.385-1.587-0.385
						c-0.866,0-1.488,0.119-1.863,0.363c-0.25,0.172-0.375,0.394-0.375,0.668c0,0.233,0.109,0.432,0.328,0.598
						c0.297,0.219,1.322,0.527,3.075,0.925c1.755,0.399,2.979,0.888,3.675,1.466c0.688,0.584,1.031,1.402,1.031,2.449
						c0,1.141-0.478,2.119-1.431,2.941c-0.952,0.818-2.362,1.23-4.229,1.23c-1.696,0-3.037-0.345-4.026-1.031
						C227.119,162.062,226.473,161.13,226.168,159.949z"/>
					<path fill="#3B679C" d="M242.051,163.501v-3.293h3.293v3.293H242.051z"/>
					<path fill="#3B679C" d="M249.149,159.949l3.306-0.504c0.141,0.641,0.427,1.129,0.854,1.459
						c0.433,0.331,1.031,0.497,1.808,0.497c0.85,0,1.489-0.155,1.922-0.469c0.287-0.22,0.433-0.511,0.433-0.878
						c0-0.25-0.078-0.456-0.234-0.622c-0.163-0.156-0.53-0.3-1.102-0.433c-2.656-0.586-4.341-1.121-5.05-1.604
						c-0.984-0.672-1.479-1.606-1.479-2.802c0-1.077,0.428-1.983,1.278-2.719c0.851-0.734,2.172-1.103,3.961-1.103
						c1.703,0,2.969,0.278,3.797,0.831c0.828,0.557,1.398,1.375,1.711,2.463l-3.105,0.574c-0.131-0.484-0.385-0.855-0.756-1.115
						c-0.37-0.256-0.9-0.385-1.589-0.385c-0.864,0-1.486,0.119-1.861,0.363c-0.25,0.172-0.375,0.394-0.375,0.668
						c0,0.233,0.108,0.432,0.328,0.598c0.297,0.219,1.321,0.527,3.074,0.925c1.756,0.399,2.979,0.888,3.676,1.466
						c0.688,0.584,1.03,1.402,1.03,2.449c0,1.141-0.477,2.119-1.43,2.941c-0.953,0.818-2.364,1.23-4.229,1.23
						c-1.697,0-3.037-0.345-4.026-1.031C250.1,162.062,249.454,161.13,249.149,159.949z"/>
					<path fill="#3B679C" d="M270.715,151.055v2.625h-2.25v5.016c0,1.017,0.021,1.609,0.066,1.774
						c0.042,0.169,0.141,0.307,0.292,0.416c0.15,0.109,0.339,0.166,0.558,0.166c0.303,0,0.745-0.106,1.323-0.316l0.28,2.555
						c-0.766,0.328-1.633,0.492-2.602,0.492c-0.594,0-1.128-0.1-1.606-0.3c-0.475-0.2-0.823-0.456-1.048-0.771
						c-0.224-0.319-0.377-0.748-0.463-1.284c-0.07-0.386-0.104-1.156-0.104-2.322v-5.425h-1.514v-2.625h1.514v-2.473l3.303-1.922
						v4.395L270.715,151.055L270.715,151.055z"/>
					<path fill="#3B679C" d="M277.079,154.852l-2.989-0.538c0.338-1.203,0.916-2.094,1.734-2.672
						c0.821-0.578,2.041-0.868,3.655-0.868c1.47,0,2.563,0.175,3.281,0.521c0.718,0.347,1.226,0.791,1.521,1.326
						c0.292,0.533,0.438,1.516,0.438,2.946l-0.036,3.845c0,1.094,0.054,1.898,0.16,2.418c0.104,0.521,0.303,1.078,0.59,1.672h-3.256
						c-0.088-0.219-0.192-0.543-0.317-0.976c-0.055-0.192-0.094-0.321-0.116-0.385c-0.563,0.547-1.164,0.957-1.806,1.229
						c-0.641,0.274-1.322,0.412-2.052,0.412c-1.281,0-2.29-0.351-3.027-1.043c-0.738-0.697-1.107-1.576-1.107-2.639
						c0-0.703,0.167-1.328,0.505-1.883c0.334-0.549,0.807-0.971,1.411-1.266c0.604-0.289,1.479-0.547,2.62-0.766
						c1.537-0.29,2.604-0.559,3.197-0.809v-0.328c0-0.635-0.155-1.086-0.469-1.354c-0.313-0.269-0.9-0.405-1.771-0.405
						c-0.584,0-1.042,0.114-1.37,0.346C277.547,153.869,277.282,154.273,277.079,154.852z M281.485,157.523
						c-0.422,0.141-1.089,0.311-2.005,0.503c-0.912,0.197-1.511,0.388-1.792,0.575c-0.43,0.307-0.646,0.689-0.646,1.158
						c0,0.464,0.172,0.859,0.516,1.197c0.344,0.334,0.781,0.504,1.313,0.504c0.594,0,1.161-0.194,1.699-0.586
						c0.398-0.297,0.659-0.662,0.784-1.09c0.088-0.281,0.13-0.816,0.13-1.605V157.523z"/>
					<path fill="#3B679C" d="M295.087,151.055v2.625h-2.25v5.016c0,1.017,0.021,1.609,0.063,1.774
						c0.044,0.169,0.142,0.307,0.294,0.416c0.153,0.109,0.339,0.166,0.558,0.166c0.306,0,0.746-0.106,1.324-0.316l0.28,2.555
						c-0.766,0.328-1.633,0.492-2.602,0.492c-0.594,0-1.129-0.1-1.604-0.3c-0.478-0.2-0.827-0.456-1.05-0.771
						c-0.222-0.319-0.377-0.748-0.463-1.284c-0.07-0.386-0.104-1.156-0.104-2.322v-5.425h-1.513v-2.625h1.513v-2.473l3.306-1.922
						v4.395L295.087,151.055L295.087,151.055z"/>
					<path fill="#3B679C" d="M306.125,159.539l3.281,0.551c-0.423,1.203-1.091,2.121-2,2.75c-0.91,0.627-2.048,0.943-3.416,0.943
						c-2.162,0-3.767-0.709-4.804-2.121c-0.821-1.136-1.23-2.563-1.23-4.291c0-2.063,0.539-3.676,1.617-4.845
						c1.077-1.169,2.441-1.753,4.089-1.753c1.854,0,3.313,0.611,4.385,1.834c1.068,1.223,1.581,3.098,1.534,5.619h-8.25
						c0.022,0.979,0.289,1.736,0.797,2.281c0.508,0.539,1.141,0.813,1.897,0.813c0.517,0,0.948-0.141,1.303-0.422
						C305.678,160.617,305.943,160.164,306.125,159.539z M306.313,156.21c-0.024-0.953-0.271-1.678-0.738-2.172
						c-0.47-0.496-1.039-0.746-1.712-0.746c-0.719,0-1.313,0.263-1.78,0.787c-0.47,0.521-0.7,1.233-0.69,2.131H306.313z"/>
					<path fill="#3B679C" d="M313.524,163.501v-3.293h3.294v3.293H313.524z"/>
					<path fill="#3B679C" d="M321.024,164.32l3.764,0.456c0.063,0.438,0.206,0.74,0.435,0.903c0.313,0.234,0.803,0.354,1.475,0.354
						c0.859,0,1.506-0.132,1.936-0.388c0.289-0.172,0.508-0.45,0.656-0.832c0.102-0.274,0.152-0.776,0.152-1.513v-1.815
						c-0.983,1.345-2.229,2.017-3.729,2.017c-1.672,0-2.995-0.709-3.972-2.121c-0.767-1.119-1.148-2.51-1.148-4.172
						c0-2.088,0.502-3.683,1.505-4.781c1.005-1.104,2.253-1.653,3.745-1.653c1.539,0,2.808,0.675,3.808,2.028v-1.747h3.083v11.169
						c0,1.469-0.119,2.564-0.363,3.293c-0.24,0.727-0.581,1.297-1.02,1.71c-0.438,0.415-1.021,0.737-1.753,0.972
						c-0.729,0.234-1.653,0.354-2.771,0.354c-2.109,0-3.604-0.363-4.489-1.085c-0.881-0.723-1.323-1.639-1.323-2.747
						C321.014,164.61,321.019,164.477,321.024,164.32z M323.967,157.021c0,1.318,0.255,2.287,0.768,2.898
						c0.513,0.613,1.145,0.92,1.895,0.92c0.803,0,1.484-0.313,2.037-0.94c0.557-0.632,0.833-1.563,0.833-2.797
						c0-1.288-0.267-2.247-0.797-2.872c-0.531-0.625-1.203-0.938-2.017-0.938c-0.789,0-1.438,0.31-1.951,0.922
						C324.222,154.826,323.967,155.761,323.967,157.021z"/>
					<path fill="#3B679C" d="M336.678,157.102c0-1.095,0.27-2.153,0.81-3.175c0.537-1.025,1.303-1.807,2.29-2.344
						c0.988-0.541,2.092-0.811,3.311-0.811c1.885,0,3.427,0.611,4.63,1.834s1.805,2.77,1.805,4.635c0,1.885-0.606,3.443-1.821,4.682
						c-1.216,1.24-2.743,1.859-4.587,1.859c-1.142,0-2.229-0.26-3.267-0.775c-1.034-0.516-1.822-1.271-2.358-2.266
						C336.946,159.746,336.678,158.533,336.678,157.102z M340.053,157.276c0,1.233,0.294,2.183,0.878,2.839
						c0.588,0.655,1.311,0.983,2.169,0.983c0.859,0,1.58-0.328,2.162-0.983c0.582-0.656,0.872-1.609,0.872-2.859
						c0-1.219-0.29-2.156-0.872-2.813s-1.303-0.983-2.162-0.983c-0.858,0-1.581,0.328-2.169,0.983
						C340.347,155.099,340.053,156.042,340.053,157.276z"/>
					<path fill="#3B679C" d="M356.488,163.501l-5.016-12.446h3.458l2.344,6.353l0.68,2.119c0.181-0.537,0.293-0.895,0.34-1.064
						c0.108-0.352,0.227-0.703,0.352-1.055l2.367-6.353h3.388l-4.945,12.446H356.488z"/>
				</g>
				<g>
					<path fill="#3B679C" d="M159.933,52.406l4.988-0.26c0.069,1.588,0.342,2.659,0.816,3.216c0.766,0.903,2.179,1.356,4.24,1.356
						c1.715,0,2.955-0.31,3.721-0.922c0.765-0.616,1.146-1.356,1.146-2.226c0-0.753-0.313-1.391-0.938-1.912
						c-0.44-0.381-1.648-1-3.623-1.859c-1.977-0.856-3.419-1.572-4.328-2.146c-0.91-0.572-1.625-1.319-2.146-2.234
						c-0.521-0.913-0.782-1.984-0.782-3.213c0-2.144,0.776-3.925,2.329-5.338c1.554-1.414,3.802-2.121,6.743-2.121
						c2.99,0,5.304,0.701,6.944,2.103c1.64,1.403,2.54,3.269,2.703,5.597l-5.023,0.229c-0.128-1.219-0.567-2.15-1.32-2.8
						c-0.754-0.647-1.866-0.972-3.338-0.972c-1.447,0-2.481,0.253-3.103,0.762c-0.62,0.513-0.93,1.153-0.93,1.932
						c0,0.729,0.283,1.331,0.852,1.807c0.567,0.487,1.825,1.152,3.771,2c2.932,1.262,4.798,2.287,5.597,3.074
						c1.192,1.16,1.791,2.65,1.791,4.469c0,2.247-0.892,4.169-2.668,5.763c-1.779,1.591-4.257,2.388-7.432,2.388
						c-2.189,0-4.088-0.365-5.691-1.104c-1.605-0.734-2.737-1.759-3.398-3.068C160.193,55.615,159.887,54.109,159.933,52.406z"/>
					<path fill="#3B679C" d="M201.386,52.981h-12.515c-0.013,0.196-0.018,0.347-0.018,0.453c0,1.228,0.351,2.219,1.053,2.972
						c0.699,0.753,1.555,1.128,2.563,1.128c1.657,0,2.949-0.856,3.876-2.572l4.468,0.747c-0.869,1.797-2.03,3.144-3.484,4.041
						c-1.454,0.899-3.085,1.347-4.894,1.347c-2.479,0-4.496-0.784-6.048-2.354c-1.554-1.571-2.33-3.646-2.33-6.23
						c0-2.528,0.701-4.775,2.104-6.744c1.912-2.666,4.641-4,8.187-4c2.259,0,4.056,0.7,5.388,2.097c1.332,1.397,2,3.351,2,5.866
						C201.734,50.938,201.618,52.019,201.386,52.981z M197.18,49.94c0.012-0.222,0.019-0.391,0.019-0.506
						c0-1.366-0.309-2.391-0.923-3.075c-0.613-0.684-1.437-1.025-2.468-1.025s-1.956,0.388-2.771,1.163
						c-0.816,0.777-1.37,1.925-1.66,3.443H197.18z"/>
					<path fill="#3B679C" d="M216.501,53.709l4.849,0.784c-0.8,2.153-1.98,3.794-3.545,4.919c-1.563,1.122-3.379,1.685-5.438,1.685
						c-2.354,0-4.22-0.7-5.598-2.104c-1.38-1.399-2.068-3.331-2.068-5.787c0-2.003,0.416-3.896,1.25-5.685
						c0.835-1.784,2.093-3.188,3.771-4.212c1.681-1.025,3.523-1.541,5.528-1.541c2.178,0,3.915,0.568,5.214,1.706
						c1.298,1.135,2.026,2.628,2.188,4.484l-4.742,0.503c-0.116-1.031-0.433-1.79-0.947-2.277c-0.517-0.488-1.19-0.729-2.024-0.729
						c-0.963,0-1.858,0.359-2.693,1.075c-0.834,0.719-1.476,1.794-1.922,3.225c-0.446,1.432-0.67,2.772-0.67,4.025
						c0,1.087,0.267,1.928,0.802,2.519c0.53,0.591,1.197,0.888,1.998,0.888c0.799,0,1.569-0.291,2.311-0.869
						C215.504,55.737,216.084,54.868,216.501,53.709z"/>
					<path fill="#3B679C" d="M225.126,52.997c0-3.416,0.964-6.145,2.894-8.176c1.931-2.034,4.465-3.053,7.605-3.053
						c2.722,0,4.848,0.753,6.378,2.253c1.529,1.5,2.294,3.519,2.294,6.057c0,2.99-0.957,5.575-2.867,7.753
						c-1.911,2.178-4.474,3.266-7.684,3.266c-1.737,0-3.277-0.347-4.621-1.041c-1.347-0.696-2.349-1.681-3.008-2.956
						C225.456,55.825,225.126,54.459,225.126,52.997z M239.344,49.435c0-1.182-0.344-2.129-1.035-2.841
						c-0.688-0.713-1.578-1.069-2.668-1.069c-1.077,0-2.031,0.332-2.866,1c-0.834,0.666-1.483,1.632-1.945,2.9
						c-0.466,1.271-0.697,2.438-0.697,3.503c0,1.322,0.359,2.372,1.078,3.147c0.719,0.774,1.622,1.165,2.713,1.165
						c1.365,0,2.512-0.587,3.439-1.756C238.684,53.828,239.344,51.81,239.344,49.435z"/>
					<path fill="#3B679C" d="M250.426,42.206h4.729l-0.485,2.396c1.182-1.019,2.285-1.746,3.31-2.181
						c1.025-0.435,2.106-0.653,3.242-0.653c1.519,0,2.714,0.438,3.589,1.307c0.875,0.868,1.313,2.021,1.313,3.456
						c0,0.649-0.19,1.878-0.573,3.688l-2.173,10.443h-4.988l2.191-10.481c0.322-1.563,0.484-2.496,0.484-2.797
						c0-0.637-0.188-1.137-0.563-1.503c-0.379-0.365-0.903-0.547-1.575-0.547c-0.729,0-1.541,0.307-2.432,0.919
						c-0.895,0.615-1.595,1.428-2.104,2.435c-0.372,0.719-0.789,2.185-1.254,4.396l-1.581,7.578h-4.987L250.426,42.206z"/>
					<path fill="#3B679C" d="M285.766,60.662h-4.727l0.417-1.997c-0.903,0.869-1.794,1.491-2.669,1.869
						c-0.875,0.375-1.862,0.563-2.963,0.563c-1.912,0-3.463-0.65-4.649-1.953c-1.188-1.307-1.781-3.231-1.781-5.781
						c0-2.953,0.834-5.625,2.503-8.013c1.669-2.388,3.875-3.581,6.622-3.581c2.479,0,4.339,0.987,5.578,2.956l2-9.542h4.987
						L285.766,60.662z M274.243,53.156c0,1.318,0.331,2.35,0.999,3.094c0.667,0.74,1.484,1.109,2.459,1.109
						c0.903,0,1.747-0.31,2.528-0.929c0.781-0.618,1.406-1.568,1.877-2.84c0.472-1.275,0.705-2.497,0.705-3.669
						c0-1.331-0.358-2.409-1.078-3.234c-0.719-0.822-1.547-1.231-2.485-1.231c-1.459,0-2.659,0.81-3.6,2.432
						C274.712,49.509,274.243,51.266,274.243,53.156z"/>
					<path fill="#3B679C" d="M298.065,47.438l-4.869-0.419c0.558-1.644,1.528-2.932,2.913-3.859c1.385-0.925,3.22-1.391,5.5-1.391
						c2.375,0,4.132,0.479,5.27,1.435c1.134,0.956,1.703,2.125,1.703,3.503c0,0.557-0.05,1.146-0.147,1.771
						c-0.1,0.629-0.442,2.272-1.034,4.938c-0.486,2.2-0.73,3.744-0.73,4.622c0,0.791,0.141,1.666,0.419,2.625h-4.853
						c-0.195-0.672-0.317-1.365-0.363-2.084c-0.73,0.81-1.571,1.435-2.521,1.868c-0.95,0.435-1.906,0.65-2.867,0.65
						c-1.528,0-2.792-0.5-3.789-1.503c-0.996-1-1.493-2.291-1.493-3.866c0-1.762,0.547-3.168,1.641-4.225
						c1.098-1.053,3.052-1.69,5.867-1.912c2.375-0.197,3.963-0.435,4.763-0.713c0.208-0.693,0.313-1.25,0.313-1.669
						c0-0.531-0.214-0.978-0.643-1.337c-0.43-0.359-1.066-0.538-1.913-0.538c-0.894,0-1.597,0.182-2.111,0.547
						C298.6,46.247,298.25,46.766,298.065,47.438z M302.809,52.06c-0.301,0.081-0.699,0.156-1.199,0.225
						c-2.504,0.303-4.137,0.744-4.899,1.322c-0.545,0.418-0.817,0.98-0.817,1.688c0,0.578,0.208,1.068,0.627,1.469
						c0.415,0.399,0.966,0.597,1.649,0.597c0.754,0,1.463-0.182,2.129-0.547c0.667-0.366,1.165-0.835,1.496-1.406
						c0.328-0.575,0.622-1.469,0.877-2.688L302.809,52.06z"/>
					<path fill="#3B679C" d="M314.931,42.206h4.656l-0.747,3.578c1.738-2.675,3.622-4.016,5.65-4.016
						c0.716,0,1.486,0.182,2.31,0.541l-1.909,4.084c-0.453-0.162-0.935-0.244-1.444-0.244c-0.858,0-1.73,0.325-2.614,0.976
						c-0.889,0.646-1.578,1.513-2.078,2.597c-0.497,1.084-0.991,2.8-1.479,5.153l-1.216,5.787h-4.987L314.931,42.206z"/>
					<path fill="#3B679C" d="M328.681,42.206h4.972l1.25,9.193c0.313,2.363,0.488,4.02,0.522,4.969
						c0.646-1.887,1.54-3.881,2.675-5.978l4.416-8.185h5.284l-11.403,20.266c-0.938,1.682-1.675,2.856-2.216,3.528
						c-0.537,0.672-1.188,1.2-1.946,1.581c-0.76,0.385-1.672,0.575-2.737,0.575c-1.054,0-2.24-0.186-3.563-0.557l0.436-3.719
						c0.604,0.172,1.188,0.26,1.757,0.26c1.526,0,2.787-1.159,3.771-3.479L328.681,42.206z"/>
					<path fill="#3B679C" d="M248.438,94.731l6.899,2.087c-0.464,1.935-1.193,3.55-2.19,4.847c-0.997,1.301-2.233,2.277-3.711,2.94
						c-1.477,0.659-3.356,0.99-5.639,0.99c-2.771,0-5.033-0.403-6.788-1.206c-1.756-0.808-3.271-2.222-4.547-4.249
						c-1.273-2.025-1.911-4.619-1.911-7.781c0-4.216,1.121-7.453,3.364-9.719c2.241-2.263,5.413-3.397,9.516-3.397
						c3.21,0,5.731,0.65,7.569,1.947c1.837,1.3,3.199,3.294,4.094,5.981l-6.953,1.547c-0.244-0.778-0.497-1.344-0.765-1.703
						c-0.44-0.604-0.979-1.065-1.617-1.391s-1.35-0.487-2.138-0.487c-1.784,0-3.151,0.719-4.103,2.152
						c-0.719,1.066-1.078,2.738-1.078,5.016c0,2.825,0.431,4.76,1.286,5.81c0.858,1.047,2.063,1.569,3.616,1.569
						c1.506,0,2.644-0.422,3.415-1.27C247.529,97.571,248.089,96.344,248.438,94.731z"/>
					<path fill="#3B679C" d="M259.925,79.681h7.891v25.48h-7.891V79.681z"/>
					<path fill="#3B679C" d="M271.953,79.681h23.933v6.291h-8.03v19.189h-7.875V85.972h-8.026L271.953,79.681L271.953,79.681z"/>
					<path fill="#3B679C" d="M300.021,79.681h7.892v25.48h-7.892V79.681z"/>
					<path fill="#3B679C" d="M314.131,79.681h21.1v5.438h-13.209v4.051h12.253v5.196h-12.253v5.025h13.592v5.771h-21.481
						L314.131,79.681L314.131,79.681z"/>
					<path fill="#3B679C" d="M339.172,96.731l7.49-0.469c0.162,1.215,0.493,2.144,0.989,2.777c0.813,1.035,1.974,1.547,3.479,1.547
						c1.122,0,1.99-0.262,2.597-0.79c0.609-0.525,0.913-1.138,0.913-1.831c0-0.663-0.291-1.254-0.869-1.775s-1.922-1.013-4.03-1.475
						c-3.453-0.778-5.916-1.81-7.389-3.094c-1.483-1.288-2.225-2.929-2.225-4.919c0-1.31,0.378-2.547,1.138-3.713
						c0.759-1.165,1.899-2.078,3.425-2.747c1.524-0.665,3.612-1,6.267-1c3.256,0,5.736,0.606,7.445,1.819
						c1.71,1.209,2.729,3.138,3.052,5.778l-7.419,0.434c-0.2-1.146-0.612-1.98-1.244-2.503c-0.631-0.521-1.503-0.781-2.615-0.781
						c-0.916,0-1.606,0.194-2.069,0.581c-0.462,0.388-0.695,0.863-0.695,1.416c0,0.406,0.192,0.771,0.574,1.097
						c0.371,0.335,1.25,0.65,2.642,0.938c3.442,0.744,5.909,1.494,7.396,2.25c1.487,0.76,2.572,1.703,3.25,2.825
						c0.679,1.125,1.017,2.381,1.017,3.771c0,1.635-0.45,3.141-1.354,4.52c-0.906,1.381-2.168,2.427-3.79,3.14
						s-3.666,1.068-6.135,1.068c-4.334,0-7.334-0.834-9.003-2.506C340.337,101.422,339.394,99.303,339.172,96.731z"/>
				</g>
			</g>
		</g>
	</g>
</g>
</svg>
