<?xml version="1.0" encoding="utf-8"?>
<!-- Generator: Adobe Illustrator 16.0.0, SVG Export Plug-In . SVG Version: 6.00 Build 0)  -->
<!DOCTYPE svg PUBLIC "-//W3C//DTD SVG 1.1//EN" "http://www.w3.org/Graphics/SVG/1.1/DTD/svg11.dtd">
<svg version="1.1" id="Layer_1" xmlns="http://www.w3.org/2000/svg" xmlns:xlink="http://www.w3.org/1999/xlink" x="0px" y="0px"
	 width="395.736px" height="202.668px" viewBox="0 0 395.736 202.668" enable-background="new 0 0 395.736 202.668"
	 xml:space="preserve">
<g id="Blue">
	<g id="outlined">
		<g>
			<rect x="0" fill="#3B679C" width="395.736" height="202.668"/>
			<g>
				<path fill="#FFFFFF" d="M84.983,40.393c0.018-0.004,0.034-0.011,0.052-0.015c1.306-0.311,2.701-0.613,4.139-0.613
					c1.5,0,2.84,0.336,4.098,1.029c1.468,0.807,2.063,2.109,2.539,3.156c0.228,0.497,0.44,0.967,0.691,1.23
					c1.119,1.172,5.125,0.774,5.656-2.202c0.671-3.742-3.185-6.288-4.382-6.979c-1.856-1.072-5.012-1.617-9.377-1.617
					c-2.57,0-5.276,0.572-8.47,1.779C81.821,37.327,83.53,38.749,84.983,40.393z M92.45,94.928c0.512-0.126,1.045-0.255,1.601-0.389
					V84.38l12.387-10.263l3.757,3.109l8.628,7.153V86.6h-11.118v5.238c0.56-0.073,1.095-0.137,1.601-0.187V88.2h23.514v15.839
					c0.307-0.031,0.595-0.057,0.862-0.076c0.251-0.02,0.49-0.031,0.738-0.049V86.601h-7.694V76.48h21.616v4.597h-5.379V103.6
					c0.001,0,0.002,0,0.003,0l0.597,0.002c0.34,0.002,0.666,0.014,1,0.02V82.677h16.193v22.658c0.527,0.095,1.061,0.188,1.601,0.285
					V75.924h19.554v11.992h-8.315v19.815c0.535,0.102,1.067,0.202,1.6,0.303V89.516h17.686v9.116h-8.523v11.055
					c0.556,0.092,1.083,0.176,1.601,0.256v-9.711h12.895l-0.011,10.104c0.037-0.006,0.078-0.008,0.114-0.014
					c0.421-0.063,0.939-0.136,1.495-0.212V98.632h-5.971v-3.185h11.873v13.788c0.581-0.102,1.123-0.205,1.601-0.309V93.847h-13.474
					v-5.932H183.51V74.324h-22.753v6.753h-6.841v-14.06h-12.082V63.78l-15.966-11.393L109.903,63.78v11.131l-3.466-2.872
					L92.45,83.627V94.928z M152.314,68.617v12.46h-2.375V74.88h-10.863v-6.263H152.314z M111.504,64.602l14.362-10.246
					l14.361,10.246v2.416h-2.753v7.862h-12.352v11.721h-4.702v-2.974l-8.918-7.391L111.504,64.602L111.504,64.602z M212.617,103.807
					c-1.115-0.521-2.145-0.887-2.855-1.11v3.173c0.272,0.147,0.63,0.358,0.989,0.623c0.785,0.578,0.932,1.182,0.916,1.588
					c-0.022,0.631-0.438,1.205-1.229,1.703c-0.442,0.278-1.312,0.532-2.488,0.778c-0.483,0.101-1.019,0.198-1.601,0.299
					c-1.448,0.246-3.176,0.49-5.08,0.752c-0.291,0.039-0.557,0.076-0.823,0.113c-0.463,0.063-0.897,0.125-1.259,0.179
					c-0.112,0.018-0.237,0.021-0.352,0.038c-3.22,0.44-6.904,0.427-10.75-0.073c-0.655-0.086-1.379-0.191-2.133-0.308
					c-0.518-0.079-1.044-0.162-1.601-0.253c-3.875-0.637-8.629-1.541-13.271-2.428l-0.517-0.098
					c-6.093-1.16-12.999-2.475-17.295-2.994c-2.782-0.336-5.647-0.518-8.709-0.568c-0.338-0.006-0.667-0.018-1.01-0.02l-0.587-0.002
					c-0.001,0-0.002,0-0.003,0c-2.713,0-5.521,0.106-8.543,0.317c-0.208,0.015-0.409,0.024-0.62,0.041
					c-0.306,0.022-0.638,0.056-0.981,0.093c-2.681,0.29-6.357,0.979-9.019,1.497c-1.426,0.278-2.782,0.554-3.943,0.79
					c-1.774,0.359-3.057,0.621-3.556,0.684c-0.188,0.023-0.494,0.086-0.879,0.16c-1.295,0.254-3.362,0.656-4.872,0.531
					c-1.226-0.098-1.995-0.535-2.286-1.3c-0.426-1.117,0.299-2.573,2.351-4.72c3.339-3.492,5.145-5.523,5.749-6.938
					c0.419-0.979,0.333-1.617-1.286-2.801c-0.242-0.176-0.933-0.474-2.815-0.474c-0.838,0-1.826,0.06-2.958,0.177
					c-0.502,0.051-1.042,0.119-1.601,0.193c-1.547,0.208-3.297,0.498-5.263,0.88c-2.937,0.571-5.876,1.245-8.391,1.853
					c-0.559,0.135-1.091,0.265-1.602,0.391c-1.219,0.302-2.305,0.576-3.15,0.791l-0.976,0.248c-1.458,0.365-3.372,0.824-5.48,1.318
					c-2.104,0.494-4.404,1.022-6.635,1.535c-1.374,0.239-3.827,0.664-6.57,1.131c-2.743,0.466-5.779,0.973-8.273,1.369
					c-0.604,0.084-1.431,0.236-2.39,0.412c-0.786,0.145-1.659,0.304-2.565,0.455c-2.66,0.445-4.594,0.652-6.083,0.652
					c-0.804,0-1.07-0.488-1.147-0.699c-0.363-0.99,0.303-2.124,8.202-8.821c1.129-0.957,2.318-1.957,3.531-2.975
					c3.421-2.873,6.928-5.818,9.729-8.373c-0.376-0.172-0.749-0.349-1.104-0.545c-0.429-0.237-0.842-0.492-1.236-0.764
					c-1.327-0.909-2.522-2.086-3.58-3.479c-2.34,2.469-4.876,4.857-7.542,7.1c-2.77,2.326-5.944,4.439-9.015,6.482
					c-1.057,0.703-2.113,1.406-3.158,2.121c-3.874,2.651-7.858,5.625-10.744,9.386c-1.528,1.99-2.22,3.879-2.055,5.615
					c0.176,1.85,1.347,3.519,3.479,4.959c1.146,0.773,2.824,1.166,4.985,1.166c2.202,0,4.853-0.391,8.104-1.193
					c4.504-1.11,9.268-2.811,13.095-4.178c0.867-0.309,1.69-0.604,2.458-0.871c0.703-0.246,4.369-1.278,5.407-1.621
					c4.281-1.575,10.319-3.733,17.92-6.406c4.76-1.672,9.985-3.491,10.088-3.519l0.285-0.083c0.409-0.119,0.813-0.236,1.207-0.356
					c0.495-0.148,0.974-0.295,1.431-0.439c2.763-0.886,4.664-1.037,5.779-0.438c0.498,0.271,0.838,0.689,0.986,1.215
					c0.243,0.867-0.041,1.98-0.869,3.402c-0.721,1.236-2.098,2.559-3.556,3.957c-0.886,0.851-1.802,1.729-2.556,2.58
					c-1.271,1.439-1.827,2.531-1.7,3.34c0.087,0.554,0.512,1.05,1.301,1.519c0.197,0.117,0.398,0.216,0.603,0.306
					c0.147,0.064,0.292,0.125,0.438,0.186l0.256,0.107c2.208,0.937,4.883,1.217,7.922,0.828c2.139-0.277,4.415-0.865,6.959-1.8
					c2.271-0.825,7.961-2.504,14.898-3.553c0.567-0.086,1.127-0.151,1.689-0.226c0.535-0.07,1.071-0.146,1.602-0.205
					c2.952-0.334,5.816-0.506,8.551-0.506c4.292,0,8.286,0.416,11.872,1.24c3.294,0.758,6.684,1.586,9.962,2.387
					c4.456,1.09,9.063,2.215,13.317,3.131c6.958,1.5,11.459,2.355,18.626,2.186c5.848-0.365,13.203-1.585,15.892-3.201
					c2.586-1.556,3.979-3.486,3.928-5.436C216.512,106.038,214.389,104.635,212.617,103.807z M42.076,60.969
					c0.114,0,0.231-0.005,0.349-0.013c1.222-0.08,2.728-0.6,3.838-1.322c0.94-0.613,1.673-1.521,2.484-2.695l0.42-0.616
					c0.638-0.94,1.297-1.912,2.121-2.741c1.838-1.857,4.06-3.984,6.592-5.674c2.961-1.975,5.766-2.925,8.424-2.861
					c0.065,0.002,0.132-0.004,0.197-0.002c0.252,0.012,0.486,0.039,0.73,0.057c0.31,0.023,0.621,0.045,0.917,0.079
					c2.581,0.3,4.66,1.022,6.23,2.146c0.22,0.157,0.438,0.316,0.638,0.489c0.204,0.177,0.394,0.365,0.575,0.559
					c0.041,0.044,0.09,0.082,0.13,0.126c1.572,1.748,2.283,4.101,2.111,6.994c-0.313,5.224-3.493,11.311-6.366,15.266
					c-0.015,0.021-0.032,0.043-0.047,0.063c-0.001,0.002-0.003,0.005-0.005,0.007c0.04,0.083,0.085,0.16,0.125,0.242
					c0.133,0.266,0.273,0.523,0.421,0.777c0.081,0.139,0.161,0.278,0.245,0.411c0.128,0.204,0.267,0.398,0.404,0.593
					c0.259,0.363,0.533,0.707,0.822,1.031c0.287,0.324,0.585,0.625,0.896,0.901c0.019,0.017,0.038,0.036,0.057,0.053
					c0.244,0.214,0.494,0.416,0.748,0.603c0.006,0.005,0.012,0.01,0.018,0.014c0.199,0.146,0.394,0.302,0.602,0.434
					c0.541,0.342,1.104,0.619,1.679,0.85c0.004-0.005,0.008-0.01,0.012-0.014c1.824-2.03,3.736-4.334,5.422-6.779
					c3.131-4.539,4.97-8.74,5.623-12.846c0.686-4.316-0.215-8.825-2.533-12.696c-0.458-0.765-0.982-1.485-1.539-2.182
					c-0.174-0.218-0.34-0.443-0.524-0.654c-0.188-0.217-0.395-0.419-0.592-0.628c-1.5-1.583-3.255-2.934-5.205-3.994
					c-0.299-0.163-0.599-0.324-0.907-0.473c-0.305-0.147-0.618-0.279-0.931-0.412c-0.309-0.133-0.613-0.273-0.929-0.391
					c-4.333-1.612-9.291-1.45-14.517,0.461c-4.229,1.551-8.679,4.299-12.532,7.742c-1.705,1.526-4.286,4.457-6.206,7.562
					c-2.184,3.536-2.993,6.473-2.28,8.268C39.92,60.015,40.298,60.969,42.076,60.969z M65.753,49.062L65.753,49.062
					c-1.558,3.045-2.65,6.541-3.247,10.391c-0.371,2.38-0.506,4.65-0.404,6.748c0.104,2.096,0.445,4.09,1.016,5.924
					c0.456,1.488,1.064,2.87,1.801,4.135c0.141,0.24,0.282,0.48,0.433,0.713c0.027,0.042,0.052,0.088,0.08,0.131
					c0.126,0.188,0.263,0.355,0.395,0.535c0.991,1.355,2.123,2.492,3.381,3.354c0.821,0.564,1.736,1.038,2.719,1.437
					c0.271,0.109,0.542,0.221,0.825,0.318c0.284,0.098,0.582,0.178,0.876,0.262c0.19,0.055,0.374,0.118,0.568,0.167
					c1.915,0.474,4.118,0.714,6.548,0.714c3.191,0,6.106-0.533,8.662-1.586c2.732-1.121,6.812-3.436,9.315-6.271
					c2.385-2.697,3.202-4.178,3.359-6.093c0.015-0.179,0.008-0.356-0.018-0.532c-0.011-0.075-0.038-0.147-0.056-0.222
					c-0.024-0.1-0.042-0.2-0.079-0.296c-0.029-0.078-0.074-0.152-0.111-0.229c-0.043-0.09-0.082-0.18-0.137-0.266
					c-0.045-0.072-0.104-0.139-0.157-0.207c-0.063-0.082-0.123-0.166-0.195-0.243c-0.014-0.013-0.021-0.028-0.034-0.042
					c-0.083-0.085-0.186-0.15-0.277-0.227c-0.087-0.072-0.167-0.152-0.262-0.216c-0.096-0.064-0.202-0.11-0.303-0.164
					c-0.117-0.063-0.23-0.134-0.354-0.184c-0.12-0.048-0.246-0.073-0.371-0.107c-0.109-0.03-0.217-0.073-0.329-0.092
					c-0.239-0.041-0.481-0.056-0.722-0.041c-0.973,0.06-1.801,1.583-2.295,2.495l-0.063,0.113c-0.158,0.291-0.31,0.586-0.461,0.88
					c-0.532,1.035-1.083,2.106-1.935,3.049c-1.296,1.438-3.044,2.431-4.583,3.212c-1.56,0.795-3.295,1.451-5.305,2.008
					c-0.456,0.125-0.915,0.213-1.374,0.281c-0.117,0.018-0.234,0.025-0.352,0.039c-0.366,0.043-0.729,0.068-1.096,0.074
					c-0.13,0.003-0.261,0.006-0.392,0.003c-0.21-0.003-0.419-0.013-0.629-0.028c-0.11-0.009-0.222-0.021-0.333-0.033
					c-0.656-0.068-1.308-0.191-1.946-0.376c-0.283-0.081-0.566-0.164-0.846-0.269c-0.263-0.099-0.519-0.219-0.775-0.338
					c-0.475-0.218-0.942-0.457-1.396-0.742c-0.152-0.098-0.292-0.215-0.44-0.318c-0.119-0.082-0.236-0.166-0.354-0.254
					c-0.21-0.157-0.417-0.316-0.617-0.487c-0.165-0.14-0.322-0.292-0.482-0.442c-0.148-0.141-0.301-0.273-0.443-0.42
					c-0.303-0.314-0.593-0.652-0.873-1.006c-0.062-0.08-0.119-0.165-0.18-0.246c-0.231-0.307-0.453-0.627-0.666-0.963
					c-0.055-0.088-0.107-0.176-0.16-0.265c-0.116-0.194-0.22-0.401-0.329-0.603c-0.085-0.157-0.177-0.308-0.257-0.469
					c-0.043-0.088-0.087-0.174-0.129-0.262c-0.009-0.019-0.016-0.038-0.024-0.057c-0.129-0.275-0.245-0.563-0.36-0.85
					c-0.038-0.094-0.081-0.182-0.117-0.276c-0.035-0.09-0.072-0.177-0.105-0.268c-0.147-0.409-0.28-0.835-0.403-1.274
					c-0.027-0.094-0.06-0.184-0.084-0.279c-0.139-0.523-0.262-1.063-0.36-1.627c-0.05-0.283-0.094-0.569-0.129-0.86
					c-0.686-5.36,0.612-11.029,3.553-15.574c0.023-0.036,0.042-0.075,0.065-0.11c0.402-0.615,0.854-1.209,1.329-1.792
					c-1.5-1.029-3.583-1.646-6.22-1.845c-0.258,0.408-0.792,1.316-0.792,1.316c-0.192,0.344-0.383,0.693-0.564,1.049V49.062z"/>
				<g>
					<path fill="#FFFFFF" d="M26.948,132.147c0-1.52,0.227-2.791,0.681-3.818c0.338-0.76,0.801-1.44,1.386-2.043
						c0.586-0.602,1.229-1.048,1.925-1.342c0.929-0.391,1.997-0.588,3.209-0.588c2.194,0,3.949,0.682,5.267,2.041
						c1.316,1.361,1.977,3.253,1.977,5.678c0,2.403-0.654,4.284-1.961,5.641c-1.307,1.359-3.054,2.039-5.24,2.039
						c-2.214,0-3.975-0.676-5.28-2.025C27.602,136.375,26.948,134.516,26.948,132.147z M30.046,132.043
						c0,1.688,0.389,2.967,1.168,3.836c0.778,0.867,1.767,1.306,2.966,1.306c1.198,0,2.182-0.431,2.949-1.297
						c0.77-0.862,1.153-2.156,1.153-3.884c0-1.707-0.374-2.979-1.122-3.819s-1.742-1.259-2.98-1.259
						c-1.239,0-2.238,0.425-2.996,1.273C30.425,129.051,30.046,130.333,30.046,132.043z"/>
					<path fill="#FFFFFF" d="M45.051,139.5v-14.892h10.207v2.521h-7.201v3.523h6.216v2.52h-6.216v6.328H45.051z"/>
					<path fill="#FFFFFF" d="M58.621,139.5v-14.892h10.207v2.521h-7.201v3.523h6.216v2.52h-6.216v6.328H58.621z"/>
					<path fill="#FFFFFF" d="M72.132,139.5v-14.892h3.006V139.5H72.132z"/>
					<path fill="#FFFFFF" d="M88.859,134.025l2.915,0.925c-0.445,1.625-1.188,2.832-2.229,3.619
						c-1.039,0.79-2.357,1.186-3.955,1.186c-1.979,0-3.604-0.676-4.875-2.025c-1.273-1.354-1.91-3.2-1.91-5.541
						c0-2.479,0.641-4.402,1.92-5.773c1.279-1.373,2.962-2.058,5.048-2.058c1.821,0,3.302,0.538,4.438,1.616
						c0.676,0.634,1.184,1.55,1.522,2.74l-2.977,0.713c-0.176-0.772-0.543-1.383-1.103-1.828c-0.559-0.447-1.237-0.672-2.035-0.672
						c-1.104,0-1.999,0.396-2.688,1.188c-0.688,0.793-1.031,2.074-1.031,3.85c0,1.882,0.34,3.223,1.017,4.021
						c0.677,0.801,1.558,1.2,2.641,1.2c0.799,0,1.486-0.256,2.063-0.763C88.195,135.913,88.609,135.116,88.859,134.025z"/>
					<path fill="#FFFFFF" d="M95.373,139.5v-14.892h11.04v2.521h-8.034v3.3h7.476v2.509h-7.476v4.055h8.317v2.508H95.373
						L95.373,139.5z"/>
					<path fill="#FFFFFF" d="M116.912,132.147c0-1.52,0.227-2.791,0.681-3.818c0.338-0.76,0.801-1.44,1.386-2.043
						c0.586-0.602,1.229-1.048,1.925-1.342c0.929-0.391,1.997-0.588,3.21-0.588c2.193,0,3.949,0.682,5.267,2.041
						c1.315,1.361,1.976,3.253,1.976,5.678c0,2.403-0.653,4.284-1.96,5.641c-1.308,1.359-3.055,2.039-5.241,2.039
						c-2.214,0-3.975-0.676-5.28-2.025C117.565,136.375,116.912,134.516,116.912,132.147z M120.01,132.043
						c0,1.688,0.389,2.967,1.168,3.836c0.778,0.867,1.768,1.306,2.966,1.306s2.183-0.431,2.95-1.297
						c0.769-0.862,1.152-2.156,1.152-3.884c0-1.707-0.374-2.979-1.122-3.819s-1.741-1.259-2.98-1.259s-2.238,0.425-2.996,1.273
						C120.389,129.051,120.01,130.333,120.01,132.043z"/>
					<path fill="#FFFFFF" d="M135.015,139.5v-14.892h10.207v2.521h-7.201v3.523h6.216v2.52h-6.216v6.328H135.015z"/>
					<path fill="#FFFFFF" d="M159.325,139.5v-12.371h-4.418v-2.521h11.831v2.521h-4.406V139.5H159.325z"/>
					<path fill="#FFFFFF" d="M169.825,139.5v-14.892h3.007v5.858h5.891v-5.858h3.006V139.5h-3.006v-6.513h-5.891v6.513H169.825z"/>
					<path fill="#FFFFFF" d="M186.101,139.5v-14.892h11.04v2.521h-8.034v3.3h7.477v2.509h-7.477v4.055h8.318v2.508H186.101
						L186.101,139.5z"/>
					<path fill="#FFFFFF" d="M215.175,134.025v-2.51h6.481v5.933c-0.633,0.608-1.545,1.145-2.738,1.608
						c-1.195,0.466-2.406,0.696-3.631,0.696c-1.559,0-2.916-0.328-4.072-0.98c-1.159-0.652-2.027-1.588-2.61-2.805
						c-0.583-1.215-0.874-2.536-0.874-3.965c0-1.551,0.325-2.928,0.977-4.135c0.648-1.203,1.6-2.127,2.853-2.771
						c0.957-0.494,2.146-0.741,3.566-0.741c1.848,0,3.292,0.389,4.331,1.163c1.04,0.774,1.708,1.847,2.006,3.215l-2.985,0.558
						c-0.211-0.731-0.604-1.308-1.184-1.731c-0.579-0.422-1.303-0.634-2.168-0.634c-1.314,0-2.358,0.414-3.135,1.25
						c-0.775,0.83-1.162,2.068-1.162,3.705c0,1.77,0.394,3.095,1.178,3.979c0.786,0.883,1.814,1.325,3.088,1.325
						c0.631,0,1.262-0.125,1.894-0.372c0.635-0.246,1.179-0.547,1.632-0.898v-1.889L215.175,134.025L215.175,134.025z"/>
					<path fill="#FFFFFF" d="M225.711,139.5v-14.892h11.039v2.521h-8.033v3.3h7.475v2.509h-7.475v4.055h8.317v2.508H225.711
						L225.711,139.5z"/>
					<path fill="#FFFFFF" d="M239.948,132.147c0-1.52,0.227-2.791,0.68-3.818c0.339-0.76,0.802-1.44,1.388-2.043
						c0.584-0.602,1.228-1.048,1.925-1.342c0.928-0.391,1.997-0.588,3.209-0.588c2.194,0,3.948,0.682,5.267,2.041
						c1.314,1.361,1.976,3.253,1.976,5.678c0,2.403-0.653,4.284-1.96,5.641c-1.308,1.359-3.055,2.039-5.24,2.039
						c-2.216,0-3.976-0.676-5.28-2.025C240.602,136.375,239.948,134.516,239.948,132.147z M243.047,132.043
						c0,1.688,0.387,2.967,1.167,3.836c0.778,0.867,1.767,1.306,2.966,1.306c1.198,0,2.183-0.431,2.949-1.297
						c0.77-0.862,1.153-2.156,1.153-3.884c0-1.707-0.373-2.979-1.123-3.819c-0.747-0.841-1.741-1.259-2.979-1.259
						c-1.239,0-2.239,0.425-2.996,1.273C243.425,129.051,243.047,130.333,243.047,132.043z"/>
					<path fill="#FFFFFF" d="M264.86,134.025v-2.51h6.479v5.933c-0.629,0.608-1.542,1.145-2.737,1.608
						c-1.192,0.466-2.406,0.696-3.631,0.696c-1.557,0-2.914-0.328-4.072-0.98c-1.156-0.652-2.027-1.588-2.608-2.805
						c-0.583-1.215-0.875-2.536-0.875-3.965c0-1.551,0.325-2.928,0.976-4.135c0.649-1.203,1.603-2.127,2.854-2.771
						c0.954-0.494,2.142-0.741,3.563-0.741c1.852,0,3.294,0.389,4.332,1.163c1.04,0.774,1.709,1.847,2.006,3.215l-2.983,0.558
						c-0.211-0.731-0.606-1.308-1.186-1.731c-0.578-0.422-1.302-0.634-2.169-0.634c-1.313,0-2.354,0.414-3.133,1.25
						c-0.774,0.83-1.162,2.068-1.162,3.705c0,1.77,0.394,3.095,1.178,3.979c0.786,0.883,1.814,1.325,3.088,1.325
						c0.631,0,1.262-0.125,1.895-0.372c0.633-0.246,1.177-0.547,1.63-0.898v-1.889L264.86,134.025L264.86,134.025z"/>
					<path fill="#FFFFFF" d="M275.396,139.5v-14.892h6.328c1.591,0,2.747,0.136,3.467,0.403c0.722,0.266,1.3,0.74,1.733,1.425
						c0.431,0.685,0.649,1.466,0.649,2.349c0,1.114-0.329,2.039-0.985,2.769c-0.658,0.725-1.64,1.185-2.945,1.375
						c0.649,0.378,1.188,0.794,1.609,1.25c0.423,0.452,0.993,1.259,1.712,2.415l1.817,2.906h-3.596l-2.174-3.24
						c-0.771-1.159-1.3-1.889-1.584-2.188c-0.285-0.303-0.586-0.51-0.905-0.622c-0.317-0.109-0.82-0.164-1.513-0.164h-0.609v6.215
						H275.396z M278.402,130.907h2.227c1.439,0,2.341-0.06,2.7-0.182c0.358-0.122,0.641-0.335,0.844-0.633
						c0.203-0.297,0.305-0.668,0.305-1.114c0-0.503-0.133-0.906-0.401-1.216c-0.268-0.307-0.645-0.504-1.132-0.584
						c-0.243-0.031-0.975-0.051-2.192-0.051h-2.349L278.402,130.907L278.402,130.907z"/>
					<path fill="#FFFFFF" d="M305.883,139.5h-3.271l-1.3-3.385h-5.952l-1.229,3.385h-3.188l5.8-14.892h3.18L305.883,139.5z
						 M300.347,133.609l-2.05-5.524l-2.013,5.524H300.347z"/>
					<path fill="#FFFFFF" d="M308.797,139.5v-14.892h4.824c1.828,0,3.02,0.075,3.574,0.226c0.854,0.223,1.567,0.709,2.145,1.457
						c0.575,0.746,0.863,1.715,0.863,2.899c0,0.912-0.166,1.681-0.497,2.306c-0.333,0.623-0.753,1.112-1.267,1.467
						c-0.511,0.355-1.03,0.591-1.56,0.705c-0.717,0.145-1.756,0.213-3.117,0.213h-1.961v5.619H308.797z M311.803,127.129v4.225
						h1.646c1.185,0,1.976-0.078,2.375-0.234c0.399-0.152,0.713-0.396,0.94-0.73c0.228-0.331,0.34-0.717,0.34-1.156
						c0-0.54-0.159-0.986-0.478-1.341c-0.319-0.353-0.722-0.571-1.21-0.659c-0.359-0.068-1.079-0.104-2.162-0.104H311.803
						L311.803,127.129z"/>
					<path fill="#FFFFFF" d="M323.556,139.5v-14.892h3.007v5.858h5.892v-5.858h3.006V139.5h-3.006v-6.513h-5.892v6.513H323.556z"/>
					<path fill="#FFFFFF" d="M339.831,139.5v-14.892h11.04v2.521h-8.034v3.3h7.476v2.509h-7.476v4.055h8.319v2.508H339.831
						L339.831,139.5z"/>
					<path fill="#FFFFFF" d="M354.951,139.5v-14.892h6.325c1.592,0,2.747,0.136,3.47,0.403c0.723,0.266,1.299,0.74,1.73,1.425
						c0.436,0.685,0.65,1.466,0.65,2.349c0,1.114-0.328,2.039-0.984,2.769c-0.656,0.725-1.64,1.185-2.945,1.375
						c0.649,0.378,1.187,0.794,1.609,1.25c0.423,0.452,0.993,1.259,1.711,2.415l1.818,2.906h-3.596l-2.174-3.24
						c-0.771-1.159-1.3-1.889-1.584-2.188c-0.285-0.303-0.586-0.51-0.902-0.622c-0.319-0.109-0.823-0.164-1.516-0.164h-0.608v6.215
						H354.951z M357.957,130.907h2.224c1.444,0,2.344-0.06,2.703-0.182c0.358-0.122,0.64-0.335,0.843-0.633
						c0.203-0.297,0.306-0.668,0.306-1.114c0-0.503-0.136-0.906-0.402-1.216c-0.268-0.307-0.646-0.504-1.133-0.584
						c-0.243-0.031-0.976-0.051-2.193-0.051h-2.346L357.957,130.907L357.957,130.907z"/>
					<path fill="#FFFFFF" d="M30.669,157.911l3.375-0.328c0.203,1.131,0.615,1.965,1.235,2.496c0.621,0.53,1.459,0.797,2.515,0.797
						c1.117,0,1.959-0.237,2.524-0.709c0.566-0.473,0.851-1.025,0.851-1.66c0-0.405-0.119-0.75-0.357-1.037
						c-0.237-0.284-0.653-0.531-1.248-0.743c-0.405-0.142-1.332-0.392-2.776-0.75c-1.859-0.46-3.164-1.028-3.914-1.7
						c-1.056-0.943-1.582-2.097-1.582-3.456c0-0.875,0.248-1.694,0.744-2.452c0.495-0.764,1.211-1.345,2.145-1.742
						c0.934-0.398,2.062-0.6,3.381-0.6c2.156,0,3.779,0.475,4.869,1.419c1.09,0.946,1.662,2.206,1.717,3.784l-3.469,0.152
						c-0.148-0.881-0.467-1.516-0.955-1.902s-1.221-0.581-2.197-0.581c-1.008,0-1.797,0.206-2.366,0.622
						c-0.367,0.266-0.552,0.621-0.552,1.064c0,0.406,0.172,0.754,0.517,1.045c0.438,0.365,1.5,0.75,3.188,1.146
						c1.688,0.399,2.937,0.813,3.744,1.237s1.441,1.01,1.898,1.746c0.457,0.738,0.686,1.65,0.686,2.734
						c0,0.984-0.272,1.906-0.82,2.766c-0.547,0.861-1.319,1.5-2.319,1.92c-1,0.414-2.246,0.625-3.738,0.625
						c-2.172,0-3.84-0.5-5.004-1.508C31.591,161.293,30.896,159.833,30.669,157.911z"/>
					<path fill="#FFFFFF" d="M56.213,159.538l3.281,0.551c-0.423,1.203-1.089,2.121-1.998,2.75c-0.91,0.627-2.05,0.943-3.416,0.943
						c-2.164,0-3.767-0.71-4.806-2.121c-0.819-1.136-1.229-2.563-1.229-4.291c0-2.063,0.539-3.676,1.617-4.845
						s2.44-1.753,4.09-1.753c1.852,0,3.313,0.611,4.383,1.834s1.582,3.098,1.535,5.619h-8.25c0.022,0.979,0.289,1.736,0.797,2.281
						c0.508,0.539,1.141,0.813,1.898,0.813c0.516,0,0.948-0.141,1.301-0.422C55.768,160.616,56.033,160.163,56.213,159.538z
						 M56.4,156.209c-0.022-0.953-0.27-1.678-0.737-2.172c-0.47-0.496-1.039-0.746-1.711-0.746c-0.72,0-1.313,0.263-1.781,0.787
						c-0.469,0.521-0.699,1.233-0.691,2.131H56.4z"/>
					<path fill="#FFFFFF" d="M74.645,154.734l-3.246,0.585c-0.108-0.646-0.356-1.138-0.744-1.466
						c-0.387-0.328-0.889-0.49-1.506-0.49c-0.819,0-1.475,0.284-1.963,0.851c-0.487,0.565-0.731,1.513-0.731,2.841
						c0,1.478,0.248,2.519,0.744,3.128c0.495,0.609,1.161,0.916,1.997,0.916c0.625,0,1.138-0.18,1.535-0.535
						c0.398-0.354,0.681-0.965,0.845-1.834l3.233,0.553c-0.336,1.484-0.979,2.604-1.934,3.363c-0.953,0.756-2.23,1.137-3.832,1.137
						c-1.82,0-3.271-0.574-4.354-1.725c-1.082-1.146-1.623-2.737-1.623-4.77c0-2.054,0.543-3.652,1.629-4.797
						c1.087-1.146,2.556-1.719,4.406-1.719c1.517,0,2.721,0.328,3.615,0.979C73.611,152.403,74.254,153.397,74.645,154.734z"/>
					<path fill="#FFFFFF" d="M77.819,157.101c0-1.095,0.271-2.153,0.81-3.175c0.539-1.025,1.302-1.807,2.29-2.344
						c0.987-0.541,2.093-0.811,3.312-0.811c1.883,0,3.426,0.611,4.629,1.834s1.806,2.77,1.806,4.635
						c0,1.885-0.608,3.443-1.823,4.682c-1.215,1.24-2.743,1.859-4.587,1.859c-1.142,0-2.229-0.26-3.266-0.775
						c-1.035-0.514-1.82-1.271-2.359-2.266C78.089,159.745,77.819,158.532,77.819,157.101z M81.194,157.275
						c0,1.233,0.293,2.183,0.88,2.838c0.586,0.656,1.309,0.984,2.168,0.984c0.858,0,1.578-0.328,2.16-0.984
						c0.582-0.655,0.874-1.608,0.874-2.858c0-1.219-0.292-2.156-0.874-2.813s-1.302-0.983-2.16-0.983
						c-0.859,0-1.582,0.328-2.168,0.983C81.487,155.097,81.194,156.042,81.194,157.275z"/>
					<path fill="#FFFFFF" d="M105.958,163.5h-3.293v-6.354c0-1.344-0.07-2.213-0.211-2.605c-0.142-0.394-0.369-0.703-0.687-0.922
						c-0.316-0.22-0.697-0.328-1.143-0.328c-0.57,0-1.082,0.156-1.535,0.469s-0.764,0.729-0.932,1.244
						c-0.168,0.515-0.252,1.469-0.252,2.858v5.638h-3.294v-12.446h3.06v1.827c1.086-1.405,2.453-2.108,4.102-2.108
						c0.728,0,1.392,0.131,1.992,0.394c0.602,0.264,1.058,0.594,1.365,1s0.522,0.869,0.645,1.385
						c0.122,0.517,0.183,1.254,0.183,2.216V163.5z"/>
					<path fill="#FFFFFF" d="M122.108,163.5h-3.059v-1.828c-0.508,0.709-1.108,1.24-1.8,1.588c-0.692,0.347-1.389,0.521-2.091,0.521
						c-1.431,0-2.655-0.578-3.676-1.729c-1.02-1.153-1.527-2.764-1.527-4.825c0-2.108,0.496-3.713,1.487-4.81
						c0.992-1.098,2.246-1.646,3.763-1.646c1.391,0,2.594,0.578,3.608,1.734v-6.188h3.293L122.108,163.5L122.108,163.5z
						 M113.319,157.006c0,1.328,0.185,2.291,0.552,2.885c0.53,0.859,1.272,1.288,2.227,1.288c0.758,0,1.402-0.322,1.934-0.966
						c0.532-0.645,0.798-1.609,0.798-2.892c0-1.428-0.259-2.456-0.773-3.088c-0.516-0.628-1.176-0.942-1.979-0.942
						c-0.781,0-1.438,0.313-1.965,0.935C113.582,154.844,113.319,155.772,113.319,157.006z"/>
					<path fill="#FFFFFF" d="M129.34,154.851l-2.988-0.538c0.336-1.203,0.914-2.094,1.734-2.672s2.039-0.868,3.656-0.868
						c1.469,0,2.563,0.175,3.28,0.521c0.719,0.347,1.225,0.791,1.518,1.326c0.293,0.533,0.439,1.516,0.439,2.946l-0.035,3.845
						c0,1.094,0.053,1.898,0.157,2.418c0.105,0.521,0.305,1.078,0.593,1.672h-3.258c-0.086-0.219-0.19-0.543-0.315-0.976
						c-0.056-0.192-0.095-0.321-0.117-0.385c-0.563,0.547-1.164,0.957-1.805,1.229c-0.642,0.274-1.324,0.412-2.052,0.412
						c-1.28,0-2.292-0.351-3.029-1.044c-0.738-0.696-1.106-1.575-1.106-2.638c0-0.703,0.168-1.328,0.504-1.883
						c0.336-0.549,0.807-0.971,1.411-1.266c0.605-0.289,1.479-0.547,2.62-0.766c1.539-0.29,2.604-0.559,3.199-0.809v-0.328
						c0-0.635-0.156-1.086-0.47-1.354c-0.313-0.269-0.901-0.405-1.77-0.405c-0.586,0-1.043,0.114-1.371,0.346
						C129.808,153.868,129.543,154.272,129.34,154.851z M133.746,157.522c-0.422,0.141-1.09,0.311-2.004,0.503
						c-0.914,0.197-1.513,0.388-1.793,0.575c-0.431,0.307-0.646,0.689-0.646,1.158c0,0.464,0.172,0.859,0.516,1.197
						c0.345,0.334,0.781,0.504,1.313,0.504c0.594,0,1.16-0.194,1.699-0.586c0.397-0.297,0.66-0.662,0.785-1.09
						c0.086-0.281,0.129-0.816,0.129-1.605V157.522L133.746,157.522z"/>
					<path fill="#FFFFFF" d="M144.856,163.5h-3.293v-12.446h3.06v1.769c0.522-0.834,0.994-1.385,1.412-1.65
						c0.418-0.264,0.893-0.398,1.424-0.398c0.75,0,1.473,0.206,2.168,0.622l-1.021,2.871c-0.555-0.358-1.069-0.54-1.547-0.54
						c-0.461,0-0.852,0.128-1.172,0.381s-0.572,0.713-0.756,1.378c-0.185,0.663-0.275,2.054-0.275,4.173V163.5L144.856,163.5z"/>
					<path fill="#FFFFFF" d="M151.837,151.054h3.504l2.977,8.837l2.906-8.837h3.41l-4.395,11.978l-0.785,2.166
						c-0.289,0.729-0.564,1.281-0.826,1.666c-0.262,0.381-0.563,0.693-0.902,0.932s-0.758,0.425-1.254,0.557
						c-0.496,0.134-1.057,0.199-1.682,0.199c-0.633,0-1.254-0.065-1.863-0.199l-0.293-2.578c0.516,0.104,0.979,0.152,1.395,0.152
						c0.767,0,1.332-0.225,1.699-0.676c0.367-0.449,0.648-1.021,0.844-1.715L151.837,151.054z"/>
					<path fill="#FFFFFF" d="M179.132,157.182l3.363,1.068c-0.517,1.875-1.374,3.266-2.573,4.179
						c-1.199,0.909-2.72,1.362-4.563,1.362c-2.28,0-4.155-0.778-5.625-2.338c-1.469-1.557-2.202-3.688-2.202-6.392
						c0-2.858,0.737-5.081,2.215-6.662c1.477-1.581,3.418-2.375,5.823-2.375c2.103,0,3.81,0.622,5.121,1.865
						c0.781,0.733,1.367,1.788,1.759,3.163l-3.435,0.82c-0.203-0.891-0.628-1.594-1.271-2.108c-0.645-0.515-1.428-0.774-2.35-0.774
						c-1.272,0-2.308,0.456-3.101,1.372c-0.793,0.912-1.188,2.394-1.188,4.44c0,2.172,0.392,3.719,1.172,4.641
						c0.781,0.922,1.798,1.385,3.048,1.385c0.922,0,1.715-0.293,2.379-0.881C178.366,159.363,178.843,158.441,179.132,157.182z"/>
					<path fill="#FFFFFF" d="M186.496,149.366v-3.047h3.293v3.047H186.496z M186.496,163.5v-12.446h3.293V163.5H186.496z"/>
					<path fill="#FFFFFF" d="M200.425,151.054v2.625h-2.25v5.016c0,1.017,0.021,1.609,0.063,1.774
						c0.044,0.169,0.142,0.307,0.294,0.416c0.151,0.109,0.339,0.166,0.558,0.166c0.305,0,0.746-0.106,1.323-0.316l0.28,2.555
						c-0.765,0.328-1.632,0.492-2.601,0.492c-0.594,0-1.129-0.1-1.605-0.3c-0.476-0.2-0.826-0.456-1.05-0.771
						c-0.223-0.319-0.376-0.748-0.462-1.285c-0.07-0.385-0.104-1.155-0.104-2.321v-5.425h-1.513v-2.625h1.513v-2.473l3.305-1.922
						v4.395L200.425,151.054L200.425,151.054z"/>
					<path fill="#FFFFFF" d="M204.318,149.366v-3.047h3.292v3.047H204.318z M204.318,163.5v-12.446h3.292V163.5H204.318z"/>
					<path fill="#FFFFFF" d="M219.717,159.538l3.281,0.551c-0.422,1.203-1.089,2.121-1.998,2.75
						c-0.91,0.627-2.049,0.943-3.416,0.943c-2.164,0-3.767-0.71-4.806-2.121c-0.819-1.136-1.229-2.563-1.229-4.291
						c0-2.063,0.537-3.676,1.615-4.845s2.441-1.753,4.091-1.753c1.852,0,3.313,0.611,4.383,1.834s1.583,3.098,1.536,5.619h-8.25
						c0.021,0.979,0.287,1.736,0.797,2.281c0.506,0.539,1.141,0.813,1.896,0.813c0.516,0,0.949-0.141,1.302-0.422
						C219.272,160.616,219.537,160.163,219.717,159.538z M219.904,156.209c-0.022-0.953-0.271-1.678-0.738-2.172
						c-0.47-0.496-1.037-0.746-1.709-0.746c-0.72,0-1.313,0.263-1.781,0.787c-0.469,0.521-0.7,1.233-0.692,2.131H219.904z"/>
					<path fill="#FFFFFF" d="M226.168,159.948l3.305-0.504c0.141,0.641,0.427,1.129,0.855,1.459c0.431,0.331,1.03,0.497,1.806,0.497
						c0.851,0,1.491-0.155,1.922-0.469c0.288-0.22,0.433-0.511,0.433-0.878c0-0.25-0.077-0.456-0.233-0.622
						c-0.164-0.156-0.531-0.3-1.103-0.433c-2.655-0.586-4.34-1.121-5.05-1.604c-0.983-0.672-1.478-1.606-1.478-2.802
						c0-1.077,0.426-1.983,1.276-2.719c0.852-0.734,2.173-1.103,3.961-1.103c1.703,0,2.97,0.278,3.798,0.831
						c0.827,0.557,1.397,1.375,1.711,2.463l-3.105,0.574c-0.132-0.484-0.385-0.855-0.757-1.115c-0.37-0.256-0.899-0.385-1.587-0.385
						c-0.866,0-1.488,0.119-1.863,0.363c-0.25,0.172-0.375,0.394-0.375,0.668c0,0.233,0.109,0.432,0.328,0.598
						c0.297,0.219,1.322,0.527,3.075,0.925c1.755,0.399,2.979,0.888,3.675,1.466c0.688,0.584,1.031,1.402,1.031,2.449
						c0,1.141-0.478,2.119-1.431,2.941c-0.952,0.818-2.362,1.229-4.229,1.229c-1.696,0-3.037-0.344-4.026-1.03
						C227.119,162.061,226.473,161.129,226.168,159.948z"/>
					<path fill="#FFFFFF" d="M242.051,163.5v-3.293h3.293v3.293H242.051z"/>
					<path fill="#FFFFFF" d="M249.149,159.948l3.306-0.504c0.141,0.641,0.427,1.129,0.854,1.459
						c0.433,0.331,1.031,0.497,1.808,0.497c0.85,0,1.489-0.155,1.922-0.469c0.287-0.22,0.433-0.511,0.433-0.878
						c0-0.25-0.078-0.456-0.234-0.622c-0.163-0.156-0.53-0.3-1.102-0.433c-2.656-0.586-4.341-1.121-5.05-1.604
						c-0.984-0.672-1.479-1.606-1.479-2.802c0-1.077,0.428-1.983,1.278-2.719c0.851-0.734,2.172-1.103,3.961-1.103
						c1.703,0,2.969,0.278,3.797,0.831c0.828,0.557,1.398,1.375,1.711,2.463l-3.105,0.574c-0.131-0.484-0.385-0.855-0.756-1.115
						c-0.37-0.256-0.9-0.385-1.589-0.385c-0.864,0-1.486,0.119-1.861,0.363c-0.25,0.172-0.375,0.394-0.375,0.668
						c0,0.233,0.108,0.432,0.328,0.598c0.297,0.219,1.321,0.527,3.074,0.925c1.756,0.399,2.979,0.888,3.676,1.466
						c0.688,0.584,1.03,1.402,1.03,2.449c0,1.141-0.477,2.119-1.43,2.941c-0.953,0.818-2.364,1.229-4.229,1.229
						c-1.697,0-3.037-0.344-4.026-1.03C250.1,162.061,249.454,161.129,249.149,159.948z"/>
					<path fill="#FFFFFF" d="M270.715,151.054v2.625h-2.25v5.016c0,1.017,0.021,1.609,0.066,1.774
						c0.042,0.169,0.141,0.307,0.292,0.416c0.15,0.109,0.339,0.166,0.558,0.166c0.303,0,0.745-0.106,1.323-0.316l0.28,2.555
						c-0.766,0.328-1.633,0.492-2.602,0.492c-0.594,0-1.128-0.1-1.606-0.3c-0.475-0.2-0.823-0.456-1.048-0.771
						c-0.224-0.319-0.377-0.748-0.463-1.285c-0.07-0.385-0.104-1.155-0.104-2.321v-5.425h-1.514v-2.625h1.514v-2.473l3.303-1.922
						v4.395L270.715,151.054L270.715,151.054z"/>
					<path fill="#FFFFFF" d="M277.079,154.851l-2.989-0.538c0.338-1.203,0.916-2.094,1.734-2.672
						c0.821-0.578,2.041-0.868,3.655-0.868c1.47,0,2.563,0.175,3.281,0.521c0.718,0.347,1.226,0.791,1.521,1.326
						c0.292,0.533,0.438,1.516,0.438,2.946l-0.036,3.845c0,1.094,0.054,1.898,0.16,2.418c0.104,0.521,0.303,1.078,0.59,1.672h-3.256
						c-0.088-0.219-0.192-0.543-0.317-0.976c-0.055-0.192-0.094-0.321-0.116-0.385c-0.563,0.547-1.164,0.957-1.806,1.229
						c-0.641,0.274-1.322,0.412-2.052,0.412c-1.281,0-2.29-0.351-3.027-1.044c-0.738-0.696-1.107-1.575-1.107-2.638
						c0-0.703,0.167-1.328,0.505-1.883c0.334-0.549,0.807-0.971,1.411-1.266c0.604-0.289,1.479-0.547,2.62-0.766
						c1.537-0.29,2.604-0.559,3.197-0.809v-0.328c0-0.635-0.155-1.086-0.469-1.354c-0.313-0.269-0.9-0.405-1.771-0.405
						c-0.584,0-1.042,0.114-1.37,0.346C277.547,153.868,277.282,154.272,277.079,154.851z M281.485,157.522
						c-0.422,0.141-1.089,0.311-2.005,0.503c-0.912,0.197-1.511,0.388-1.792,0.575c-0.43,0.307-0.646,0.689-0.646,1.158
						c0,0.464,0.172,0.859,0.516,1.197c0.344,0.334,0.781,0.504,1.313,0.504c0.594,0,1.161-0.194,1.699-0.586
						c0.398-0.297,0.659-0.662,0.784-1.09c0.088-0.281,0.13-0.816,0.13-1.605V157.522z"/>
					<path fill="#FFFFFF" d="M295.087,151.054v2.625h-2.25v5.016c0,1.017,0.021,1.609,0.063,1.774
						c0.044,0.169,0.142,0.307,0.294,0.416c0.153,0.109,0.339,0.166,0.558,0.166c0.306,0,0.746-0.106,1.324-0.316l0.28,2.555
						c-0.766,0.328-1.633,0.492-2.602,0.492c-0.594,0-1.129-0.1-1.604-0.3c-0.478-0.2-0.827-0.456-1.05-0.771
						c-0.222-0.319-0.377-0.748-0.463-1.285c-0.07-0.385-0.104-1.155-0.104-2.321v-5.425h-1.513v-2.625h1.513v-2.473l3.306-1.922
						v4.395L295.087,151.054L295.087,151.054z"/>
					<path fill="#FFFFFF" d="M306.125,159.538l3.281,0.551c-0.423,1.203-1.091,2.121-2,2.75c-0.91,0.627-2.048,0.943-3.416,0.943
						c-2.162,0-3.767-0.71-4.804-2.121c-0.821-1.136-1.23-2.563-1.23-4.291c0-2.063,0.539-3.676,1.617-4.845
						c1.077-1.169,2.441-1.753,4.089-1.753c1.854,0,3.313,0.611,4.385,1.834c1.068,1.223,1.581,3.098,1.534,5.619h-8.25
						c0.022,0.979,0.289,1.736,0.797,2.281c0.508,0.539,1.141,0.813,1.897,0.813c0.517,0,0.948-0.141,1.303-0.422
						C305.678,160.616,305.943,160.163,306.125,159.538z M306.313,156.209c-0.024-0.953-0.271-1.678-0.738-2.172
						c-0.47-0.496-1.039-0.746-1.712-0.746c-0.719,0-1.313,0.263-1.78,0.787c-0.47,0.521-0.7,1.233-0.69,2.131H306.313z"/>
					<path fill="#FFFFFF" d="M313.524,163.5v-3.293h3.294v3.293H313.524z"/>
					<path fill="#FFFFFF" d="M321.024,164.319l3.764,0.456c0.063,0.438,0.206,0.74,0.435,0.903c0.313,0.234,0.803,0.354,1.475,0.354
						c0.859,0,1.506-0.132,1.936-0.388c0.289-0.172,0.508-0.45,0.656-0.832c0.102-0.274,0.152-0.776,0.152-1.513v-1.815
						c-0.983,1.345-2.229,2.017-3.729,2.017c-1.672,0-2.995-0.709-3.972-2.121c-0.767-1.119-1.148-2.51-1.148-4.172
						c0-2.088,0.502-3.683,1.505-4.781c1.005-1.104,2.253-1.653,3.745-1.653c1.539,0,2.808,0.675,3.808,2.028v-1.747h3.083v11.169
						c0,1.469-0.119,2.564-0.363,3.293c-0.24,0.727-0.581,1.297-1.02,1.71c-0.438,0.415-1.021,0.737-1.753,0.972
						c-0.729,0.234-1.653,0.354-2.771,0.354c-2.109,0-3.604-0.363-4.489-1.085c-0.881-0.723-1.323-1.639-1.323-2.747
						C321.014,164.609,321.019,164.476,321.024,164.319z M323.967,157.02c0,1.318,0.255,2.287,0.768,2.898
						c0.513,0.613,1.145,0.92,1.895,0.92c0.803,0,1.484-0.313,2.037-0.94c0.557-0.632,0.833-1.563,0.833-2.797
						c0-1.288-0.267-2.247-0.797-2.872c-0.531-0.625-1.203-0.938-2.017-0.938c-0.789,0-1.438,0.31-1.951,0.922
						C324.222,154.825,323.967,155.76,323.967,157.02z"/>
					<path fill="#FFFFFF" d="M336.678,157.101c0-1.095,0.27-2.153,0.81-3.175c0.537-1.025,1.303-1.807,2.29-2.344
						c0.988-0.541,2.092-0.811,3.311-0.811c1.885,0,3.427,0.611,4.63,1.834s1.805,2.77,1.805,4.635c0,1.885-0.606,3.443-1.821,4.682
						c-1.216,1.24-2.743,1.859-4.587,1.859c-1.142,0-2.229-0.26-3.267-0.775c-1.034-0.516-1.822-1.271-2.358-2.266
						C336.946,159.745,336.678,158.532,336.678,157.101z M340.053,157.275c0,1.233,0.294,2.183,0.878,2.838
						c0.588,0.656,1.311,0.984,2.169,0.984c0.859,0,1.58-0.328,2.162-0.984c0.582-0.655,0.872-1.608,0.872-2.858
						c0-1.219-0.29-2.156-0.872-2.813s-1.303-0.983-2.162-0.983c-0.858,0-1.581,0.328-2.169,0.983
						C340.347,155.098,340.053,156.042,340.053,157.275z"/>
					<path fill="#FFFFFF" d="M356.488,163.5l-5.016-12.446h3.458l2.344,6.353l0.68,2.119c0.181-0.537,0.293-0.895,0.34-1.064
						c0.108-0.352,0.227-0.703,0.352-1.055l2.367-6.353h3.388l-4.945,12.446H356.488z"/>
				</g>
				<g>
					<path fill="#FFFFFF" d="M159.933,52.405l4.988-0.26c0.069,1.588,0.342,2.659,0.816,3.216c0.766,0.903,2.179,1.356,4.24,1.356
						c1.715,0,2.955-0.31,3.721-0.922c0.765-0.616,1.146-1.356,1.146-2.226c0-0.753-0.313-1.391-0.938-1.912
						c-0.44-0.381-1.648-1-3.623-1.859c-1.977-0.856-3.419-1.572-4.328-2.146c-0.91-0.572-1.625-1.319-2.146-2.234
						c-0.521-0.913-0.782-1.984-0.782-3.213c0-2.144,0.776-3.925,2.329-5.338c1.554-1.414,3.802-2.121,6.743-2.121
						c2.99,0,5.304,0.701,6.944,2.103c1.64,1.403,2.54,3.269,2.703,5.597l-5.023,0.229c-0.128-1.219-0.567-2.15-1.32-2.8
						c-0.754-0.647-1.866-0.972-3.338-0.972c-1.447,0-2.481,0.253-3.103,0.762c-0.62,0.513-0.93,1.153-0.93,1.932
						c0,0.729,0.283,1.331,0.852,1.807c0.567,0.487,1.825,1.152,3.771,2c2.932,1.262,4.798,2.287,5.597,3.074
						c1.192,1.16,1.791,2.65,1.791,4.469c0,2.247-0.892,4.169-2.668,5.763c-1.779,1.591-4.257,2.388-7.432,2.388
						c-2.189,0-4.088-0.365-5.691-1.104c-1.605-0.734-2.737-1.759-3.398-3.068C160.193,55.614,159.887,54.108,159.933,52.405z"/>
					<path fill="#FFFFFF" d="M201.386,52.98h-12.515c-0.013,0.196-0.018,0.347-0.018,0.453c0,1.228,0.351,2.219,1.053,2.972
						c0.699,0.753,1.555,1.128,2.563,1.128c1.657,0,2.949-0.856,3.876-2.572l4.468,0.747c-0.869,1.797-2.03,3.144-3.484,4.041
						c-1.454,0.899-3.085,1.347-4.894,1.347c-2.479,0-4.496-0.784-6.048-2.354c-1.554-1.571-2.33-3.646-2.33-6.23
						c0-2.528,0.701-4.775,2.104-6.744c1.912-2.666,4.641-4,8.187-4c2.259,0,4.056,0.7,5.388,2.097c1.332,1.397,2,3.351,2,5.866
						C201.734,50.937,201.618,52.018,201.386,52.98z M197.18,49.939c0.012-0.222,0.019-0.391,0.019-0.506
						c0-1.366-0.309-2.391-0.923-3.075c-0.613-0.684-1.437-1.025-2.468-1.025s-1.956,0.388-2.771,1.163
						c-0.816,0.777-1.37,1.925-1.66,3.443H197.18L197.18,49.939z"/>
					<path fill="#FFFFFF" d="M216.501,53.708l4.849,0.784c-0.8,2.153-1.98,3.794-3.545,4.919c-1.563,1.122-3.379,1.685-5.438,1.685
						c-2.354,0-4.22-0.7-5.598-2.104c-1.38-1.399-2.068-3.331-2.068-5.787c0-2.003,0.416-3.896,1.25-5.685
						c0.835-1.784,2.093-3.188,3.771-4.212c1.681-1.025,3.523-1.541,5.528-1.541c2.178,0,3.915,0.568,5.214,1.706
						c1.298,1.135,2.026,2.628,2.188,4.484l-4.742,0.503c-0.116-1.031-0.433-1.79-0.947-2.277c-0.517-0.488-1.19-0.729-2.024-0.729
						c-0.963,0-1.858,0.359-2.693,1.075c-0.834,0.719-1.476,1.794-1.922,3.225c-0.446,1.432-0.67,2.772-0.67,4.025
						c0,1.087,0.267,1.928,0.802,2.519c0.53,0.591,1.197,0.888,1.998,0.888c0.799,0,1.569-0.291,2.311-0.869
						C215.504,55.736,216.084,54.867,216.501,53.708z"/>
					<path fill="#FFFFFF" d="M225.126,52.996c0-3.416,0.964-6.145,2.894-8.176c1.931-2.034,4.465-3.053,7.605-3.053
						c2.722,0,4.848,0.753,6.378,2.253c1.529,1.5,2.294,3.519,2.294,6.057c0,2.99-0.957,5.575-2.867,7.753
						c-1.911,2.178-4.474,3.266-7.684,3.266c-1.737,0-3.277-0.347-4.621-1.041c-1.347-0.696-2.349-1.681-3.008-2.956
						C225.456,55.824,225.126,54.458,225.126,52.996z M239.344,49.434c0-1.182-0.344-2.129-1.035-2.841
						c-0.688-0.713-1.578-1.069-2.668-1.069c-1.077,0-2.031,0.332-2.866,1c-0.834,0.666-1.483,1.632-1.945,2.9
						c-0.466,1.271-0.697,2.438-0.697,3.503c0,1.322,0.359,2.372,1.078,3.147c0.719,0.774,1.622,1.165,2.713,1.165
						c1.365,0,2.512-0.587,3.439-1.756C238.684,53.827,239.344,51.809,239.344,49.434z"/>
					<path fill="#FFFFFF" d="M250.426,42.205h4.729l-0.485,2.396c1.182-1.019,2.285-1.746,3.31-2.181
						c1.025-0.435,2.106-0.653,3.242-0.653c1.519,0,2.714,0.438,3.589,1.307c0.875,0.868,1.313,2.021,1.313,3.456
						c0,0.649-0.19,1.878-0.573,3.688l-2.173,10.443h-4.988l2.191-10.481c0.322-1.563,0.484-2.496,0.484-2.797
						c0-0.637-0.188-1.137-0.563-1.503c-0.379-0.365-0.903-0.547-1.575-0.547c-0.729,0-1.541,0.307-2.432,0.919
						c-0.895,0.615-1.595,1.428-2.104,2.435c-0.372,0.719-0.789,2.185-1.254,4.396l-1.581,7.578h-4.987L250.426,42.205z"/>
					<path fill="#FFFFFF" d="M285.766,60.661h-4.727l0.417-1.997c-0.903,0.869-1.794,1.491-2.669,1.869
						c-0.875,0.375-1.862,0.563-2.963,0.563c-1.912,0-3.463-0.65-4.649-1.953c-1.188-1.307-1.781-3.231-1.781-5.781
						c0-2.953,0.834-5.625,2.503-8.013c1.669-2.388,3.875-3.581,6.622-3.581c2.479,0,4.339,0.987,5.578,2.956l2-9.542h4.987
						L285.766,60.661z M274.243,53.155c0,1.318,0.331,2.35,0.999,3.094c0.667,0.74,1.484,1.109,2.459,1.109
						c0.903,0,1.747-0.31,2.528-0.929c0.781-0.618,1.406-1.568,1.877-2.84c0.472-1.275,0.705-2.497,0.705-3.669
						c0-1.331-0.358-2.409-1.078-3.234c-0.719-0.822-1.547-1.231-2.485-1.231c-1.459,0-2.659,0.81-3.6,2.432
						C274.712,49.508,274.243,51.265,274.243,53.155z"/>
					<path fill="#FFFFFF" d="M298.065,47.437l-4.869-0.419c0.558-1.644,1.528-2.932,2.913-3.859c1.385-0.925,3.22-1.391,5.5-1.391
						c2.375,0,4.132,0.479,5.27,1.435c1.134,0.956,1.703,2.125,1.703,3.503c0,0.557-0.05,1.146-0.147,1.771
						c-0.1,0.629-0.442,2.272-1.034,4.938c-0.486,2.2-0.73,3.744-0.73,4.622c0,0.791,0.141,1.666,0.419,2.625h-4.853
						c-0.195-0.672-0.317-1.365-0.363-2.084c-0.73,0.81-1.571,1.435-2.521,1.868c-0.95,0.435-1.906,0.65-2.867,0.65
						c-1.528,0-2.792-0.5-3.789-1.503c-0.996-1-1.493-2.291-1.493-3.866c0-1.762,0.547-3.168,1.641-4.225
						c1.098-1.053,3.052-1.69,5.867-1.912c2.375-0.197,3.963-0.435,4.763-0.713c0.208-0.693,0.313-1.25,0.313-1.669
						c0-0.531-0.214-0.978-0.643-1.337c-0.43-0.359-1.066-0.538-1.913-0.538c-0.894,0-1.597,0.182-2.111,0.547
						C298.6,46.246,298.25,46.765,298.065,47.437z M302.809,52.059c-0.301,0.081-0.699,0.156-1.199,0.225
						c-2.504,0.303-4.137,0.744-4.899,1.322c-0.545,0.418-0.817,0.98-0.817,1.688c0,0.578,0.208,1.068,0.627,1.469
						c0.415,0.399,0.966,0.597,1.649,0.597c0.754,0,1.463-0.182,2.129-0.547c0.667-0.366,1.165-0.835,1.496-1.406
						c0.328-0.575,0.622-1.469,0.877-2.688L302.809,52.059z"/>
					<path fill="#FFFFFF" d="M314.931,42.205h4.656l-0.747,3.578c1.738-2.675,3.622-4.016,5.65-4.016
						c0.716,0,1.486,0.182,2.31,0.541l-1.909,4.084c-0.453-0.162-0.935-0.244-1.444-0.244c-0.858,0-1.73,0.325-2.614,0.976
						c-0.889,0.646-1.578,1.513-2.078,2.597c-0.497,1.084-0.991,2.8-1.479,5.153l-1.216,5.787h-4.987L314.931,42.205z"/>
					<path fill="#FFFFFF" d="M328.681,42.205h4.972l1.25,9.193c0.313,2.363,0.488,4.02,0.522,4.969
						c0.646-1.887,1.54-3.881,2.675-5.978l4.416-8.185h5.284L336.397,62.47c-0.938,1.682-1.675,2.856-2.216,3.528
						c-0.537,0.672-1.188,1.2-1.946,1.581c-0.76,0.385-1.672,0.575-2.737,0.575c-1.054,0-2.24-0.185-3.563-0.557l0.436-3.719
						c0.604,0.172,1.188,0.26,1.757,0.26c1.526,0,2.787-1.159,3.771-3.479L328.681,42.205z"/>
					<path fill="#FFFFFF" d="M248.438,94.73l6.899,2.087c-0.464,1.935-1.193,3.55-2.19,4.847c-0.997,1.301-2.233,2.277-3.711,2.94
						c-1.477,0.659-3.356,0.99-5.639,0.99c-2.771,0-5.033-0.403-6.788-1.206c-1.756-0.808-3.271-2.222-4.547-4.249
						c-1.273-2.025-1.911-4.619-1.911-7.781c0-4.216,1.121-7.453,3.364-9.719c2.241-2.263,5.413-3.397,9.516-3.397
						c3.21,0,5.731,0.65,7.569,1.947c1.837,1.3,3.199,3.294,4.094,5.981l-6.953,1.547c-0.244-0.778-0.497-1.344-0.765-1.703
						c-0.44-0.604-0.979-1.065-1.617-1.391s-1.35-0.487-2.138-0.487c-1.784,0-3.151,0.719-4.103,2.152
						c-0.719,1.066-1.078,2.738-1.078,5.016c0,2.825,0.431,4.76,1.286,5.81c0.858,1.047,2.063,1.569,3.616,1.569
						c1.506,0,2.644-0.422,3.415-1.27C247.529,97.57,248.089,96.343,248.438,94.73z"/>
					<path fill="#FFFFFF" d="M259.925,79.68h7.891v25.48h-7.891V79.68z"/>
					<path fill="#FFFFFF" d="M271.953,79.68h23.933v6.291h-8.03v19.189h-7.875V85.971h-8.026L271.953,79.68L271.953,79.68z"/>
					<path fill="#FFFFFF" d="M300.021,79.68h7.892v25.48h-7.892V79.68z"/>
					<path fill="#FFFFFF" d="M314.131,79.68h21.1v5.438h-13.209v4.051h12.253v5.196h-12.253v5.025h13.592v5.771h-21.481
						L314.131,79.68L314.131,79.68z"/>
					<path fill="#FFFFFF" d="M339.172,96.73l7.49-0.469c0.162,1.215,0.493,2.145,0.989,2.777c0.813,1.035,1.974,1.547,3.479,1.547
						c1.122,0,1.99-0.262,2.597-0.79c0.609-0.525,0.913-1.138,0.913-1.831c0-0.663-0.291-1.254-0.869-1.775s-1.922-1.013-4.03-1.475
						c-3.453-0.778-5.916-1.81-7.389-3.094c-1.483-1.288-2.225-2.929-2.225-4.919c0-1.31,0.378-2.547,1.138-3.713
						c0.759-1.165,1.899-2.078,3.425-2.747c1.524-0.665,3.612-1,6.267-1c3.256,0,5.736,0.606,7.445,1.819
						c1.71,1.209,2.729,3.138,3.052,5.778l-7.419,0.434c-0.2-1.146-0.612-1.98-1.244-2.503c-0.631-0.521-1.503-0.781-2.615-0.781
						c-0.916,0-1.606,0.194-2.069,0.581c-0.462,0.388-0.695,0.863-0.695,1.416c0,0.406,0.192,0.771,0.574,1.097
						c0.371,0.335,1.25,0.65,2.642,0.938c3.442,0.744,5.909,1.494,7.396,2.25c1.487,0.76,2.572,1.703,3.25,2.825
						c0.679,1.125,1.017,2.381,1.017,3.771c0,1.635-0.45,3.141-1.354,4.52c-0.906,1.381-2.168,2.427-3.79,3.14
						c-1.622,0.712-3.666,1.068-6.135,1.068c-4.334,0-7.334-0.834-9.003-2.506C340.337,101.421,339.394,99.302,339.172,96.73z"/>
				</g>
			</g>
		</g>
	</g>
</g>
</svg>
