<?xml version="1.0" encoding="utf-8"?>
<!-- Generator: Adobe Illustrator 16.0.3, SVG Export Plug-In . SVG Version: 6.00 Build 0)  -->
<!DOCTYPE svg PUBLIC "-//W3C//DTD SVG 1.1//EN" "http://www.w3.org/Graphics/SVG/1.1/DTD/svg11.dtd">
<svg version="1.1"
	 id="svg3550" sodipodi:docname="mapgive_red_pt.svg" inkscape:version="0.48.3.1 r9886" xmlns:dc="http://purl.org/dc/elements/1.1/" xmlns:cc="http://creativecommons.org/ns#" xmlns:rdf="http://www.w3.org/1999/02/22-rdf-syntax-ns#" xmlns:svg="http://www.w3.org/2000/svg" xmlns:sodipodi="http://sodipodi.sourceforge.net/DTD/sodipodi-0.dtd" xmlns:inkscape="http://www.inkscape.org/namespaces/inkscape"
	 xmlns="http://www.w3.org/2000/svg" xmlns:xlink="http://www.w3.org/1999/xlink" x="0px" y="0px" width="72.2px" height="104px"
	 viewBox="0 0 72.2 104" enable-background="new 0 0 72.2 104" xml:space="preserve">
<filter  width="56.700001" height="7.0999999" id="c" filterUnits="userSpaceOnUse" x="185.7" y="199.89999" color-interpolation-filters="sRGB">
	<feColorMatrix  values="1 0 0 0 0 0 1 0 0 0 0 0 1 0 0 0 0 0 1 0" id="feColorMatrix3512"></feColorMatrix>
</filter>
<g id="g3614" filter="url(#c)">
	<g id="g3616_1_">
		
			<ellipse id="ellipse3618_1_" sodipodi:ry="3.5999999" sodipodi:rx="28.299999" sodipodi:cy="203.39999" sodipodi:cx="214.10001" cx="36.1" cy="99.4" rx="28.3" ry="3.6">
		</ellipse>
		
			<ellipse id="ellipse3620_1_" sodipodi:ry="3.4000001" sodipodi:rx="27.299999" sodipodi:cy="203.39999" sodipodi:cx="214.10001" fill="#070707" cx="36.1" cy="99.4" rx="27.3" ry="3.4">
		</ellipse>
		
			<ellipse id="ellipse3622_1_" sodipodi:ry="3.3" sodipodi:rx="26.299999" sodipodi:cy="203.39999" sodipodi:cx="214.10001" fill="#0D0D0D" cx="36.1" cy="99.4" rx="26.3" ry="3.3">
		</ellipse>
		
			<ellipse id="ellipse3624_1_" sodipodi:ry="3.2" sodipodi:rx="25.200001" sodipodi:cy="203.39999" sodipodi:cx="214.10001" fill="#141414" cx="36.1" cy="99.4" rx="25.199" ry="3.2">
		</ellipse>
		
			<ellipse id="ellipse3626_1_" sodipodi:ry="3" sodipodi:rx="24.1" sodipodi:cy="203.39999" sodipodi:cx="214.10001" fill="#1B1B1B" cx="36.1" cy="99.4" rx="24.1" ry="3">
		</ellipse>
		
			<ellipse id="ellipse3628_1_" sodipodi:ry="2.9000001" sodipodi:rx="23.1" sodipodi:cy="203.39999" sodipodi:cx="214.10001" fill="#212121" cx="36.1" cy="99.4" rx="23.1" ry="2.9">
		</ellipse>
		
			<ellipse id="ellipse3630_1_" sodipodi:ry="2.8" sodipodi:rx="22.1" sodipodi:cy="203.39999" sodipodi:cx="214.10001" fill="#282828" cx="36.1" cy="99.4" rx="22.1" ry="2.8">
		</ellipse>
		
			<ellipse id="ellipse3632_1_" sodipodi:ry="2.7" sodipodi:rx="21" sodipodi:cy="203.39999" sodipodi:cx="214.10001" fill="#2F2F2F" cx="36.1" cy="99.4" rx="21" ry="2.7">
		</ellipse>
		
			<ellipse id="ellipse3634_1_" sodipodi:ry="2.5" sodipodi:rx="20" sodipodi:cy="203.39999" sodipodi:cx="214.10001" fill="#353535" cx="36.1" cy="99.4" rx="20" ry="2.5">
		</ellipse>
		
			<ellipse id="ellipse3636_1_" sodipodi:ry="2.4000001" sodipodi:rx="18.9" sodipodi:cy="203.39999" sodipodi:cx="214.10001" fill="#3C3C3C" cx="36.1" cy="99.4" rx="18.9" ry="2.4">
		</ellipse>
		
			<ellipse id="ellipse3638_1_" sodipodi:ry="2.3" sodipodi:rx="17.9" sodipodi:cy="203.39999" sodipodi:cx="214.10001" fill="#434343" cx="36.1" cy="99.4" rx="17.9" ry="2.3">
		</ellipse>
		
			<ellipse id="ellipse3640_1_" sodipodi:ry="2.2" sodipodi:rx="16.9" sodipodi:cy="203.39999" sodipodi:cx="214.10001" fill="#494949" cx="36.1" cy="99.4" rx="16.9" ry="2.2">
		</ellipse>
		
			<ellipse id="ellipse3642_1_" sodipodi:ry="2" sodipodi:rx="15.8" sodipodi:cy="203.39999" sodipodi:cx="214.10001" fill="#505050" cx="36.1" cy="99.4" rx="15.8" ry="2">
		</ellipse>
		
			<ellipse id="ellipse3644_1_" sodipodi:ry="1.9" sodipodi:rx="14.7" sodipodi:cy="203.39999" sodipodi:cx="214.10001" fill="#565656" cx="36.1" cy="99.4" rx="14.699" ry="1.9">
		</ellipse>
		
			<ellipse id="ellipse3646_1_" sodipodi:ry="1.8" sodipodi:rx="13.7" sodipodi:cy="203.39999" sodipodi:cx="214.10001" fill="#5D5D5D" cx="36.1" cy="99.4" rx="13.699" ry="1.8">
		</ellipse>
		
			<ellipse id="ellipse3648_1_" sodipodi:ry="1.7" sodipodi:rx="12.7" sodipodi:cy="203.39999" sodipodi:cx="214.10001" fill="#646464" cx="36.1" cy="99.4" rx="12.699" ry="1.7">
		</ellipse>
		
			<ellipse id="ellipse3650_1_" sodipodi:ry="1.5" sodipodi:rx="11.7" sodipodi:cy="203.39999" sodipodi:cx="214.10001" fill="#6A6A6A" cx="36.1" cy="99.4" rx="11.699" ry="1.5">
		</ellipse>
		
			<ellipse id="ellipse3652_1_" sodipodi:ry="1.4" sodipodi:rx="10.5" sodipodi:cy="203.39999" sodipodi:cx="214.10001" fill="#717171" cx="36.1" cy="99.4" rx="10.5" ry="1.4">
		</ellipse>
		
			<ellipse id="ellipse3654_1_" sodipodi:ry="1.3" sodipodi:rx="9.5" sodipodi:cy="203.39999" sodipodi:cx="214.10001" fill="#787878" cx="36.1" cy="99.4" rx="9.5" ry="1.3">
		</ellipse>
		
			<ellipse id="ellipse3656_1_" sodipodi:ry="1" sodipodi:rx="8.5" sodipodi:cy="203.39999" sodipodi:cx="214.10001" fill="#7E7E7E" cx="36.1" cy="99.4" rx="8.5" ry="1">
		</ellipse>
		
			<ellipse id="ellipse3658_1_" sodipodi:ry="0.89999998" sodipodi:rx="7.5" sodipodi:cy="203.39999" sodipodi:cx="214.10001" fill="#858585" cx="36.1" cy="99.4" rx="7.5" ry="0.9">
		</ellipse>
		
			<ellipse id="ellipse3660_1_" sodipodi:ry="0.80000001" sodipodi:rx="6.5" sodipodi:cy="203.39999" sodipodi:cx="214.10001" fill="#8C8C8C" cx="36.1" cy="99.4" rx="6.5" ry="0.8">
		</ellipse>
		
			<ellipse id="ellipse3662_1_" sodipodi:ry="0.60000002" sodipodi:rx="5.3000002" sodipodi:cy="203.39999" sodipodi:cx="214.10001" fill="#929292" cx="36.1" cy="99.4" rx="5.3" ry="0.6">
		</ellipse>
		
			<ellipse id="ellipse3664_1_" sodipodi:ry="0.5" sodipodi:rx="4.3000002" sodipodi:cy="203.39999" sodipodi:cx="214.10001" fill="#999999" cx="36.1" cy="99.4" rx="4.3" ry="0.5">
		</ellipse>
		
			<ellipse id="ellipse3666_1_" sodipodi:ry="0.40000001" sodipodi:rx="3.3" sodipodi:cy="203.39999" sodipodi:cx="214.10001" fill="#A0A0A0" cx="36.1" cy="99.4" rx="3.3" ry="0.4">
		</ellipse>
		
			<ellipse id="ellipse3668_1_" sodipodi:ry="0.30000001" sodipodi:rx="2.3" sodipodi:cy="203.39999" sodipodi:cx="214.10001" fill="#A6A6A6" cx="36.1" cy="99.4" rx="2.3" ry="0.3">
		</ellipse>
		
			<ellipse id="ellipse3670_1_" sodipodi:ry="0.1" sodipodi:rx="1.3" sodipodi:cy="203.39999" sodipodi:cx="214.10001" fill="#ADADAD" cx="36.1" cy="99.4" rx="1.3" ry="0.1">
		</ellipse>
	</g>
</g>
<sodipodi:namedview  fit-margin-left="3" fit-margin-top="3" showgrid="false" inkscape:cy="52.560747" inkscape:cx="13.138251" inkscape:zoom="6.0432441" borderopacity="1.0" bordercolor="#666666" pagecolor="#ffffff" id="base" fit-margin-bottom="1" fit-margin-right="3" inkscape:window-maximized="0" inkscape:window-y="77" inkscape:window-x="397" inkscape:window-height="881" inkscape:window-width="1383" inkscape:current-layer="layer1" inkscape:document-units="px" inkscape:pageshadow="2" inkscape:pageopacity="0.0">
	</sodipodi:namedview>
<path id="path3497" inkscape:connector-curvature="0" fill="#7B533F" d="M36.1,99.6c0,0-1.3-5.6-10.5-23.3C16.2,58.7,3,51.2,3,34
	S17.9,3,36.1,3c18.199,0,33.1,13.8,33.1,31S56,58.6,46.6,76.4C37.299,94,36.1,99.6,36.1,99.6z"/>
<path id="path3499" inkscape:connector-curvature="0" fill="#485448" fill-opacity="0.5" d="M53.4,17.2L69,31.8
	c0,0.6,0.1,1.4,0.1,2.2c0,17.1-13.2,24.6-22.5,42.1L18.3,49.7L53.4,17.2z"/>
<path id="path3503" inkscape:connector-curvature="0" fill="#FFFFFF" d="M36.1,56.7c13.6,0,24.8-10.4,24.8-23.1
	c0-12.8-11.2-23.1-24.8-23.1c-13.6,0-24.6,10.3-24.6,23.1C11.4,46.3,22.5,56.7,36.1,56.7z"/>
<path id="path3505" inkscape:connector-curvature="0" fill="#7B533F" d="M36.1,45c6.699,0,12.199-5.1,12.199-11.4
	c0-3-1.299-6-3.699-8.1c-2.301-2.2-5.301-3.3-8.5-3.3c-3.3,0-6.3,1.1-8.6,3.3s-3.6,5.1-3.6,8.1s1.3,5.8,3.6,8
	C29.8,43.8,32.8,45,36.1,45z"/>
<path id="path3507" inkscape:connector-curvature="0" fill="#B4B4B4" d="M48.2,33.6c0-3-1.3-6-3.699-8.1L59.7,39.7
	c-2.3,7.9-8.9,14-17.3,16.1L27.2,41.6c2.3,2.2,5.3,3.4,8.6,3.4C42.799,45,48.2,39.8,48.2,33.6z"/>
<defs>
	<filter id="Adobe_OpacityMaskFilter" filterUnits="userSpaceOnUse" x="7.8" y="95.8" width="56.6" height="7.2">
		<feColorMatrix  type="matrix" values="1 0 0 0 0  0 1 0 0 0  0 0 1 0 0  0 0 0 1 0"/>
	</filter>
</defs>
<mask maskUnits="userSpaceOnUse" x="7.8" y="95.8" width="56.6" height="7.2" id="d">
	<g id="g3515" filter="url(#Adobe_OpacityMaskFilter)">
		<g id="g3517">
			
				<ellipse id="ellipse3519" sodipodi:ry="3.5999999" sodipodi:rx="28.299999" sodipodi:cy="203.39999" sodipodi:cx="214.10001" cx="214.1" cy="203.4" rx="28.3" ry="3.6">
			</ellipse>
			
				<ellipse id="ellipse3521" sodipodi:ry="3.4000001" sodipodi:rx="27.299999" sodipodi:cy="203.39999" sodipodi:cx="214.10001" fill="#070707" cx="214.1" cy="203.4" rx="27.3" ry="3.4">
			</ellipse>
			
				<ellipse id="ellipse3523" sodipodi:ry="3.3" sodipodi:rx="26.299999" sodipodi:cy="203.39999" sodipodi:cx="214.10001" fill="#0D0D0D" cx="214.1" cy="203.4" rx="26.3" ry="3.3">
			</ellipse>
			
				<ellipse id="ellipse3525" sodipodi:ry="3.2" sodipodi:rx="25.200001" sodipodi:cy="203.39999" sodipodi:cx="214.10001" fill="#141414" cx="214.1" cy="203.4" rx="25.199" ry="3.2">
			</ellipse>
			
				<ellipse id="ellipse3527" sodipodi:ry="3" sodipodi:rx="24.1" sodipodi:cy="203.39999" sodipodi:cx="214.10001" fill="#1B1B1B" cx="214.1" cy="203.4" rx="24.1" ry="3">
			</ellipse>
			
				<ellipse id="ellipse3529" sodipodi:ry="2.9000001" sodipodi:rx="23.1" sodipodi:cy="203.39999" sodipodi:cx="214.10001" fill="#212121" cx="214.1" cy="203.4" rx="23.1" ry="2.9">
			</ellipse>
			
				<ellipse id="ellipse3531" sodipodi:ry="2.8" sodipodi:rx="22.1" sodipodi:cy="203.39999" sodipodi:cx="214.10001" fill="#282828" cx="214.1" cy="203.4" rx="22.1" ry="2.8">
			</ellipse>
			
				<ellipse id="ellipse3533" sodipodi:ry="2.7" sodipodi:rx="21" sodipodi:cy="203.39999" sodipodi:cx="214.10001" fill="#2F2F2F" cx="214.1" cy="203.4" rx="21" ry="2.7">
			</ellipse>
			
				<ellipse id="ellipse3535" sodipodi:ry="2.5" sodipodi:rx="20" sodipodi:cy="203.39999" sodipodi:cx="214.10001" fill="#353535" cx="214.1" cy="203.4" rx="20" ry="2.5">
			</ellipse>
			
				<ellipse id="ellipse3537" sodipodi:ry="2.4000001" sodipodi:rx="18.9" sodipodi:cy="203.39999" sodipodi:cx="214.10001" fill="#3C3C3C" cx="214.1" cy="203.4" rx="18.9" ry="2.4">
			</ellipse>
			
				<ellipse id="ellipse3539" sodipodi:ry="2.3" sodipodi:rx="17.9" sodipodi:cy="203.39999" sodipodi:cx="214.10001" fill="#434343" cx="214.1" cy="203.4" rx="17.9" ry="2.3">
			</ellipse>
			
				<ellipse id="ellipse3541" sodipodi:ry="2.2" sodipodi:rx="16.9" sodipodi:cy="203.39999" sodipodi:cx="214.10001" fill="#494949" cx="214.1" cy="203.4" rx="16.9" ry="2.2">
			</ellipse>
			
				<ellipse id="ellipse3543" sodipodi:ry="2" sodipodi:rx="15.8" sodipodi:cy="203.39999" sodipodi:cx="214.10001" fill="#505050" cx="214.1" cy="203.4" rx="15.8" ry="2">
			</ellipse>
			
				<ellipse id="ellipse3545" sodipodi:ry="1.9" sodipodi:rx="14.7" sodipodi:cy="203.39999" sodipodi:cx="214.10001" fill="#565656" cx="214.1" cy="203.4" rx="14.699" ry="1.9">
			</ellipse>
			
				<ellipse id="ellipse3547" sodipodi:ry="1.8" sodipodi:rx="13.7" sodipodi:cy="203.39999" sodipodi:cx="214.10001" fill="#5D5D5D" cx="214.1" cy="203.4" rx="13.699" ry="1.8">
			</ellipse>
			
				<ellipse id="ellipse3549" sodipodi:ry="1.7" sodipodi:rx="12.7" sodipodi:cy="203.39999" sodipodi:cx="214.10001" fill="#646464" cx="214.1" cy="203.4" rx="12.699" ry="1.7">
			</ellipse>
			
				<ellipse id="ellipse3551" sodipodi:ry="1.5" sodipodi:rx="11.7" sodipodi:cy="203.39999" sodipodi:cx="214.10001" fill="#6A6A6A" cx="214.1" cy="203.4" rx="11.699" ry="1.5">
			</ellipse>
			
				<ellipse id="ellipse3553" sodipodi:ry="1.4" sodipodi:rx="10.5" sodipodi:cy="203.39999" sodipodi:cx="214.10001" fill="#717171" cx="214.1" cy="203.4" rx="10.5" ry="1.4">
			</ellipse>
			
				<ellipse id="ellipse3555" sodipodi:ry="1.3" sodipodi:rx="9.5" sodipodi:cy="203.39999" sodipodi:cx="214.10001" fill="#787878" cx="214.1" cy="203.4" rx="9.5" ry="1.3">
			</ellipse>
			
				<ellipse id="ellipse3557" sodipodi:ry="1" sodipodi:rx="8.5" sodipodi:cy="203.39999" sodipodi:cx="214.10001" fill="#7E7E7E" cx="214.1" cy="203.4" rx="8.5" ry="1">
			</ellipse>
			
				<ellipse id="ellipse3559" sodipodi:ry="0.89999998" sodipodi:rx="7.5" sodipodi:cy="203.39999" sodipodi:cx="214.10001" fill="#858585" cx="214.1" cy="203.4" rx="7.5" ry="0.9">
			</ellipse>
			
				<ellipse id="ellipse3561" sodipodi:ry="0.80000001" sodipodi:rx="6.5" sodipodi:cy="203.39999" sodipodi:cx="214.10001" fill="#8C8C8C" cx="214.1" cy="203.4" rx="6.5" ry="0.8">
			</ellipse>
			
				<ellipse id="ellipse3563" sodipodi:ry="0.60000002" sodipodi:rx="5.3000002" sodipodi:cy="203.39999" sodipodi:cx="214.10001" fill="#929292" cx="214.1" cy="203.4" rx="5.3" ry="0.6">
			</ellipse>
			
				<ellipse id="ellipse3565" sodipodi:ry="0.5" sodipodi:rx="4.3000002" sodipodi:cy="203.39999" sodipodi:cx="214.10001" fill="#999999" cx="214.1" cy="203.4" rx="4.3" ry="0.5">
			</ellipse>
			
				<ellipse id="ellipse3567" sodipodi:ry="0.40000001" sodipodi:rx="3.3" sodipodi:cy="203.39999" sodipodi:cx="214.10001" fill="#A0A0A0" cx="214.1" cy="203.4" rx="3.3" ry="0.4">
			</ellipse>
			
				<ellipse id="ellipse3569" sodipodi:ry="0.30000001" sodipodi:rx="2.3" sodipodi:cy="203.39999" sodipodi:cx="214.10001" fill="#A6A6A6" cx="214.1" cy="203.4" rx="2.3" ry="0.3">
			</ellipse>
			
				<ellipse id="ellipse3571" sodipodi:ry="0.1" sodipodi:rx="1.3" sodipodi:cy="203.39999" sodipodi:cx="214.10001" fill="#ADADAD" cx="214.1" cy="203.4" rx="1.3" ry="0.1">
			</ellipse>
		</g>
	</g>
</mask>
<ellipse id="ellipse3573" sodipodi:ry="3.5999999" sodipodi:rx="28.299999" sodipodi:cy="203.39999" sodipodi:cx="214.10001" mask="url(#d)" fill="#505050" cx="36.1" cy="99.4" rx="28.3" ry="3.6">
</ellipse>
<path id="path4690" inkscape:connector-curvature="0" fill="#505050" d="M-312.472-319.362"/>
<path id="path4692" inkscape:connector-curvature="0" fill="#505050" d="M-312.472-319.362"/>
<path id="path4694" inkscape:connector-curvature="0" fill="#505050" d="M-312.472-319.362"/>
<path id="path4696" inkscape:connector-curvature="0" fill="#505050" d="M-312.472-319.362"/>
<path id="path4708" inkscape:connector-curvature="0" fill="#684C36" d="M35.063,65.266C22.391,53.412,22.294,53.319,22.455,53.158
	c0.064-0.064,0.799,0.252,1.634,0.701c0.835,0.45,2.489,1.143,3.676,1.539c12.941,4.324,27.134-1.992,31.823-14.163
	c1.566-4.067,1.773-9.33,0.535-13.604c-0.528-1.825-1.729-4.534-2.557-5.77c-0.246-0.367-0.348-0.668-0.226-0.668
	s2.744,2.361,5.827,5.247c6.489,6.074,6.052,5.331,5.707,9.702c-0.354,4.468-1.089,7.151-3.086,11.259
	c-1.623,3.338-3.228,5.731-8.842,13.185c-4.928,6.544-7.378,10.091-9.241,13.383c-0.592,1.046-1.136,1.896-1.207,1.887
	C46.427,75.849,41.281,71.083,35.063,65.266z"/>
</svg>
